{"glyphs":{"0":{"ha":772,"x_min":0,"x_max":772,"o":"m 364 26 q 315 20 342 21 q 267 22 288 18 q 104 107 175 41 q 42 207 60 150 q 105 560 0 341 q 277 810 172 696 q 524 945 430 967 q 544 938 535 941 q 568 932 552 936 q 605 918 584 928 q 642 896 625 908 q 680 862 660 883 q 710 826 699 842 q 766 610 772 736 q 724 413 764 517 q 481 79 638 182 q 364 26 423 40 m 214 125 q 219 120 216 121 q 231 119 222 119 q 262 125 243 119 q 300 139 282 130 q 489 323 392 182 q 600 526 564 430 q 642 737 646 652 q 619 832 637 800 l 614 842 l 610 836 q 604 828 609 833 q 591 819 599 823 q 530 768 566 802 q 459 696 494 734 q 276 426 348 568 q 200 208 211 291 q 214 125 195 157 z "},"1":{"ha":652,"x_min":0,"x_max":652,"o":"m 142 11 q 141 11 142 11 q 137 8 139 9 q 129 8 134 7 q 113 13 124 9 q 111 13 113 13 q 6 112 33 35 q 1 132 3 123 q 0 159 0 141 q 1 186 0 176 q 6 210 3 197 q 108 402 28 290 q 326 667 191 517 q 338 681 334 675 q 340 686 342 686 q 315 677 324 680 q 294 675 305 675 q 276 675 282 674 q 261 682 270 677 q 229 707 243 691 q 208 739 214 723 q 209 761 202 754 q 216 765 211 762 q 227 770 220 767 q 247 779 237 773 q 275 796 258 785 q 323 828 292 808 q 559 954 488 941 q 596 957 584 960 q 619 942 608 955 q 650 856 652 905 q 593 727 650 817 q 388 444 536 637 q 125 65 148 129 l 119 50 l 125 45 q 130 41 127 43 q 134 38 132 39 q 139 32 136 36 q 145 24 142 28 q 147 18 147 20 q 145 14 147 16 q 142 11 144 12 z "},"2":{"ha":732,"x_min":0,"x_max":732,"o":"m 216 45 q 170 40 197 41 q 125 41 142 39 q 9 119 41 51 q 3 133 5 128 q 0 144 1 138 q 0 159 0 149 q 1 179 0 173 q 7 195 3 184 q 144 284 43 258 q 236 295 179 292 q 332 295 292 298 l 356 292 l 391 328 q 476 420 441 379 q 545 512 511 462 q 649 750 649 659 q 645 773 649 765 q 631 790 641 782 q 532 808 593 818 q 409 755 471 799 q 354 706 382 735 q 307 648 326 677 q 262 532 264 584 q 263 516 262 524 q 264 503 264 507 q 265 495 265 498 q 264 492 265 493 q 260 488 263 490 q 217 495 245 480 q 168 541 190 511 q 155 684 126 598 q 385 901 212 841 q 705 777 632 982 q 719 726 715 750 q 724 671 724 703 q 657 400 732 545 q 570 260 618 321 q 557 244 562 251 q 553 237 553 238 q 559 233 553 237 q 575 222 566 229 q 615 190 596 208 q 640 157 633 171 q 650 130 648 143 q 650 98 652 117 q 635 66 646 66 q 627 77 631 66 q 614 96 625 87 q 580 116 604 104 q 490 151 532 140 l 465 157 l 450 147 q 216 45 336 70 m 70 132 q 138 140 104 129 q 171 154 151 144 q 204 172 191 164 l 213 178 l 182 177 q 86 156 117 174 q 76 148 81 153 q 66 140 70 144 q 62 135 62 136 q 64 134 62 134 q 70 132 66 133 z "},"3":{"ha":632,"x_min":0,"x_max":632,"o":"m 313 2 q 270 -3 294 -2 q 231 -1 246 -3 q 102 71 159 14 q 57 124 79 94 q 26 178 36 155 q 10 225 18 199 q 2 264 3 251 q 16 296 0 296 q 29 287 22 296 q 40 264 36 277 q 44 255 41 259 q 52 246 46 252 q 68 231 57 241 q 106 202 92 211 q 137 188 121 193 q 152 183 146 184 q 168 181 159 182 q 195 181 177 181 q 246 184 225 181 q 295 197 267 188 q 394 245 345 214 q 471 309 444 277 q 490 334 481 321 q 505 359 499 348 q 509 381 510 371 q 500 404 508 391 q 405 463 469 450 l 382 467 l 362 461 q 319 454 342 455 l 297 453 l 290 461 q 277 487 280 471 q 280 511 275 503 q 291 519 282 514 q 311 530 299 524 q 409 594 358 555 q 464 646 431 612 q 513 699 497 679 q 528 723 520 709 q 542 747 536 736 q 548 761 547 758 q 545 765 548 762 q 538 770 543 768 q 399 780 485 800 q 248 702 313 760 q 221 671 233 687 q 208 646 210 656 q 171 648 201 616 q 143 701 151 671 q 192 834 128 770 q 372 930 256 899 q 423 940 402 938 q 470 942 444 943 q 499 940 489 941 q 520 935 510 938 q 626 775 614 903 q 604 650 632 706 q 486 521 568 577 l 471 511 l 484 506 q 566 403 545 480 q 573 353 571 381 q 572 300 575 324 q 501 125 564 209 q 313 2 427 26 z "},"4":{"ha":824,"x_min":0,"x_max":824,"o":"m 377 9 q 338 9 360 1 q 300 35 315 16 q 284 67 288 50 q 281 111 280 85 q 397 410 288 229 q 408 430 404 422 q 413 439 413 439 q 391 440 413 441 q 340 436 369 439 q 286 431 311 434 l 267 429 l 246 412 q 58 346 130 319 q 20 380 37 357 q 1 425 3 404 q 4 445 0 436 q 20 461 9 453 q 56 481 33 470 q 102 500 79 492 q 121 507 113 503 q 134 513 130 511 q 155 534 140 517 q 188 571 170 551 q 220 609 206 591 q 304 724 258 656 q 385 846 351 791 q 412 895 404 880 q 425 922 420 910 q 437 941 430 939 q 456 936 444 944 q 490 892 476 922 q 505 831 504 862 q 486 750 504 798 q 443 663 470 711 q 386 570 416 614 l 366 542 l 414 541 q 450 539 434 541 q 470 538 466 538 q 478 537 476 536 q 484 543 481 538 q 523 597 494 558 q 585 677 553 635 q 639 743 618 718 q 668 774 650 756 q 701 808 686 792 q 723 827 717 823 q 799 806 754 846 q 820 764 824 783 q 690 549 814 728 q 657 496 654 497 q 666 492 659 496 q 683 484 673 489 q 718 459 707 472 q 730 427 729 447 q 731 415 731 420 q 728 406 730 410 q 715 396 722 395 q 705 410 708 397 q 703 415 705 413 q 696 418 701 416 q 687 420 692 418 q 678 422 682 421 q 662 425 673 423 q 640 429 652 427 q 620 432 628 431 q 610 432 611 433 q 593 409 608 431 q 560 359 578 387 q 529 311 542 332 q 441 162 483 237 q 387 52 400 86 q 383 39 384 43 q 382 34 382 35 q 385 30 383 32 q 387 19 389 25 q 377 9 385 14 z "},"5":{"ha":771,"x_min":0,"x_max":771,"o":"m 284 22 q 111 68 195 10 q 24 155 51 106 q 7 197 14 174 q 0 233 0 220 q 28 245 0 269 q 41 235 33 239 q 66 222 50 230 q 112 207 94 210 q 155 204 129 203 q 182 207 169 205 q 205 210 196 208 q 289 239 245 220 q 367 279 334 258 q 463 390 430 321 q 471 407 469 401 q 473 416 473 413 q 469 422 472 419 q 444 435 462 428 q 408 446 426 442 q 269 442 354 458 q 209 432 229 435 q 177 428 189 429 q 153 427 165 427 q 135 427 141 427 q 124 429 128 427 q 115 433 120 430 q 83 460 98 442 q 60 500 68 479 q 56 517 57 509 q 56 543 56 526 q 60 590 55 567 q 76 642 64 613 q 100 697 84 665 q 131 753 117 730 q 164 801 144 773 q 199 846 184 829 q 208 858 204 852 q 213 869 212 864 q 236 895 217 886 q 250 904 241 898 q 267 918 258 911 q 302 945 285 934 q 328 959 319 956 q 365 947 345 964 q 373 941 370 942 q 381 941 376 940 q 430 949 404 947 q 494 951 455 951 q 667 926 593 952 q 745 885 722 909 q 766 856 761 870 q 770 812 771 842 q 768 775 770 787 q 760 758 766 763 q 756 755 758 755 q 751 758 754 755 q 748 763 749 760 q 746 768 747 765 q 732 779 745 774 q 688 787 719 783 q 561 796 637 794 q 428 792 484 798 q 398 789 411 791 q 382 787 385 787 q 368 774 379 786 q 332 731 357 762 q 264 644 308 701 q 191 548 222 590 q 159 503 159 506 q 161 502 159 503 q 166 503 162 502 q 178 506 170 504 q 197 511 185 507 q 226 519 209 514 q 330 544 291 537 q 402 551 369 551 q 426 550 414 551 q 444 548 438 549 q 472 538 458 545 q 496 524 486 532 q 553 418 533 492 q 559 394 557 403 q 561 375 561 385 q 562 345 562 364 q 561 307 562 319 q 557 280 560 294 q 528 198 547 236 q 416 66 481 109 q 352 38 388 50 q 284 22 317 26 z "},"6":{"ha":707,"x_min":0,"x_max":707,"o":"m 363 39 q 168 66 259 18 q 77 145 117 95 q 21 251 37 195 q 9 400 0 326 q 113 654 24 524 q 206 770 153 716 q 507 960 351 917 q 555 967 529 966 q 597 966 581 969 q 677 906 646 953 q 700 848 692 880 q 703 786 707 815 q 701 770 702 777 q 699 762 699 764 q 687 760 694 754 q 677 779 680 766 q 669 791 676 788 q 647 793 663 794 q 543 751 606 791 q 326 568 433 682 q 298 536 311 551 q 275 510 284 520 q 267 498 267 499 q 273 499 267 498 q 288 504 279 501 q 530 480 434 551 q 588 405 566 452 q 611 311 610 358 q 515 122 608 214 q 363 39 448 58 m 216 140 q 277 137 243 135 q 338 148 311 139 q 401 178 366 157 q 465 224 435 199 q 547 358 538 290 q 548 369 548 365 q 547 374 548 372 q 544 378 546 376 q 499 399 530 391 q 443 405 481 404 q 375 404 406 406 q 191 351 276 393 q 172 340 178 344 q 163 334 165 337 q 158 325 161 330 q 152 310 155 319 q 145 291 148 300 q 132 212 131 246 q 149 166 133 178 q 216 140 176 148 z "},"7":{"ha":774,"x_min":0,"x_max":774,"o":"m 104 6 q 104 5 104 6 q 99 3 101 3 q 95 3 98 2 q 88 6 93 3 q 87 6 87 6 q 57 34 75 13 q 28 78 39 56 q 31 232 0 142 q 53 283 38 253 q 81 338 68 314 q 248 538 139 432 q 605 814 363 654 q 642 840 627 829 q 657 851 657 850 q 486 802 648 854 q 266 749 343 757 q 138 765 189 741 q 94 808 108 779 q 83 862 82 834 q 98 895 85 889 q 108 896 100 896 q 126 894 116 895 q 191 892 149 891 q 267 897 233 894 q 304 903 280 899 q 354 910 329 906 q 478 927 410 918 q 595 941 547 937 q 685 947 640 946 q 744 944 731 947 q 774 875 774 932 q 736 762 774 819 q 642 645 707 713 q 439 451 578 577 q 210 214 293 318 q 158 139 178 174 q 117 57 137 104 q 109 37 111 44 q 106 27 106 31 q 107 20 106 24 q 109 11 109 14 q 104 6 108 9 z "},"8":{"ha":741,"x_min":0,"x_max":741,"o":"m 203 26 q 187 25 193 25 q 176 25 181 24 q 161 26 170 25 q 85 63 122 33 q 24 136 47 94 q 5 188 10 163 q 1 243 0 212 q 58 399 3 326 q 115 457 80 427 q 183 507 149 488 q 196 515 191 512 q 202 519 201 518 q 200 524 202 519 q 194 534 198 528 q 161 641 163 587 q 171 715 158 680 q 334 889 212 812 q 572 966 456 966 q 653 950 625 966 q 720 870 698 928 q 736 735 741 808 q 659 525 724 622 q 495 379 593 428 q 417 357 453 359 q 403 355 409 356 q 397 354 397 355 q 400 347 397 353 q 406 334 403 341 q 426 215 436 269 q 411 175 422 197 q 385 135 399 153 q 300 63 351 93 q 203 26 250 33 m 136 117 q 157 118 142 117 q 184 122 171 119 q 305 192 250 138 q 326 369 391 279 l 317 380 l 290 352 q 148 176 179 241 q 137 151 140 161 q 132 128 134 140 q 132 120 131 122 q 136 117 132 118 m 347 460 l 363 456 q 578 653 477 521 q 609 699 591 671 q 635 743 626 726 q 644 764 639 751 q 652 786 648 776 q 655 800 655 797 q 643 817 655 806 q 616 835 631 827 q 541 848 585 851 q 367 787 455 845 q 251 656 280 730 q 248 562 233 607 q 258 541 254 546 q 270 534 262 535 q 319 509 297 530 q 347 460 340 488 z "},"9":{"ha":734,"x_min":0,"x_max":734,"o":"m 279 45 q 231 41 260 41 q 185 43 202 40 q 64 109 116 57 q 5 220 24 147 q 1 242 2 233 q 1 266 0 252 q 5 296 1 288 q 16 304 8 304 q 41 277 32 304 q 44 262 43 270 q 45 250 45 255 q 49 233 45 238 q 62 222 52 227 q 103 208 81 214 q 141 199 125 201 q 376 315 248 186 q 452 404 416 354 q 541 542 488 453 q 568 587 553 563 q 592 631 582 612 q 605 655 603 650 q 603 655 606 658 q 593 645 601 653 q 572 619 586 636 q 535 576 557 602 q 459 487 486 516 q 404 429 433 457 q 358 386 376 401 q 322 358 340 370 q 203 336 252 311 q 126 424 157 361 q 200 757 61 578 q 248 808 217 777 q 298 854 279 839 q 504 945 416 945 q 569 929 536 945 q 625 886 602 913 q 665 805 648 858 q 673 809 666 802 q 679 814 675 812 q 685 816 683 816 q 706 802 694 816 q 725 764 717 787 q 731 743 730 753 q 733 713 732 733 q 731 661 734 686 q 715 590 727 635 q 578 261 669 412 q 412 97 515 157 q 347 66 383 80 q 279 45 311 52 m 207 400 q 228 400 212 398 q 258 407 243 402 q 389 491 317 427 q 456 558 414 515 q 522 626 499 601 q 556 668 531 637 q 605 727 581 698 q 635 764 629 756 q 636 769 637 767 q 634 777 636 772 q 576 808 622 808 q 556 808 564 809 q 537 804 548 808 q 404 729 477 786 q 348 677 381 710 q 297 623 315 645 q 200 418 203 504 q 201 405 200 409 q 207 400 203 401 z "},"\u0000":{"ha":0,"x_min":0,"x_max":0,"o":""},"\u001d":{"ha":0,"x_min":0,"x_max":0,"o":""}," ":{"ha":345,"x_min":0,"x_max":0,"o":""}," ":{"ha":345,"x_min":0,"x_max":0,"o":""},"!":{"ha":640,"x_min":0,"x_max":640,"o":"m 114 15 q 75 14 99 5 q 26 45 50 22 q 2 92 0 70 q 15 124 3 104 q 43 167 26 144 q 78 205 64 195 q 109 211 93 215 q 152 189 130 205 q 184 152 173 172 q 185 122 191 140 q 156 68 179 104 q 114 15 130 27 m 242 227 q 188 229 216 209 q 169 247 178 236 q 155 266 159 257 q 156 320 146 288 q 254 519 177 382 q 283 570 267 542 q 309 618 298 597 q 412 792 355 699 q 498 935 475 892 q 509 954 504 945 q 517 964 515 962 q 553 962 531 974 q 597 924 576 949 q 626 871 618 899 q 568 701 640 827 q 314 313 481 545 q 267 251 282 270 q 242 227 252 233 z "},"\"":{"ha":389,"x_min":0,"x_max":389,"o":"m 231 619 q 189 617 206 610 q 172 645 161 627 q 179 656 174 648 q 191 673 184 664 q 227 740 212 703 q 257 844 241 777 q 272 899 267 882 q 282 919 277 916 q 298 922 288 922 q 342 905 319 920 q 376 869 366 890 q 385 802 389 842 q 359 724 380 762 q 326 684 349 708 q 231 619 279 634 m 71 651 q 28 648 45 642 q 11 677 0 659 q 18 688 13 680 q 30 705 24 696 q 66 772 52 735 q 96 876 80 809 q 111 931 106 914 q 121 951 116 947 q 138 954 127 954 q 182 937 159 952 q 216 901 205 922 q 223 834 229 873 q 198 756 218 794 q 165 716 189 740 q 71 651 118 666 z "},"#":{"ha":892,"x_min":0,"x_max":892,"o":"m 435 108 q 422 106 427 106 q 410 109 417 106 q 367 135 386 117 q 343 174 348 154 q 353 232 338 195 q 411 342 368 270 q 427 370 420 359 q 433 382 433 382 q 412 385 431 384 q 364 388 393 387 q 307 391 336 389 l 270 392 l 229 337 q 89 175 115 185 q 47 176 70 165 q 3 232 1 199 q 66 362 10 268 q 81 388 75 378 q 87 399 87 398 q 75 399 86 399 q 48 401 64 400 q 27 402 35 401 q 15 404 19 403 q 9 405 11 404 q 6 408 7 406 q 5 434 0 417 q 24 466 10 451 q 51 481 33 477 q 114 488 69 486 l 144 489 l 163 517 q 177 537 172 529 q 182 547 182 546 q 177 547 182 547 q 165 549 172 548 q 110 558 117 553 q 106 583 102 566 q 123 616 110 600 q 161 639 137 635 q 185 641 168 640 q 218 644 201 643 q 243 645 235 645 q 249 646 246 645 q 254 650 251 646 q 262 661 257 654 q 277 683 268 669 q 450 901 410 871 q 522 878 478 921 q 552 818 554 844 q 470 668 550 789 q 455 644 461 654 q 449 633 449 634 q 458 632 450 633 q 477 629 466 631 q 508 625 490 627 q 543 619 526 622 q 570 615 559 616 q 581 614 581 614 q 593 630 582 614 q 619 668 604 645 q 760 857 738 838 q 829 830 786 875 q 862 745 871 785 q 789 606 853 713 q 778 585 783 593 q 772 576 772 576 q 784 572 772 575 q 813 564 796 568 q 878 543 864 552 q 884 521 892 534 q 871 505 880 513 q 854 494 862 497 q 772 492 836 485 q 742 496 755 494 q 727 498 729 498 q 722 496 725 498 q 715 488 720 494 q 701 468 710 481 q 686 445 692 454 q 679 434 680 435 q 710 425 677 432 q 777 410 753 416 q 810 399 800 404 q 821 390 820 395 q 812 372 822 382 q 789 357 803 362 q 683 360 770 351 q 647 363 661 362 q 632 365 633 365 q 620 347 631 364 q 591 304 608 330 q 509 186 539 228 q 462 127 479 144 q 435 108 446 110 m 414 471 q 455 468 437 469 q 477 465 473 466 l 486 465 l 504 493 q 516 513 511 505 q 520 522 520 521 q 498 525 519 522 q 449 529 477 527 q 395 534 420 532 l 377 535 l 357 508 q 343 488 349 496 q 338 479 338 480 q 341 478 338 479 q 349 477 345 477 q 372 476 354 477 q 414 471 391 474 z "},"$":{"ha":793,"x_min":0,"x_max":793,"o":"m 87 14 q 82 11 85 12 q 77 9 79 9 q 66 13 73 9 q 53 20 59 16 q 43 28 46 24 q 40 35 40 32 q 41 44 40 38 q 50 62 43 49 q 66 93 57 76 q 81 121 75 109 q 87 134 87 133 q 84 139 87 135 q 74 146 80 142 q 37 184 56 162 q 12 218 18 206 q 12 262 0 251 q 18 265 15 266 q 28 258 21 264 q 45 250 36 251 q 62 244 49 249 q 90 233 75 239 q 118 223 106 227 q 132 218 130 218 q 136 220 134 218 q 144 230 139 222 q 158 252 149 237 q 182 291 168 268 q 209 334 196 314 q 229 367 221 353 q 237 380 237 380 q 230 383 236 380 q 213 389 223 385 q 195 395 203 392 q 182 400 186 398 q 136 453 154 415 q 118 536 119 490 q 122 576 118 558 q 138 616 127 593 q 368 819 195 731 q 574 882 477 873 q 588 885 584 883 q 594 890 592 886 q 645 950 619 922 q 680 984 671 979 q 715 973 696 993 q 726 944 730 960 q 698 891 723 928 q 688 876 692 882 q 684 869 684 869 q 689 866 685 868 q 698 861 692 864 q 730 836 713 854 q 756 800 747 818 q 777 644 793 728 q 772 623 774 630 q 769 613 770 616 q 764 611 767 611 q 743 662 749 611 q 741 676 742 671 q 738 684 739 682 q 734 689 736 687 q 649 698 711 707 q 606 689 630 695 q 561 676 581 683 l 546 671 l 474 568 q 423 494 444 524 q 400 460 402 463 q 400 457 399 458 q 404 455 401 456 q 500 420 460 443 q 528 395 513 411 q 549 366 543 380 q 564 326 560 345 q 567 276 568 307 q 567 249 567 259 q 565 233 566 239 q 561 217 564 226 q 481 111 542 154 q 370 68 439 83 q 307 63 344 63 q 244 67 271 62 q 168 89 202 75 q 156 94 161 92 q 151 96 151 96 q 141 84 150 96 q 121 57 133 73 q 100 28 109 41 q 87 14 91 16 m 225 205 q 224 203 224 204 q 226 203 224 203 q 232 203 227 203 q 243 203 236 203 q 263 205 251 204 q 381 229 323 210 q 476 275 439 248 l 492 288 l 483 295 q 422 329 463 312 q 336 355 382 345 l 328 357 l 277 283 q 241 229 256 251 q 225 205 226 208 m 270 480 q 286 477 279 478 q 295 475 293 475 q 306 487 297 475 q 334 528 315 498 q 358 565 349 549 q 368 581 368 580 q 349 569 366 581 q 308 541 331 557 q 267 510 285 524 q 244 492 248 496 q 243 489 243 490 q 245 487 243 488 q 253 484 248 486 q 270 480 259 483 z "},"%":{"ha":786,"x_min":0,"x_max":786,"o":"m 439 16 q 412 8 426 10 q 389 9 397 7 q 339 46 361 19 q 307 109 316 73 q 304 127 304 117 q 304 152 303 136 q 352 280 304 213 q 517 433 412 369 q 571 460 551 454 q 606 457 591 465 q 626 443 615 452 q 642 423 636 433 q 647 416 644 419 q 650 414 649 414 q 665 405 654 414 q 684 384 675 395 q 697 298 713 345 q 589 136 670 225 q 439 16 507 47 m 402 99 l 416 100 q 525 184 467 127 q 624 300 583 240 q 642 330 635 317 q 648 346 649 343 q 633 336 647 346 q 599 310 619 326 q 557 277 578 294 q 459 181 503 231 q 402 99 416 132 m 85 63 q 26 81 61 49 q 7 127 0 106 q 68 227 17 152 q 179 380 119 301 q 408 655 271 498 q 636 907 544 813 q 674 945 661 932 q 695 963 688 958 q 707 968 703 968 q 734 954 718 968 q 762 917 749 939 q 772 842 786 872 q 637 660 747 791 q 365 355 527 528 q 271 255 313 300 q 178 153 230 210 q 146 120 165 139 q 110 84 127 100 q 85 63 92 68 m 168 484 q 140 477 154 479 q 118 478 126 475 q 67 515 90 488 q 35 578 45 543 q 33 596 33 587 q 33 621 32 606 q 80 749 33 682 q 246 903 140 838 q 299 928 279 923 q 334 926 319 934 q 354 911 344 921 q 370 892 364 902 q 375 885 372 888 q 378 882 378 882 q 393 873 383 882 q 412 853 404 864 q 425 767 441 813 q 317 605 399 694 q 168 484 235 515 m 130 568 l 127 559 l 144 569 q 253 653 195 597 q 353 769 311 709 q 371 799 363 785 q 376 814 378 812 q 361 805 375 815 q 327 779 347 795 q 286 745 307 762 q 188 650 231 699 q 130 568 145 602 z "},"&":{"ha":686,"x_min":0,"x_max":686,"o":"m 202 14 q 73 40 127 -1 q 18 123 26 73 q 126 363 0 197 l 153 399 l 147 422 q 140 484 142 447 q 142 546 139 521 q 200 711 155 626 q 309 856 245 795 q 473 962 395 935 q 521 968 493 968 q 566 963 549 968 q 631 920 601 951 q 677 851 662 889 q 685 807 684 832 q 681 759 686 782 q 536 519 657 661 q 467 445 511 490 q 381 362 422 399 q 351 333 363 345 q 338 320 338 321 q 343 307 338 318 q 357 281 349 296 q 372 255 365 267 q 382 239 379 243 q 462 304 381 235 q 504 340 489 328 q 526 358 519 353 q 536 365 533 363 q 568 361 551 372 q 577 284 610 332 q 552 255 572 276 q 509 210 533 234 q 465 168 485 186 l 444 149 l 455 134 q 505 83 482 103 q 537 63 528 63 q 551 59 543 63 q 563 51 559 56 q 562 26 567 45 q 553 18 560 21 q 538 14 546 14 q 473 33 515 14 q 394 78 432 51 q 379 88 385 84 q 372 92 373 92 q 369 91 372 92 q 363 87 366 89 q 330 65 351 78 q 290 43 309 53 q 202 14 245 21 m 134 96 q 208 113 172 94 q 241 133 222 121 q 277 156 261 145 q 293 168 293 167 q 289 174 293 170 q 280 186 286 179 q 268 201 275 192 q 256 216 260 210 l 243 231 l 232 220 q 172 153 201 190 q 134 96 142 116 m 298 576 q 298 567 298 570 q 298 563 298 563 q 326 590 302 565 q 382 651 350 615 q 445 720 415 686 q 490 771 475 753 q 537 835 517 805 q 562 881 557 865 l 564 887 l 545 886 q 324 668 409 865 q 309 622 317 649 q 298 576 302 595 z "},"'":{"ha":174,"x_min":0,"x_max":174,"o":"m 67 781 q 56 780 63 781 q 44 779 50 779 q 14 788 28 779 q 0 806 0 796 q 16 829 0 811 q 73 956 55 869 q 80 985 77 977 q 86 998 83 994 q 110 998 94 1005 q 142 975 126 991 q 171 895 174 939 q 128 812 168 844 q 98 794 117 804 q 67 781 80 785 z "},"(":{"ha":653,"x_min":0,"x_max":653,"o":"m 228 27 q 176 34 209 20 q 110 79 142 49 q 42 191 63 125 q 67 528 0 345 q 263 831 137 705 q 474 958 377 946 q 564 941 520 964 q 603 911 583 930 q 632 873 623 891 q 618 831 653 836 q 482 741 565 819 q 326 556 399 663 q 207 313 239 427 q 225 57 163 157 q 234 37 233 43 q 228 27 235 31 z "},")":{"ha":509,"x_min":0,"x_max":509,"o":"m 154 -22 q 118 -24 138 -24 q 86 -24 98 -25 q 26 -7 45 -17 q 1 22 0 7 q 2 26 1 24 q 9 31 4 28 q 26 37 15 33 q 83 64 59 49 q 132 106 108 80 q 198 202 168 142 q 281 498 258 315 q 285 574 283 526 q 285 671 286 623 q 281 743 284 719 q 241 874 267 840 q 235 886 237 880 q 232 894 232 892 q 244 910 232 902 q 275 923 256 918 q 313 926 290 926 q 352 923 337 926 q 507 573 509 882 q 473 347 506 458 q 452 281 462 309 q 426 223 441 254 q 319 71 383 135 q 293 47 307 59 q 270 28 279 35 q 154 -22 214 -10 z "},"*":{"ha":325,"x_min":0,"x_max":325,"o":"m 121 728 q 121 723 121 724 q 118 720 120 721 q 100 724 111 717 q 83 742 90 730 q 71 775 74 761 q 71 806 68 789 q 71 816 71 813 q 71 820 71 819 q 68 821 70 821 q 51 819 64 821 q 27 814 39 817 q 12 810 15 811 q 1 825 1 804 q 20 866 0 847 q 46 884 30 875 q 79 898 62 892 q 89 904 90 901 q 78 974 71 954 q 103 1000 85 987 q 131 1013 121 1013 q 152 991 142 1013 l 158 979 l 173 994 q 214 1022 201 1023 q 253 1003 233 1021 q 272 970 272 986 q 258 945 272 965 l 245 926 l 267 925 q 319 912 306 924 q 324 906 323 909 q 325 895 325 903 q 314 860 325 876 q 286 838 302 844 q 257 832 276 835 q 219 829 237 829 l 210 828 l 217 817 q 224 807 221 810 q 231 804 227 804 q 237 798 237 803 q 234 785 238 793 q 222 770 229 777 q 209 762 216 764 q 183 763 197 758 q 155 780 168 768 l 147 788 l 140 775 q 121 728 119 738 z "},"+":{"ha":418,"x_min":0,"x_max":418,"o":"m 144 320 q 130 315 137 315 q 113 320 123 315 q 91 336 101 326 q 77 357 81 346 q 80 425 68 386 q 85 439 83 433 q 86 445 87 445 q 76 446 85 446 q 54 448 67 447 q 25 450 35 449 q 11 453 15 452 q 4 458 6 455 q 1 465 1 462 q 1 476 0 469 q 14 514 3 494 q 39 541 26 533 q 46 543 41 543 q 61 544 52 544 q 91 545 71 545 l 136 545 l 159 583 q 193 639 176 614 q 217 673 209 665 q 223 677 220 676 q 232 679 226 679 q 247 676 240 679 q 264 666 253 673 q 307 612 298 643 q 306 592 310 604 q 288 555 302 581 q 278 535 281 542 q 276 526 275 528 q 281 524 277 524 q 304 520 286 524 q 343 510 323 515 q 375 502 364 505 q 416 479 414 489 q 407 453 418 467 q 379 435 395 439 q 276 437 359 431 q 240 439 255 438 q 224 439 226 439 q 215 425 222 438 q 196 394 207 412 q 165 342 176 359 q 144 320 153 326 z "},",":{"ha":174,"x_min":0,"x_max":174,"o":"m 67 -85 q 56 -87 63 -86 q 44 -87 50 -87 q 14 -79 27 -87 q 0 -61 0 -71 q 16 -38 0 -56 q 73 90 55 2 q 80 119 77 110 q 86 131 83 127 q 110 131 94 138 q 141 108 125 125 q 171 28 174 73 q 128 -54 168 -23 q 98 -73 117 -63 q 67 -85 80 -82 z "},"-":{"ha":498,"x_min":0,"x_max":498,"o":"m 299 441 q 183 438 221 438 q 104 439 145 437 q 40 442 60 440 q 14 448 20 444 q 2 477 3 456 q 6 519 0 497 q 26 555 13 541 q 39 563 33 560 q 62 569 46 566 q 109 575 77 572 q 213 579 139 578 q 359 579 286 581 q 458 574 431 577 q 488 563 479 571 q 497 538 497 555 q 486 490 498 513 q 456 456 474 466 q 410 446 445 450 q 299 441 375 443 z "},"­":{"ha":498,"x_min":0,"x_max":498,"o":"m 299 441 q 183 438 221 438 q 104 439 145 437 q 40 442 60 440 q 14 448 20 444 q 2 477 3 456 q 6 519 0 497 q 26 555 13 541 q 39 563 33 560 q 62 569 46 566 q 109 575 77 572 q 213 579 139 578 q 359 579 286 581 q 458 574 431 577 q 488 563 479 571 q 497 538 497 555 q 486 490 498 513 q 456 456 474 466 q 410 446 445 450 q 299 441 375 443 z "},".":{"ha":142,"x_min":0,"x_max":142,"o":"m 92 23 q 67 17 81 18 q 43 19 53 16 q 23 31 33 23 q 7 47 13 38 q 3 55 4 52 q 1 62 1 58 q 0 74 0 66 q 1 91 0 85 q 7 104 3 96 q 32 135 16 122 q 65 151 48 148 q 98 143 79 152 q 127 121 117 134 q 132 69 142 98 q 92 23 121 39 z "},"/":{"ha":680,"x_min":0,"x_max":680,"o":"m 104 12 q 31 18 66 -5 q 3 74 0 36 q 6 93 3 83 q 18 119 9 102 q 87 241 33 150 q 202 434 140 332 q 304 599 264 536 q 552 958 505 906 q 560 966 557 964 q 567 969 563 968 q 578 968 570 969 q 646 932 609 966 q 680 875 680 897 q 677 863 680 871 q 669 846 674 855 q 641 797 661 828 q 575 694 622 765 q 439 486 529 623 q 375 387 410 441 q 315 295 340 334 q 221 153 265 218 q 158 64 176 87 q 104 12 124 20 z "},":":{"ha":273,"x_min":0,"x_max":273,"o":"m 92 264 q 66 258 81 259 q 43 260 52 257 q 22 272 32 264 q 7 288 12 279 q 2 296 3 293 q 0 303 1 299 q 0 315 0 308 q 1 332 0 326 q 6 345 2 338 q 32 376 15 363 q 65 392 48 389 q 98 384 79 393 q 127 363 117 375 q 131 310 142 340 q 92 264 121 281 m 222 531 q 198 525 212 526 q 174 527 184 524 q 153 538 163 531 q 138 555 143 546 q 133 563 135 559 q 131 570 132 566 q 131 582 131 574 q 132 599 131 593 q 137 612 134 604 q 163 643 146 630 q 196 659 179 656 q 229 651 210 660 q 258 629 248 642 q 262 577 273 606 q 222 531 252 547 z "},";":{"ha":307,"x_min":0,"x_max":307,"o":"m 67 152 q 56 150 63 151 q 44 149 50 149 q 14 158 28 149 q 0 176 0 166 q 16 199 0 181 q 73 326 55 239 q 80 356 77 347 q 86 368 83 364 q 110 368 94 375 q 142 345 126 361 q 171 264 174 310 q 128 182 168 214 q 98 164 117 174 q 67 152 80 155 m 256 499 q 231 493 245 494 q 207 495 217 492 q 186 507 196 499 q 171 523 176 515 q 166 531 168 528 q 164 538 165 534 q 164 551 164 543 q 165 567 164 562 q 170 580 167 572 q 196 611 180 598 q 229 627 212 625 q 262 619 243 628 q 291 597 281 610 q 296 545 307 575 q 256 499 285 515 z "},";":{"ha":307,"x_min":0,"x_max":307,"o":"m 67 152 q 56 150 63 151 q 44 149 50 149 q 14 158 28 149 q 0 176 0 166 q 16 199 0 181 q 73 326 55 239 q 80 356 77 347 q 86 368 83 364 q 110 368 94 375 q 142 345 126 361 q 171 264 174 310 q 128 182 168 214 q 98 164 117 174 q 67 152 80 155 m 256 499 q 231 493 245 494 q 207 495 217 492 q 186 507 196 499 q 171 523 176 515 q 166 531 168 528 q 164 538 165 534 q 164 551 164 543 q 165 567 164 562 q 170 580 167 572 q 196 611 180 598 q 229 627 212 625 q 262 619 243 628 q 291 597 281 610 q 296 545 307 575 q 256 499 285 515 z "},"<":{"ha":406,"x_min":0,"x_max":406,"o":"m 396 342 q 382 336 392 336 q 350 339 373 335 q 283 355 328 344 q 109 393 177 381 q 34 411 49 404 q 2 487 5 425 q 13 550 0 524 q 60 606 26 577 q 108 642 81 625 q 191 688 136 659 q 308 747 268 729 q 364 763 347 764 q 388 746 380 762 q 399 684 400 724 q 389 635 397 654 q 361 601 380 616 q 242 522 327 572 q 235 517 238 519 q 216 506 224 511 q 203 498 208 502 q 194 493 197 495 q 189 490 191 491 q 186 488 187 488 q 186 487 186 487 q 187 486 186 487 q 188 486 187 486 q 195 484 189 486 q 207 481 200 483 q 261 464 229 475 q 315 444 292 453 q 401 390 387 416 q 405 365 406 379 q 396 342 404 351 z "},"=":{"ha":515,"x_min":0,"x_max":515,"o":"m 299 362 q 183 360 221 360 q 104 361 145 359 q 40 364 61 361 q 14 370 20 366 q 2 399 3 378 q 7 441 0 419 q 27 476 14 463 q 39 485 33 482 q 62 491 46 488 q 109 497 77 493 q 213 501 139 500 q 359 500 287 502 q 459 496 432 499 q 489 485 480 493 q 498 460 497 477 q 486 411 498 435 q 456 377 474 387 q 411 368 446 371 q 299 362 376 365 m 316 549 q 200 546 238 546 q 121 547 162 545 q 57 550 78 548 q 31 556 37 552 q 19 585 20 564 q 24 627 17 605 q 44 663 31 649 q 56 671 50 668 q 79 677 63 674 q 126 684 94 680 q 230 687 156 686 q 376 687 304 688 q 476 682 449 686 q 506 671 497 679 q 515 646 514 663 q 503 597 515 621 q 473 564 491 574 q 427 554 463 557 q 316 549 392 551 z "},">":{"ha":407,"x_min":0,"x_max":407,"o":"m 77 323 q 47 315 56 316 q 33 317 39 314 q 8 387 7 329 q 23 454 7 429 q 90 511 39 478 q 124 533 103 519 q 164 557 145 546 q 171 561 168 559 q 190 572 182 567 q 203 580 198 576 q 212 585 209 583 q 217 589 216 587 q 220 590 219 590 q 220 591 220 591 q 219 591 220 591 q 218 592 219 592 q 212 594 217 592 q 199 597 206 595 q 145 614 177 604 q 92 633 114 625 q 5 688 20 663 q 1 714 0 699 q 10 737 3 728 q 37 742 15 744 q 112 726 58 740 q 296 685 215 701 q 375 666 363 673 q 404 591 400 650 q 392 526 407 551 q 274 422 361 472 q 158 360 218 391 q 77 323 98 330 z "},"?":{"ha":617,"x_min":0,"x_max":617,"o":"m 121 8 q 59 10 97 -2 q 4 44 20 22 q 1 61 0 51 q 9 94 2 72 q 51 151 26 146 q 103 149 74 157 q 151 123 132 141 q 151 48 178 101 q 121 8 135 15 m 189 189 q 168 186 182 183 q 134 201 153 190 q 106 225 120 210 q 84 256 92 240 l 75 275 l 75 310 q 76 342 75 332 q 81 364 77 352 q 157 492 103 434 q 205 535 177 513 q 287 592 233 557 q 338 626 315 610 q 370 649 361 642 q 524 834 496 744 q 529 858 529 850 q 523 869 528 865 q 485 883 509 880 q 433 883 460 887 q 392 873 415 880 q 353 857 370 866 q 244 771 290 825 q 191 665 199 716 q 191 654 190 658 q 195 646 191 650 q 200 638 197 643 q 203 631 202 634 q 179 608 210 605 q 120 640 150 613 q 77 697 90 666 q 73 731 73 711 q 78 766 73 751 q 134 849 94 808 q 229 917 175 890 q 410 962 313 960 q 478 959 452 964 q 528 936 504 953 q 554 913 543 926 q 579 878 566 900 q 610 799 603 841 q 609 716 617 762 q 582 630 602 670 q 433 475 542 545 q 399 454 418 467 q 363 431 380 441 q 244 319 280 378 q 223 282 232 301 q 206 234 215 263 q 198 207 201 216 q 193 195 195 198 q 189 189 191 191 z "},"@":{"ha":740,"x_min":0,"x_max":740,"o":"m 323 157 q 286 154 307 155 q 253 155 265 153 q 82 240 151 174 q 15 355 38 283 q 3 405 5 382 q 1 460 0 427 q 135 725 7 632 q 190 756 157 740 q 249 781 222 773 q 428 802 337 809 q 659 702 570 791 q 733 578 715 646 q 739 528 738 557 q 736 476 740 499 q 668 325 720 389 q 557 252 616 260 q 465 292 509 249 q 433 383 428 326 q 434 401 433 393 q 436 412 435 410 q 429 408 436 414 q 410 390 422 401 q 287 311 327 311 q 228 340 259 311 q 198 453 181 385 q 256 553 213 513 q 295 579 272 567 q 336 595 318 591 q 484 548 417 613 l 499 532 l 517 549 q 591 568 560 593 q 621 533 607 556 q 635 492 634 510 q 595 425 637 479 q 572 391 584 409 q 553 362 559 374 q 535 328 541 342 q 530 309 528 313 q 538 311 532 309 q 554 318 545 313 q 572 328 564 322 q 633 393 604 349 q 675 481 662 436 q 680 507 678 496 q 681 541 681 519 q 680 573 681 563 q 675 595 679 584 q 578 688 654 669 q 517 694 555 694 q 449 688 479 694 q 219 569 309 659 q 146 425 158 511 q 199 229 125 304 q 218 212 210 218 q 241 199 227 206 q 276 185 262 189 q 303 185 290 182 q 349 182 336 191 q 323 157 374 167 m 296 368 q 307 371 296 366 q 331 385 317 376 q 356 401 345 393 q 379 419 365 408 q 407 442 393 431 q 433 464 420 454 q 454 479 446 475 q 463 487 460 484 q 466 490 466 490 q 463 492 466 491 q 436 487 454 492 q 404 475 418 482 q 330 416 363 454 q 307 386 317 401 q 296 368 296 370 z "},"A":{"ha":1006,"x_min":0,"x_max":1011,"o":"m 937 -5 q 915 -9 926 -7 q 886 -10 904 -10 q 838 -7 857 -12 q 793 9 818 -3 q 683 127 701 51 q 675 186 676 151 q 678 250 674 221 q 688 298 682 272 q 700 342 694 325 l 705 355 l 699 354 q 684 351 697 353 q 652 345 670 349 q 577 330 577 331 q 573 323 576 329 q 564 308 570 317 q 368 87 469 147 q 216 56 296 47 q 58 156 119 65 q 3 313 6 232 q 12 372 0 362 q 19 376 16 375 q 31 375 22 376 q 41 373 37 374 q 51 366 45 371 q 69 349 57 361 q 118 311 100 320 q 168 300 137 301 q 194 300 184 300 q 218 304 204 301 q 435 437 336 330 q 485 496 465 469 q 528 565 505 524 q 561 625 549 601 q 586 677 573 648 q 612 733 597 702 q 637 788 626 764 q 653 821 649 813 q 657 829 656 826 q 659 833 659 833 q 647 837 657 834 q 624 842 637 839 q 598 847 611 845 q 579 850 586 850 q 524 851 553 853 q 469 841 494 848 q 413 817 440 833 q 369 783 385 800 q 360 773 363 777 q 354 762 357 768 q 345 744 351 755 q 334 732 340 733 q 295 762 315 729 q 276 831 276 795 q 380 948 276 911 q 476 964 425 964 q 556 956 519 964 q 654 922 594 947 q 677 913 667 918 q 692 908 688 909 l 701 905 l 715 922 q 766 954 740 947 q 784 951 774 955 q 799 941 793 947 q 805 925 804 935 q 803 905 806 916 l 800 895 l 822 892 q 861 885 845 890 q 895 871 876 881 q 1001 739 978 831 q 1006 720 1004 728 q 1007 702 1007 712 q 1008 674 1008 692 q 1007 638 1008 652 q 1002 609 1006 624 q 975 520 996 572 q 905 360 955 468 q 869 273 879 303 q 857 210 859 243 q 871 105 850 150 q 968 50 899 46 q 1008 41 1000 52 q 1011 37 1011 39 q 1008 31 1010 35 q 991 20 1004 26 q 964 6 979 13 q 937 -5 949 -1 m 644 458 q 665 456 650 456 q 699 459 681 457 q 729 463 716 462 q 739 465 735 465 l 750 466 l 791 556 q 827 637 814 608 q 847 687 840 667 q 859 730 854 707 q 868 783 869 766 q 855 812 867 800 q 836 825 846 822 q 805 827 825 828 q 774 823 783 826 q 765 813 766 821 q 723 671 739 724 q 689 573 706 618 q 675 538 685 562 q 657 491 666 514 q 644 458 648 467 z "},"B":{"ha":1224,"x_min":0,"x_max":1168,"o":"m 851 -1 q 790 -3 827 -3 q 728 0 753 -3 q 462 106 566 23 q 452 114 456 111 q 445 119 447 118 q 441 120 444 121 q 436 117 439 120 q 425 106 432 114 q 251 27 350 31 q 94 86 159 22 q 6 248 25 157 q 2 303 0 281 q 13 332 3 326 q 66 310 31 343 q 116 274 96 283 q 167 267 136 266 q 264 290 214 267 q 422 414 352 328 q 473 481 452 449 q 519 566 493 513 q 539 608 532 592 q 554 644 546 623 q 579 705 563 665 q 601 759 591 734 q 614 793 610 784 q 621 809 618 802 q 623 817 623 816 q 576 827 623 820 q 518 830 551 831 q 460 823 486 829 q 345 758 389 804 q 323 724 332 744 q 312 703 317 707 q 298 701 307 698 q 273 725 286 707 q 252 766 259 744 q 248 785 249 777 q 248 808 247 793 q 250 830 248 823 q 255 846 251 838 q 280 878 263 861 q 315 904 298 895 q 376 929 347 922 q 444 937 406 937 q 517 933 486 939 q 608 908 549 928 q 621 904 615 906 q 649 895 640 897 q 662 895 659 893 q 669 903 665 897 q 671 907 670 905 q 772 981 718 978 q 806 961 798 983 q 815 951 812 949 q 823 954 817 951 q 837 958 829 956 q 1061 924 958 992 q 1152 795 1123 882 q 1165 749 1162 768 q 1168 702 1168 729 q 1064 477 1168 570 q 1048 464 1057 471 q 1036 454 1040 458 q 1028 449 1031 452 q 1025 446 1025 447 q 1029 441 1025 446 q 1040 432 1034 437 q 1130 289 1103 376 q 1136 241 1135 269 q 1133 193 1137 213 q 961 22 1105 73 q 908 9 940 16 q 851 -1 876 2 m 658 127 q 709 126 679 125 q 764 132 740 127 q 903 186 841 146 q 923 201 916 195 q 937 221 929 208 q 960 290 954 250 q 959 365 966 329 q 953 386 956 375 q 947 404 950 396 q 943 412 945 411 q 936 412 942 412 q 921 409 930 411 q 864 404 897 404 q 808 408 830 404 q 734 435 771 415 q 702 456 715 445 q 686 475 688 467 q 690 489 685 480 q 705 503 696 497 q 777 526 732 522 q 868 519 821 530 l 886 515 l 899 526 q 934 559 916 539 q 962 594 952 579 q 1013 717 1000 650 q 1017 776 1017 743 q 1013 825 1017 809 q 986 873 1004 854 q 966 888 977 883 q 939 894 956 892 q 820 865 886 898 q 789 847 808 859 q 753 825 770 836 q 734 810 737 814 q 729 796 732 808 q 722 766 726 783 q 713 729 718 748 q 707 700 709 711 q 682 609 698 665 q 648 502 665 553 q 620 425 631 450 q 510 211 562 290 q 498 186 495 189 q 511 177 501 184 q 532 164 521 171 q 551 154 544 157 q 658 127 599 134 m 763 474 q 819 480 784 468 q 833 485 827 483 q 840 487 839 487 q 840 488 840 487 q 837 489 839 488 q 823 492 833 491 q 802 493 813 493 q 782 492 790 493 q 762 485 770 489 q 753 479 753 481 q 756 476 753 477 q 763 474 759 475 z "},"C":{"ha":981,"x_min":0,"x_max":1008,"o":"m 572 -3 q 513 -7 549 -6 q 458 -6 477 -8 q 323 50 390 4 q 301 67 314 56 q 277 90 288 79 q 180 258 201 162 q 176 284 177 271 q 175 321 175 297 q 178 383 174 355 q 191 444 182 410 q 380 764 239 621 q 402 786 395 778 q 412 798 410 794 q 412 801 414 801 q 381 807 401 804 q 349 810 361 810 q 270 794 313 809 q 195 755 228 779 q 120 677 155 724 q 102 654 109 663 q 92 642 96 646 q 84 638 87 638 q 77 638 81 637 q 24 680 47 645 q 1 748 0 714 q 22 813 5 779 q 63 872 39 848 q 155 926 98 907 q 410 894 278 968 q 438 878 423 886 q 463 865 453 870 l 485 853 l 517 874 q 739 972 627 949 q 772 978 758 977 q 813 979 786 979 q 851 978 838 979 q 877 975 865 977 q 990 909 964 955 q 1003 874 997 896 q 1008 840 1008 852 q 1004 808 1008 827 q 991 774 999 789 q 952 728 979 749 q 895 699 925 707 q 840 693 876 694 q 771 696 804 692 q 713 705 743 699 q 666 715 683 710 q 657 717 661 717 q 651 716 654 718 q 642 711 648 715 q 512 595 578 673 q 398 424 446 517 q 336 228 336 295 q 344 182 336 207 q 360 149 351 157 q 386 144 366 145 q 432 146 407 144 q 475 153 456 149 q 777 385 613 190 q 817 428 804 416 q 841 443 830 440 q 909 397 874 450 q 924 277 949 338 q 868 187 906 236 q 784 100 829 138 q 681 35 739 62 q 572 -3 624 7 m 784 747 q 807 746 793 747 q 833 747 821 746 q 881 752 863 747 q 919 770 900 758 q 952 806 937 783 q 969 850 966 829 l 971 863 l 962 864 q 944 866 957 865 q 916 866 932 866 q 883 865 895 866 q 857 860 871 863 q 761 817 812 847 q 731 798 747 808 q 703 779 715 787 q 691 768 692 770 q 693 766 691 767 q 698 764 694 765 q 723 758 707 762 q 757 752 740 755 q 784 747 774 749 z "},"D":{"ha":1173,"x_min":0,"x_max":1145,"o":"m 726 20 q 668 15 704 16 q 614 16 633 14 q 421 116 499 36 l 408 130 l 391 117 q 256 62 334 69 q 84 125 153 52 q 48 174 65 146 q 20 228 31 201 q 2 312 5 270 q 12 369 0 355 q 19 373 16 372 q 31 372 22 374 q 40 370 36 372 q 50 364 44 369 q 68 347 56 359 q 115 310 97 319 q 163 300 134 300 q 189 300 178 300 q 212 304 199 301 q 423 433 327 328 q 471 490 452 464 q 512 557 490 517 q 545 614 532 591 q 569 665 557 637 q 594 720 580 690 q 619 773 608 749 q 634 805 630 798 q 637 813 636 810 q 639 817 639 817 q 628 820 637 818 q 606 825 619 823 q 581 830 593 828 q 562 833 569 833 q 508 834 537 836 q 455 825 479 831 q 401 801 428 817 q 358 768 374 785 q 350 758 353 762 q 343 747 347 753 q 336 730 340 741 q 325 718 330 720 q 287 748 306 716 q 269 815 269 780 q 369 928 269 892 q 462 943 412 944 q 537 936 503 944 q 631 905 571 928 q 642 901 637 903 q 664 892 656 895 q 675 889 671 890 q 681 890 679 888 q 684 893 682 891 q 686 896 684 895 q 736 949 712 932 q 791 969 760 965 q 820 957 810 970 q 831 923 828 945 q 828 888 833 902 q 826 882 827 884 q 825 879 825 880 q 832 879 826 879 q 846 881 838 880 q 1021 820 940 894 q 1139 530 1145 707 q 886 87 1121 254 q 726 20 813 40 m 509 145 q 537 145 519 144 q 570 149 555 146 q 761 261 665 170 q 924 481 858 353 q 973 675 984 597 q 909 804 963 770 q 850 821 882 821 q 789 805 817 821 q 753 773 772 795 q 725 734 733 751 q 720 720 724 730 q 713 696 717 709 q 634 475 689 612 q 600 403 623 448 q 558 325 577 358 q 463 186 511 245 l 458 178 l 470 166 q 488 152 479 156 q 509 145 496 147 z "},"E":{"ha":849,"x_min":0,"x_max":801,"o":"m 459 22 q 428 19 448 20 q 391 18 409 18 q 367 19 373 18 q 360 20 366 20 q 347 22 354 21 q 136 177 216 48 q 168 486 50 333 q 203 523 183 505 q 242 554 224 542 q 378 614 302 593 q 393 617 387 616 q 400 620 399 619 q 398 626 400 621 q 392 639 395 631 q 376 679 380 661 q 373 724 372 697 q 373 750 373 738 q 374 768 374 763 l 376 779 l 355 783 q 317 788 332 787 q 284 787 302 789 q 207 762 242 783 q 113 670 140 723 q 103 654 107 659 q 91 650 98 650 q 68 661 81 650 q 45 687 56 671 q 73 837 0 761 q 199 896 121 885 q 225 898 214 898 q 254 897 236 899 q 394 861 311 892 l 418 852 l 434 867 q 640 966 521 949 q 712 962 675 970 q 771 939 749 955 q 792 912 783 930 q 801 879 801 893 q 754 798 801 840 q 648 741 707 755 q 584 737 625 736 q 517 743 543 738 q 512 741 515 744 q 503 727 509 737 q 477 675 488 702 q 467 635 467 649 l 467 629 l 492 629 q 514 628 507 629 q 532 623 522 627 q 602 573 580 604 q 607 562 606 566 q 608 551 608 558 q 602 532 607 540 q 586 518 596 525 q 564 508 576 512 q 502 522 541 500 l 481 532 l 460 522 q 234 245 273 419 q 231 210 231 228 q 235 180 232 192 q 240 172 237 174 q 249 168 243 170 q 359 165 292 153 q 576 274 464 186 q 649 342 612 303 q 709 414 686 381 q 737 424 722 433 q 776 381 760 411 q 795 318 793 351 q 713 145 797 235 q 459 22 611 45 m 584 795 q 665 800 629 788 q 696 813 682 806 q 727 834 709 821 q 760 867 745 848 q 774 896 774 886 q 763 905 774 901 q 737 907 753 908 q 601 840 673 902 q 571 813 583 825 q 559 799 559 801 q 567 798 560 799 q 584 795 574 796 z "},"F":{"ha":823,"x_min":0,"x_max":924,"o":"m 288 13 q 174 17 227 1 q 143 31 161 21 q 113 50 125 41 q 60 107 85 72 q 20 180 35 142 q 2 268 5 224 q 12 326 0 311 q 19 330 16 329 q 31 329 22 330 q 41 327 37 329 q 51 320 45 326 q 69 304 57 315 q 118 265 99 274 q 168 255 137 256 q 194 255 183 254 q 218 259 204 256 q 395 353 316 281 q 421 377 406 362 q 448 406 436 393 q 460 420 459 418 q 453 422 460 420 q 437 426 447 424 q 372 454 380 437 q 374 470 370 460 q 385 486 378 479 q 399 494 392 493 q 408 493 402 494 q 420 490 414 492 q 440 488 426 489 q 471 486 454 486 l 507 484 l 512 490 q 530 521 516 496 q 562 576 545 545 q 593 632 579 607 q 616 674 602 650 q 641 718 630 698 q 660 750 652 737 q 667 764 667 764 q 638 766 664 766 q 576 766 612 766 q 511 765 541 766 q 471 764 481 764 q 335 724 392 753 q 312 710 321 717 q 292 693 303 703 q 264 660 277 678 q 243 627 250 642 q 199 617 232 597 q 159 655 176 631 q 138 705 142 679 q 188 831 131 770 q 319 905 239 884 q 345 910 333 909 q 380 911 356 911 q 460 904 418 911 q 560 880 501 897 q 711 839 698 839 q 730 861 715 839 q 755 892 740 874 q 786 925 771 910 q 810 946 802 941 q 884 962 856 977 q 897 952 892 958 q 907 937 902 947 q 892 859 924 906 q 795 782 863 814 l 778 774 l 766 743 q 750 699 761 728 q 729 639 740 670 q 706 575 718 608 q 686 524 694 543 q 674 490 677 500 q 672 479 671 480 q 677 478 673 479 q 684 477 680 477 q 743 470 708 477 q 794 454 777 463 q 813 441 805 449 q 823 425 821 433 q 802 386 825 408 q 773 368 786 371 q 744 374 760 366 q 701 389 727 382 q 650 398 674 396 q 640 399 643 399 q 635 398 636 399 q 633 394 633 397 q 617 361 629 385 q 591 310 605 337 q 567 267 576 283 q 507 174 535 212 q 443 101 479 136 q 369 42 404 62 q 288 13 334 22 m 819 861 q 827 863 819 859 q 844 874 835 867 q 860 888 854 882 q 878 912 872 902 q 880 924 884 922 q 859 911 873 924 q 830 880 844 898 q 822 868 825 873 q 819 861 819 863 z "},"G":{"ha":865,"x_min":-9,"x_max":882,"o":"m 494 8 q 372 16 433 -4 q 167 228 224 71 q 159 268 161 248 q 161 296 157 288 q 222 277 180 328 q 238 260 231 266 q 254 251 244 255 q 294 237 275 241 q 338 232 312 233 q 412 237 379 230 q 483 264 444 245 q 576 328 533 288 q 667 434 623 370 q 670 440 670 439 q 664 436 670 441 q 643 420 657 431 q 491 353 564 357 q 345 448 396 345 q 309 595 309 518 q 354 752 309 675 l 365 770 l 357 771 q 323 772 347 773 q 281 769 299 772 q 102 652 157 746 q 89 634 95 638 q 74 632 83 629 q 48 651 62 636 q 24 685 34 665 q 35 824 -9 754 q 223 942 97 911 q 288 946 248 947 q 355 941 328 946 q 399 929 381 936 q 444 909 418 922 l 478 892 l 498 905 q 578 945 541 931 q 655 962 612 957 q 734 964 699 967 q 862 920 829 955 q 881 868 880 900 q 867 807 882 837 q 838 771 857 789 q 800 743 819 753 q 715 716 759 723 q 644 716 688 713 q 567 725 600 718 q 561 725 564 726 q 555 720 559 724 q 543 706 551 715 q 443 565 483 633 q 409 474 410 507 q 410 463 409 466 q 416 455 412 459 q 469 433 435 439 q 490 430 481 430 q 511 431 498 430 q 707 550 612 446 q 790 656 736 583 q 812 680 801 670 q 829 692 823 690 q 847 683 838 694 q 860 649 856 671 q 862 632 862 640 q 858 613 861 625 q 848 581 855 602 q 838 546 844 566 q 829 509 832 526 q 800 396 816 452 q 770 304 784 340 q 635 85 711 162 q 494 8 570 23 m 682 792 q 725 790 700 789 q 770 795 751 791 q 802 808 789 800 q 829 827 816 815 q 856 869 855 851 q 856 876 857 874 q 853 880 855 878 q 845 884 850 882 q 831 890 838 888 q 808 891 823 891 q 696 857 751 894 q 672 838 686 850 q 647 817 658 827 q 637 806 637 807 q 652 800 639 804 q 682 792 665 796 z "},"H":{"ha":1089,"x_min":6,"x_max":1259,"o":"m 985 -3 q 933 -9 963 -9 q 882 -4 904 -9 q 762 102 797 22 q 748 158 752 125 q 747 220 745 190 q 754 266 749 240 q 766 311 760 292 q 768 320 767 316 q 768 323 768 323 q 737 320 762 323 q 684 311 712 316 q 637 303 655 307 q 622 300 629 301 q 590 293 600 296 q 575 286 580 290 q 566 271 571 281 q 562 265 564 269 q 367 45 466 102 q 217 14 296 5 q 63 112 122 23 q 9 266 12 186 q 18 323 6 314 q 24 328 21 327 q 36 327 28 328 q 46 325 42 326 q 56 318 50 323 q 74 302 62 313 q 122 263 104 273 q 171 254 140 254 q 196 254 186 253 q 220 258 207 255 q 433 389 336 282 q 482 446 463 420 q 524 513 501 473 q 556 572 544 548 q 581 623 568 595 q 606 678 592 648 q 631 732 620 708 q 647 764 643 757 q 651 773 649 769 q 652 777 652 777 q 641 780 650 778 q 619 785 632 783 q 593 790 606 788 q 574 793 581 793 q 519 794 549 796 q 466 784 490 791 q 411 760 438 776 q 368 727 384 745 q 359 717 363 722 q 353 706 356 713 q 345 689 350 700 q 334 677 340 678 q 296 707 315 675 q 277 774 277 739 q 378 889 277 853 q 473 905 423 905 q 549 898 515 905 q 644 866 583 890 q 655 861 650 863 q 676 853 669 856 q 688 850 684 850 q 694 850 692 849 q 697 854 696 851 q 699 857 698 855 q 750 910 726 893 q 806 930 774 926 q 843 900 833 935 q 823 814 857 852 q 796 791 812 802 q 768 775 780 780 q 762 771 764 774 q 758 763 760 768 q 754 748 758 759 q 747 725 751 737 q 738 693 743 712 q 728 659 732 675 q 663 471 706 581 q 654 448 657 457 q 650 437 650 438 q 655 438 651 437 q 666 440 660 439 q 786 454 723 452 l 829 455 l 845 483 q 970 679 900 576 q 1093 845 1041 782 q 1129 887 1116 873 q 1153 907 1143 902 q 1173 911 1162 911 q 1215 900 1192 911 q 1251 873 1238 889 q 1259 852 1259 863 q 1249 822 1258 841 q 1178 695 1230 783 q 1150 647 1167 676 q 1118 593 1133 618 q 1000 378 1038 457 q 948 241 962 298 q 955 85 926 149 q 971 60 962 71 q 987 50 981 50 q 1005 46 994 50 q 1020 38 1015 43 q 985 -3 1040 15 z "},"I":{"ha":734,"x_min":9,"x_max":898,"o":"m 308 10 q 289 7 301 9 q 264 6 276 6 q 69 110 143 0 q 12 271 16 187 q 22 330 9 321 q 29 334 26 334 q 41 334 33 335 q 51 332 47 334 q 62 325 56 330 q 80 308 68 319 q 131 268 111 277 q 182 258 150 258 q 208 258 197 257 q 233 262 219 259 q 456 398 354 288 q 506 459 486 431 q 550 529 526 486 q 584 590 572 566 q 610 644 597 614 q 636 701 622 669 q 663 758 651 732 q 679 791 675 783 q 683 800 681 796 q 684 804 684 804 q 673 807 683 805 q 649 813 663 810 q 623 818 635 816 q 603 821 610 821 q 546 822 576 824 q 490 812 515 819 q 432 786 460 803 q 387 752 404 770 q 379 742 382 746 q 372 730 376 737 q 363 712 369 724 q 352 700 358 701 q 312 731 332 697 q 292 802 292 765 q 399 922 292 884 q 497 937 445 938 q 576 930 541 938 q 675 897 612 922 q 687 892 682 895 q 710 884 702 886 q 722 880 718 881 q 728 881 726 880 q 732 884 730 882 q 733 887 732 886 q 786 943 762 926 q 844 964 811 960 q 884 932 873 968 q 862 842 898 883 q 834 819 851 831 q 806 802 818 807 q 799 798 801 801 q 795 790 797 795 q 791 774 794 785 q 783 749 787 763 q 774 716 780 736 q 764 681 768 697 q 679 443 738 590 q 643 366 667 414 q 599 284 619 319 q 409 54 505 121 q 308 10 367 22 z "},"J":{"ha":810,"x_min":9,"x_max":1044,"o":"m 300 0 q 250 -3 278 -4 q 200 2 221 -3 q 161 17 182 7 q 124 37 139 26 q 96 62 113 45 q 70 94 80 79 q 9 316 11 184 q 12 366 9 345 q 21 406 15 387 q 66 446 35 454 q 78 440 73 445 q 88 425 83 436 q 100 391 93 413 q 199 283 124 320 q 238 269 220 273 q 286 266 255 265 q 335 269 315 265 q 380 282 355 273 q 471 343 418 298 q 571 446 525 389 q 666 584 606 490 q 787 783 726 678 l 793 794 l 748 793 q 629 779 679 790 q 530 743 579 768 q 405 640 448 699 q 397 625 399 631 q 395 612 395 620 q 370 576 394 572 q 340 606 356 581 q 314 661 323 630 q 389 859 277 779 q 612 937 484 928 q 808 916 692 943 q 821 912 815 914 q 854 906 844 907 q 869 906 865 904 q 880 915 874 909 q 884 919 882 917 q 966 967 926 960 q 989 969 979 970 q 1012 962 1000 968 q 1029 950 1023 956 q 1040 936 1036 945 q 1044 924 1043 930 q 1044 903 1044 918 q 1019 843 1043 865 q 979 818 1004 829 q 924 802 953 807 q 908 799 915 800 q 899 795 901 797 q 884 769 896 792 q 858 713 872 745 q 831 652 844 682 q 810 602 819 623 q 789 553 802 580 q 756 481 777 526 q 583 194 669 297 q 300 0 439 31 z "},"K":{"ha":1057,"x_min":3,"x_max":1088,"o":"m 929 7 q 827 12 880 -5 q 665 203 733 50 q 636 281 651 235 q 608 374 621 327 l 606 385 l 587 349 q 360 70 473 135 q 212 39 290 31 q 60 136 118 49 q 6 289 9 210 q 15 345 3 336 q 22 349 18 349 q 33 349 25 350 q 43 347 39 349 q 53 340 47 345 q 71 324 58 335 q 118 287 100 296 q 166 277 136 277 q 191 277 181 276 q 215 281 201 277 q 426 410 330 305 q 473 467 454 441 q 515 533 492 493 q 547 591 535 568 q 572 642 559 614 q 596 696 583 666 q 622 750 610 726 q 637 781 633 774 q 641 790 639 786 q 642 793 642 793 q 631 797 640 795 q 609 802 622 800 q 584 807 596 805 q 565 810 572 810 q 511 810 540 813 q 458 801 482 808 q 404 777 431 793 q 361 745 377 762 q 353 735 356 739 q 346 724 349 730 q 338 707 343 718 q 328 695 333 696 q 290 725 309 692 q 271 791 271 757 q 372 905 271 869 q 465 920 415 920 q 540 913 506 920 q 633 882 574 905 q 645 878 640 880 q 666 869 659 872 q 678 866 674 866 q 683 866 682 865 q 687 870 685 867 q 688 872 688 871 q 739 925 715 909 q 793 945 762 942 q 831 916 821 949 q 810 830 844 869 q 784 808 800 819 q 757 792 768 796 q 750 788 752 791 q 747 781 748 785 q 743 765 746 776 q 736 742 740 755 q 727 711 732 730 q 718 677 722 693 q 690 592 707 642 q 659 508 673 542 q 659 505 658 506 q 664 504 660 504 q 724 524 686 504 q 800 574 762 544 q 859 629 836 604 q 905 690 882 654 q 966 861 966 777 q 968 892 966 884 q 977 902 970 900 q 985 903 981 904 q 996 899 988 903 q 1063 803 1037 879 q 1039 628 1088 720 q 858 474 985 536 q 785 444 814 452 q 728 433 757 435 l 703 432 l 708 422 q 722 396 711 418 q 748 345 734 374 q 805 241 782 276 q 852 189 827 207 q 973 161 907 145 q 997 169 989 165 q 1016 185 1006 174 q 1027 195 1023 193 q 1035 198 1031 198 q 1050 173 1049 198 q 1035 108 1052 144 q 987 41 1017 73 q 959 19 972 26 q 929 7 947 12 z "},"L":{"ha":932,"x_min":-9,"x_max":956,"o":"m 732 1 q 543 37 647 -12 q 496 64 521 49 q 423 111 471 80 l 369 149 l 358 140 q 247 83 309 103 q 138 68 186 63 q 22 138 50 77 q 32 249 -9 206 q 58 268 43 260 q 89 281 73 277 q 148 287 115 288 q 210 280 180 287 q 223 277 219 278 q 230 277 228 277 q 235 280 232 278 q 260 304 241 285 q 300 346 279 323 q 336 387 321 369 q 366 422 348 401 q 398 461 383 444 q 428 497 413 479 q 450 525 442 515 q 505 600 479 563 q 547 662 531 637 q 561 688 563 687 q 547 686 558 689 q 522 680 536 684 q 494 671 507 675 q 385 603 435 650 q 338 539 345 566 q 282 543 316 479 q 269 581 273 562 q 265 625 265 599 q 273 682 265 657 q 298 732 280 706 q 470 838 357 817 q 553 841 501 843 q 648 831 606 839 q 653 831 650 830 q 661 837 656 832 q 674 853 665 842 q 791 941 725 914 q 912 948 867 973 q 954 877 951 926 q 921 791 956 829 q 717 712 856 728 l 704 711 l 686 675 q 667 631 679 659 q 644 577 654 604 q 605 488 621 522 q 573 423 589 454 q 452 234 513 308 q 438 216 444 224 q 432 208 432 209 q 451 200 432 206 q 495 188 469 195 q 544 178 521 182 q 634 168 597 168 q 710 181 672 169 q 840 277 778 200 q 880 309 865 309 q 897 299 888 309 q 908 273 905 290 q 911 235 911 258 q 906 191 910 212 q 830 55 890 114 q 732 1 787 12 m 44 188 q 54 186 45 186 q 73 187 62 186 q 94 191 84 189 q 131 205 109 195 q 167 226 153 216 q 174 232 172 230 q 176 234 176 233 q 172 236 175 235 q 159 237 170 237 q 134 237 149 237 q 94 233 108 237 q 67 218 81 229 q 56 207 61 214 q 47 195 50 201 q 44 188 43 190 m 787 823 l 772 810 l 801 810 q 825 812 812 811 q 843 815 837 814 q 879 830 861 820 q 910 849 898 840 q 920 865 922 859 q 886 876 912 878 q 787 823 839 872 z "},"M":{"ha":1375,"x_min":0,"x_max":1506,"o":"m 1249 5 q 1108 26 1183 -14 q 1075 53 1092 35 q 1048 85 1057 70 q 1077 366 994 186 q 1244 653 1105 430 q 1280 711 1262 682 q 1305 754 1297 739 q 1328 795 1316 772 q 1348 836 1339 818 q 1358 861 1357 854 l 1360 867 l 1350 864 q 1271 818 1314 851 q 1187 741 1227 785 q 1105 637 1147 697 q 997 473 1062 577 q 913 345 943 386 q 864 293 883 303 q 822 290 844 283 q 755 340 774 302 q 748 357 750 350 q 746 378 747 364 q 793 549 742 433 q 838 659 812 593 q 876 755 865 725 q 891 810 884 780 q 899 850 899 840 q 898 859 899 857 q 894 859 897 861 q 855 838 877 853 q 819 805 833 823 q 754 682 773 751 q 669 444 728 591 q 621 342 652 401 q 556 231 589 283 q 332 20 445 58 q 88 75 182 -24 q 50 125 68 96 q 21 182 32 155 q 2 272 5 227 q 13 332 0 317 q 20 336 16 335 q 32 335 23 336 q 42 333 37 334 q 52 326 46 331 q 71 309 58 321 q 121 269 102 279 q 172 259 140 260 q 199 259 188 258 q 224 263 210 260 q 446 399 345 289 q 497 460 477 432 q 541 530 517 488 q 574 591 562 566 q 600 644 587 615 q 627 702 612 670 q 653 759 642 733 q 669 792 665 784 q 673 801 671 797 q 675 805 675 804 q 663 808 673 806 q 640 814 653 811 q 613 819 626 817 q 593 823 600 821 q 536 823 567 825 q 480 812 506 820 q 423 788 451 804 q 378 753 395 771 q 370 743 373 747 q 363 731 366 738 q 354 713 359 725 q 342 701 349 702 q 302 732 322 698 q 283 803 283 766 q 389 922 283 884 q 488 938 435 939 q 567 930 531 939 q 665 898 603 922 q 677 893 672 895 q 701 885 692 888 q 713 881 709 882 q 719 882 717 880 q 722 886 720 883 q 724 888 723 886 q 777 944 752 926 q 835 965 802 962 q 874 933 864 969 l 878 920 l 892 918 q 957 891 925 914 q 1006 837 989 869 q 1020 802 1017 818 q 1023 758 1023 786 q 1020 711 1023 731 q 1008 661 1017 692 q 991 609 1002 640 q 970 556 979 578 q 963 542 966 547 q 962 535 961 536 q 970 547 962 535 q 989 575 977 558 q 1280 905 1145 818 q 1384 941 1345 949 q 1434 917 1409 935 q 1476 874 1459 899 q 1502 808 1498 843 q 1492 721 1506 773 q 1449 609 1480 670 q 1343 428 1418 548 q 1262 294 1287 340 q 1221 210 1236 248 q 1202 60 1177 108 q 1242 36 1211 37 q 1276 24 1270 34 q 1249 5 1282 15 z "},"N":{"ha":1198,"x_min":0,"x_max":1518,"o":"m 843 11 q 815 6 832 7 q 783 7 798 5 q 674 98 695 20 q 667 151 669 117 q 666 218 665 186 q 677 327 668 267 q 698 433 686 387 q 725 533 708 472 q 756 640 743 595 q 781 729 773 698 q 788 777 788 761 l 788 787 l 775 782 q 765 779 769 780 q 761 777 762 777 q 730 669 760 777 q 646 433 703 574 q 599 335 629 391 q 536 227 569 278 q 319 24 429 60 q 85 76 176 -19 q 49 125 66 97 q 20 180 31 153 q 2 267 5 223 q 12 324 0 310 q 19 328 16 328 q 31 328 22 329 q 40 326 36 327 q 50 319 44 324 q 68 302 56 314 q 117 264 98 273 q 166 254 136 255 q 192 254 181 254 q 216 258 202 255 q 431 390 332 283 q 479 448 460 421 q 522 515 498 475 q 554 574 542 551 q 579 626 567 598 q 605 682 591 651 q 630 736 619 712 q 646 768 642 761 q 650 777 648 774 q 651 781 651 781 q 640 784 650 782 q 617 790 631 787 q 592 795 604 793 q 572 798 579 797 q 517 798 547 801 q 463 789 488 795 q 408 765 435 781 q 365 731 381 749 q 356 721 359 726 q 350 710 353 717 q 341 693 347 704 q 331 680 336 682 q 292 711 311 678 q 273 779 273 743 q 376 895 273 858 q 471 910 420 910 q 547 902 513 910 q 642 871 582 895 q 654 867 648 869 q 676 858 668 861 q 688 854 684 855 q 693 855 692 854 q 696 859 695 857 q 699 861 697 860 q 750 916 726 899 q 806 936 774 932 q 844 905 833 940 q 841 846 852 874 l 834 831 l 844 828 q 893 798 869 821 q 925 684 931 764 q 868 438 920 604 q 844 357 852 389 q 829 296 835 324 q 818 233 823 263 q 813 197 813 203 q 820 209 814 195 q 836 250 826 224 q 926 462 874 352 q 1023 650 977 572 q 1074 729 1044 684 q 1126 803 1105 775 q 1182 867 1149 833 q 1239 916 1216 901 q 1480 920 1390 1014 q 1500 893 1491 909 q 1514 864 1509 878 q 1517 843 1517 854 q 1515 826 1518 831 q 1505 821 1512 821 q 1489 827 1497 821 q 1474 832 1482 832 q 1453 827 1467 832 q 1234 614 1355 793 q 1166 505 1200 565 q 1076 332 1133 444 q 1029 241 1046 273 q 999 188 1012 209 q 971 143 987 168 q 900 48 929 79 q 843 11 871 18 z "},"O":{"ha":920,"x_min":0,"x_max":947,"o":"m 476 0 q 441 -4 465 -3 q 392 -5 418 -5 q 350 -3 366 -5 q 151 128 212 10 q 145 467 81 279 q 279 674 193 590 l 298 692 l 287 690 q 130 637 196 680 q 96 608 113 625 q 73 577 79 590 q 60 562 66 564 q 20 595 39 559 q 0 673 0 631 q 8 721 0 701 q 39 764 17 741 q 204 851 105 833 q 385 814 279 867 l 425 794 l 446 808 q 569 869 513 851 q 634 881 602 879 q 687 878 665 884 q 697 874 693 876 q 702 873 701 873 q 700 876 702 873 q 696 884 699 879 q 691 966 663 942 q 697 969 694 968 q 704 971 700 970 q 717 970 709 971 q 735 968 728 970 q 753 960 743 966 q 861 838 817 929 q 866 431 947 661 q 829 339 851 388 q 785 253 806 291 q 476 0 658 42 m 319 155 q 328 151 323 153 q 336 150 332 150 q 349 151 341 150 q 609 311 493 165 q 730 517 685 410 q 777 652 764 597 q 789 756 791 707 q 784 797 788 784 q 767 820 779 810 q 751 827 747 838 q 752 753 766 789 q 659 685 731 709 q 614 674 636 677 q 558 670 591 671 l 518 669 l 492 643 q 279 296 318 468 q 275 241 274 270 q 281 197 275 213 q 297 173 287 184 q 319 155 307 161 m 608 741 q 616 741 608 740 q 635 743 625 741 q 656 747 646 745 q 673 752 663 749 q 690 760 683 756 q 706 768 698 763 q 720 779 714 774 q 725 786 725 784 q 720 788 725 788 q 706 787 714 788 q 690 783 698 786 q 674 778 683 781 q 660 772 666 774 q 639 760 651 767 q 618 747 627 753 q 608 741 608 741 z "},"P":{"ha":1249,"x_min":0,"x_max":1232,"o":"m 300 13 q 280 10 293 12 q 256 9 268 9 q 60 113 134 3 q 3 274 6 191 q 13 334 0 325 q 20 338 16 338 q 32 338 24 339 q 42 336 38 338 q 53 329 46 334 q 71 312 59 323 q 122 272 102 281 q 173 262 141 262 q 200 262 189 261 q 225 266 210 262 q 448 403 346 292 q 499 463 479 435 q 543 534 519 491 q 577 595 564 570 q 603 648 590 619 q 629 706 614 675 q 656 763 644 738 q 672 797 668 789 q 676 805 674 802 q 677 810 677 809 q 666 813 676 810 q 642 819 656 816 q 616 824 629 821 q 596 827 603 827 q 538 827 569 830 q 482 817 508 825 q 425 792 453 809 q 380 758 397 776 q 371 747 374 751 q 364 736 368 743 q 355 718 361 730 q 345 705 350 706 q 304 736 324 703 q 284 808 284 770 q 391 928 284 890 q 490 943 437 944 q 569 936 533 944 q 668 903 606 928 q 680 899 675 901 q 703 890 695 892 q 715 886 711 887 q 721 887 720 886 q 725 890 723 888 q 726 893 726 892 q 780 949 755 932 q 838 970 805 967 q 881 906 882 972 l 880 888 l 905 895 q 1048 894 983 916 q 1150 823 1103 876 q 1228 670 1210 758 q 1231 611 1232 650 q 1227 547 1231 571 q 1166 398 1211 469 q 951 220 1090 279 q 602 263 747 138 l 586 277 l 564 242 q 401 57 487 119 q 300 13 359 26 m 649 317 q 690 313 664 313 q 736 317 717 313 q 923 413 831 335 q 1069 601 1021 500 q 1097 778 1118 703 q 1022 833 1088 814 q 1005 838 1013 837 q 988 840 998 840 q 958 840 977 840 q 919 840 932 840 q 894 836 905 839 q 812 809 850 827 q 797 802 802 804 q 790 796 792 799 q 787 790 788 793 q 770 730 781 768 q 748 655 759 692 q 730 601 736 618 q 639 376 679 456 q 624 346 630 358 q 616 332 617 333 q 621 328 616 330 q 634 322 626 325 q 649 317 642 319 z "},"Q":{"ha":929,"x_min":0,"x_max":930,"o":"m 793 -98 q 764 -101 781 -101 q 736 -100 747 -102 q 597 11 663 -83 q 583 32 589 23 q 576 41 576 40 q 569 39 576 41 q 553 31 563 36 q 471 3 512 12 q 396 -1 445 -1 q 319 5 347 -1 q 151 131 202 28 q 144 468 80 281 q 277 674 192 590 l 296 692 l 285 690 q 130 637 195 679 q 96 608 113 625 q 72 577 79 590 q 60 563 66 564 q 20 596 39 560 q 0 672 0 631 q 8 721 0 701 q 39 764 17 740 q 203 850 104 832 q 382 812 278 866 l 422 793 l 444 807 q 566 867 511 850 q 630 880 598 878 q 682 876 661 882 q 693 873 688 874 q 698 871 697 871 q 696 874 698 871 q 691 882 694 878 q 687 964 659 940 q 693 967 690 966 q 700 969 696 968 q 713 968 705 969 q 731 966 724 968 q 749 958 738 964 q 855 836 812 927 q 880 497 929 684 q 694 138 821 283 q 684 127 688 132 q 680 121 680 122 q 689 112 682 119 q 708 97 697 105 q 726 84 718 90 q 835 53 781 51 q 864 58 853 54 q 885 69 875 61 q 922 71 912 89 q 917 17 930 52 q 873 -48 903 -17 q 793 -98 835 -89 m 276 210 q 294 217 277 208 q 420 250 341 246 q 515 241 475 252 l 532 237 l 545 247 q 667 404 598 294 q 751 581 708 469 q 784 755 786 675 q 779 796 783 783 q 762 819 774 809 q 747 826 743 837 q 747 752 762 788 q 654 685 726 709 q 610 674 633 677 q 555 669 588 671 l 515 668 l 489 643 q 277 298 317 469 q 274 273 275 284 q 273 243 273 262 q 275 221 274 231 q 276 210 275 212 m 605 740 q 613 740 605 739 q 631 742 621 740 q 652 746 642 744 q 669 751 660 748 q 686 758 679 755 q 702 768 694 762 q 715 778 709 773 q 721 785 721 783 q 715 787 721 787 q 702 786 710 787 q 685 783 694 785 q 670 777 678 780 q 656 770 662 774 q 635 760 647 766 q 614 747 623 753 q 605 740 605 741 z "},"R":{"ha":1128,"x_min":0,"x_max":1128,"o":"m 932 0 q 774 31 856 -10 q 677 111 720 58 q 623 195 644 150 q 587 312 603 241 q 586 315 587 315 q 583 313 585 315 q 577 304 581 311 q 567 288 574 298 q 368 64 467 121 q 216 32 296 24 q 58 132 119 41 q 3 290 5 208 q 12 349 0 338 q 19 352 16 351 q 31 352 22 353 q 41 350 37 351 q 51 343 45 348 q 69 326 57 338 q 118 287 99 296 q 168 277 137 278 q 194 277 184 277 q 219 281 205 278 q 436 414 336 307 q 486 473 466 446 q 528 542 505 500 q 562 602 549 578 q 587 654 574 626 q 612 710 598 680 q 638 766 627 741 q 654 798 650 791 q 658 807 656 804 q 659 811 659 810 q 648 814 658 812 q 625 820 639 817 q 599 825 612 823 q 580 828 587 827 q 524 828 554 831 q 469 819 494 826 q 413 794 441 810 q 369 760 386 778 q 361 750 364 755 q 354 740 357 746 q 346 722 351 733 q 335 709 340 711 q 296 740 315 707 q 277 809 277 772 q 380 926 277 889 q 477 941 425 942 q 554 934 519 942 q 650 902 589 926 q 663 898 657 900 q 685 889 677 892 q 696 886 692 886 q 702 886 701 885 q 706 890 704 887 q 707 892 707 891 q 760 947 735 930 q 816 968 784 964 q 846 956 836 970 q 854 937 850 949 q 858 918 858 925 q 859 912 858 913 q 862 912 860 911 q 892 920 874 917 q 926 924 909 924 q 1036 896 985 928 q 1126 733 1115 846 q 1126 684 1128 711 q 1120 634 1124 656 q 1099 567 1113 601 q 1067 508 1084 533 q 913 390 1012 434 q 712 346 803 346 q 692 344 694 346 q 701 325 692 340 q 722 293 709 311 q 746 261 734 275 q 841 186 785 212 q 887 169 867 174 q 935 165 906 164 q 967 166 957 165 q 987 170 977 167 q 1017 182 1004 175 q 1049 202 1030 189 q 1066 212 1059 208 q 1076 216 1074 216 q 1086 210 1081 216 q 1093 195 1091 204 q 1086 125 1096 166 q 1011 25 1066 53 q 932 0 970 5 m 676 454 q 720 450 695 450 q 763 453 745 450 q 885 519 831 467 q 943 599 925 557 q 966 708 962 642 q 916 870 976 829 q 901 878 907 876 q 886 879 896 880 q 859 877 867 880 q 847 867 852 875 q 816 833 836 850 q 779 810 795 817 q 771 805 774 808 q 768 798 769 803 q 764 782 767 793 q 757 758 760 771 q 747 726 753 745 q 737 691 742 707 q 661 475 713 606 q 657 465 659 469 q 656 460 656 460 q 662 458 656 459 q 676 454 668 456 z "},"S":{"ha":702,"x_min":0,"x_max":857,"o":"m 388 4 q 195 35 285 -14 q 92 128 142 60 q 33 251 54 182 q 24 356 13 319 q 34 372 28 365 q 43 379 39 379 q 52 373 44 379 q 71 357 60 366 q 273 237 172 262 q 435 265 373 212 q 473 339 465 292 q 432 481 480 368 q 382 652 390 581 q 379 701 379 672 q 380 753 378 730 l 382 774 l 372 775 q 338 776 361 777 q 289 774 315 776 q 248 770 264 772 q 147 736 190 760 q 90 684 104 713 q 76 665 83 668 q 55 671 68 663 q 22 711 36 684 q 6 765 8 738 q 80 881 0 829 q 241 930 153 932 q 415 895 307 930 q 440 887 430 890 q 452 884 451 884 q 460 888 453 884 q 476 899 467 892 q 637 968 543 947 q 668 973 653 972 q 713 974 682 974 q 746 974 734 974 q 765 972 758 973 q 780 968 772 970 q 851 916 836 954 q 856 901 855 909 q 857 879 857 894 q 857 863 857 869 q 855 852 857 857 q 851 842 854 847 q 811 798 840 819 q 747 764 783 777 q 633 748 696 747 q 596 750 616 749 q 564 752 576 751 q 559 752 561 752 q 538 754 545 754 q 527 749 532 753 q 513 735 522 745 q 510 732 511 734 q 472 659 475 692 q 472 650 471 654 q 474 643 472 647 q 481 630 477 638 q 497 609 487 623 q 517 583 507 595 q 583 484 559 530 q 620 385 607 439 q 631 332 628 355 q 633 281 633 310 q 605 152 633 209 q 388 4 540 33 m 648 832 q 660 831 650 831 q 684 831 670 831 q 716 834 703 832 q 741 839 728 836 q 780 853 760 844 q 808 871 801 863 l 814 876 l 805 878 q 771 878 792 880 q 731 870 749 876 q 691 856 711 864 q 660 841 672 848 q 648 832 647 835 z "},"T":{"ha":760,"x_min":0,"x_max":1173,"o":"m 290 7 q 271 5 283 6 q 248 3 259 4 q 58 104 130 -2 q 3 260 5 180 q 12 319 0 309 q 19 323 16 322 q 31 323 22 323 q 41 320 37 322 q 51 314 45 319 q 68 297 57 309 q 118 258 99 268 q 167 248 136 249 q 193 249 182 248 q 218 252 203 250 q 434 385 335 277 q 483 444 463 417 q 526 512 503 471 q 559 571 547 547 q 584 623 571 595 q 609 679 595 648 q 635 734 623 709 q 650 766 647 759 q 655 777 653 772 q 656 785 656 782 l 656 791 l 633 794 q 581 798 612 797 q 520 799 549 799 q 478 795 492 798 q 376 747 410 784 q 365 728 365 734 q 355 706 365 713 q 349 703 351 703 q 340 706 346 703 q 307 739 323 713 q 285 815 286 773 q 287 852 283 838 q 302 880 291 866 q 350 920 319 901 q 414 949 381 939 q 465 960 441 957 q 521 963 488 963 q 607 957 564 963 q 722 933 650 950 q 748 927 739 929 q 762 924 757 925 q 770 924 767 924 q 775 926 772 924 q 811 935 792 933 q 849 909 839 939 q 851 903 850 905 q 858 899 853 901 q 873 895 863 897 q 902 888 884 892 q 1069 878 1006 867 q 1103 889 1088 882 q 1124 904 1118 896 q 1146 936 1138 928 q 1161 940 1154 943 q 1172 915 1172 935 q 1162 867 1173 895 q 964 751 1128 751 q 907 753 932 751 q 827 765 881 756 q 787 771 804 768 q 768 773 770 773 q 765 769 766 772 q 763 762 764 766 q 755 735 762 757 q 741 684 749 713 q 678 498 712 585 q 643 411 656 442 q 613 348 630 380 q 389 50 503 130 q 290 7 347 20 z "},"U":{"ha":1169,"x_min":0,"x_max":1239,"o":"m 1050 10 q 964 5 1011 -2 q 911 22 934 9 q 863 60 888 35 q 775 290 774 144 l 775 326 l 763 309 q 683 215 726 261 q 610 149 639 170 q 473 95 538 96 q 447 95 457 94 q 425 98 437 96 q 247 260 315 132 q 359 720 149 451 q 376 740 367 729 q 391 758 385 751 q 400 769 397 764 q 404 775 404 774 q 397 777 403 775 q 384 779 391 778 q 332 780 364 781 q 275 774 300 779 q 163 734 213 764 q 91 666 113 704 q 44 661 74 627 q 11 721 21 686 q 5 788 0 755 q 64 883 17 838 q 176 949 111 927 q 216 958 198 956 q 258 960 234 961 q 337 947 299 961 q 438 893 375 932 q 473 872 458 881 q 489 863 487 863 q 493 863 490 862 q 499 867 496 865 q 535 896 523 886 q 562 915 548 905 q 710 974 654 974 q 782 900 764 974 q 697 761 794 814 q 655 744 675 749 q 605 739 635 740 l 568 737 l 551 715 q 405 486 462 604 q 379 427 389 453 q 361 371 369 400 q 352 289 351 328 q 362 239 352 250 q 378 236 366 237 q 405 235 390 235 q 429 237 419 235 q 606 326 505 252 q 817 540 718 410 q 836 567 829 554 q 852 603 843 580 q 914 727 878 662 q 977 831 949 792 q 1046 911 994 856 q 1081 942 1061 927 q 1114 962 1101 957 q 1163 963 1135 970 q 1206 943 1185 957 q 1235 917 1227 930 q 1239 904 1239 910 q 1233 886 1238 897 q 1214 856 1227 876 q 1042 490 1119 707 q 1015 131 958 250 q 1039 92 1025 109 q 1065 68 1053 75 q 1080 63 1072 64 q 1089 65 1087 62 q 1097 71 1091 68 q 1110 75 1103 73 q 1122 77 1117 77 q 1116 45 1147 77 q 1050 10 1093 23 m 653 827 l 634 810 l 644 810 q 699 825 669 810 q 731 850 717 834 q 751 881 746 865 q 751 886 752 885 q 743 885 749 886 q 733 882 739 884 q 723 878 727 880 q 688 856 708 871 q 653 827 668 842 z "},"V":{"ha":993,"x_min":0,"x_max":1299,"o":"m 486 10 q 451 7 471 7 q 419 8 431 6 q 294 76 353 19 q 205 230 225 142 q 201 290 201 254 q 207 355 201 326 q 429 750 249 551 q 442 764 437 759 q 449 772 447 770 q 449 775 450 774 q 446 777 448 777 q 363 789 408 785 q 290 791 318 793 q 176 754 229 787 q 96 669 123 720 q 89 655 92 660 q 83 648 85 650 q 76 647 80 647 q 42 672 61 647 q 16 729 24 698 q 45 850 0 793 q 231 944 116 937 q 319 935 271 947 q 473 883 367 923 q 519 866 500 873 q 540 859 538 859 q 548 863 541 859 q 564 873 555 867 q 680 944 628 922 q 755 956 732 966 q 789 881 780 941 q 758 787 798 825 q 661 745 720 750 l 641 744 l 612 714 q 444 507 519 618 q 331 267 353 371 q 325 217 327 245 q 325 172 323 189 q 331 153 326 158 q 351 147 336 148 q 578 288 435 140 q 670 396 626 337 q 780 558 714 455 q 954 780 852 669 q 1104 895 1027 856 q 1145 912 1128 907 q 1184 918 1163 917 q 1270 890 1241 920 q 1284 868 1277 882 q 1295 840 1291 854 q 1298 797 1299 821 q 1291 758 1297 772 q 1286 750 1289 753 q 1281 745 1283 746 q 1270 745 1276 742 q 1261 756 1264 749 q 1259 762 1261 760 q 1255 764 1257 764 q 1221 759 1242 764 q 1185 744 1201 753 q 1099 673 1149 724 q 1019 574 1063 636 q 903 398 975 512 q 821 273 851 315 q 756 192 790 230 q 706 140 734 167 q 659 97 678 113 q 486 10 569 27 z "},"W":{"ha":1297,"x_min":0,"x_max":1487,"o":"m 922 12 q 886 7 906 9 q 855 7 866 6 q 710 60 773 15 q 657 110 682 80 q 618 168 631 140 l 612 181 l 583 151 q 491 73 536 102 q 321 18 404 15 q 131 104 214 16 q 66 267 60 175 q 118 454 71 361 q 191 579 151 522 q 294 701 232 635 l 330 738 l 308 738 q 266 735 288 738 q 227 727 243 732 q 158 690 193 716 q 101 631 124 664 q 93 619 97 624 q 88 614 90 614 q 78 612 85 612 q 66 615 71 612 q 34 650 50 624 q 11 705 18 675 q 13 776 0 743 q 66 851 26 809 q 100 882 84 870 q 136 904 116 894 q 259 928 200 935 q 326 911 291 925 q 420 864 361 897 q 442 852 434 857 q 455 846 450 848 q 461 845 459 844 q 465 846 463 845 q 589 913 532 891 q 638 930 620 926 q 678 934 657 934 q 696 933 690 934 q 707 932 703 933 q 716 927 711 930 q 727 920 722 924 q 736 913 732 916 q 761 869 751 896 q 769 821 770 843 q 747 771 766 795 q 700 733 728 747 q 656 718 681 724 q 608 710 631 712 l 587 709 l 553 675 q 435 543 492 612 q 342 422 377 474 q 237 172 247 277 l 236 153 l 243 153 q 289 163 258 153 q 350 187 320 174 q 570 357 440 231 q 639 429 614 399 q 686 493 664 458 q 719 543 708 527 q 736 564 730 559 q 749 566 743 568 q 772 544 761 562 q 785 511 784 527 q 741 375 786 470 q 711 173 688 254 q 723 153 715 157 q 753 150 730 149 q 1018 339 890 155 q 1068 434 1047 382 q 1115 575 1090 486 q 1148 683 1133 640 q 1185 774 1163 725 q 1271 909 1224 864 q 1375 958 1322 962 q 1446 923 1415 958 q 1475 878 1463 903 q 1486 836 1487 853 q 1486 831 1486 834 q 1485 828 1486 829 q 1484 823 1485 826 q 1480 819 1482 821 q 1475 815 1478 816 q 1467 815 1472 814 q 1459 815 1463 816 q 1450 811 1456 814 q 1434 799 1444 807 q 1354 708 1385 764 q 1322 629 1339 682 q 1278 469 1305 575 q 1242 343 1259 391 q 1205 254 1226 295 q 1047 64 1142 130 q 922 12 987 26 z "},"X":{"ha":964,"x_min":0,"x_max":1001,"o":"m 737 7 q 694 3 721 3 q 651 5 668 2 q 415 253 489 45 q 407 278 410 268 q 404 288 404 288 q 383 275 402 289 q 337 241 364 262 q 282 198 309 220 q 239 161 256 176 q 204 125 223 147 q 170 84 184 104 q 155 60 155 64 q 157 54 155 58 q 160 47 158 51 q 159 18 169 29 q 152 13 155 14 q 140 12 149 12 q 79 46 108 14 q 41 124 51 79 q 86 271 25 192 q 282 452 138 345 q 309 471 292 458 q 345 497 326 484 q 378 520 364 511 q 393 530 391 530 q 394 538 393 530 q 398 558 396 546 q 454 724 412 639 q 464 745 460 737 q 469 755 467 752 q 469 760 470 759 q 467 762 469 761 q 431 768 457 764 q 377 777 404 772 q 338 783 351 781 q 272 786 311 786 q 215 784 233 787 q 68 685 115 762 q 55 668 61 671 q 41 670 50 665 q 13 710 24 682 q 0 769 1 739 q 82 901 3 847 q 245 939 151 946 q 323 925 283 936 q 436 886 363 914 q 487 866 464 875 q 517 855 510 858 l 534 850 l 576 893 q 637 947 620 937 q 718 941 691 982 q 732 890 730 923 q 640 767 739 804 l 621 760 l 606 735 q 584 693 595 716 q 565 654 572 671 q 559 638 557 638 q 757 758 572 646 q 862 823 825 800 q 918 861 900 847 q 948 887 937 875 q 964 899 958 897 q 977 893 970 900 q 999 809 1001 869 q 983 751 998 778 q 927 685 967 725 q 849 615 891 650 q 742 530 808 580 q 650 463 706 503 q 550 392 594 422 q 539 384 544 387 q 519 369 525 374 q 513 357 513 364 q 517 339 513 351 q 520 330 519 335 q 591 229 541 264 q 663 206 621 209 q 743 217 705 203 q 799 248 768 227 q 857 292 831 269 q 872 306 867 302 q 883 309 878 309 q 895 304 890 309 q 905 284 900 298 q 911 242 910 269 q 908 195 912 215 q 804 39 883 97 q 770 20 789 29 q 737 7 751 11 z "},"Y":{"ha":932,"x_min":0,"x_max":1097,"o":"m 511 7 q 460 2 491 3 q 408 4 429 1 q 289 54 345 17 q 250 86 271 65 q 212 128 228 107 q 159 237 174 182 q 164 315 145 292 q 230 294 181 338 q 263 269 248 278 q 298 254 279 260 q 418 245 363 235 q 599 338 505 264 q 810 593 724 434 q 825 619 819 608 q 831 631 831 630 q 820 618 831 631 q 790 585 808 605 q 598 381 665 437 q 473 319 532 326 q 451 316 460 316 q 432 317 443 316 q 303 426 354 332 q 281 609 254 518 q 345 734 302 675 q 353 747 350 742 q 355 753 356 752 q 346 756 354 754 q 326 760 337 758 q 148 741 219 779 q 92 694 108 720 q 86 683 89 690 q 83 670 84 676 q 80 657 81 661 q 75 652 78 654 q 46 663 62 647 q 18 707 30 680 q 3 764 5 734 q 30 849 0 812 q 94 897 51 875 q 181 928 137 920 q 338 922 260 941 q 439 876 385 910 l 461 862 l 475 872 q 551 923 507 898 q 630 960 595 948 q 672 968 650 966 q 709 965 694 969 q 762 874 762 945 q 702 786 760 824 q 640 755 675 768 q 572 738 604 742 q 562 736 566 737 q 554 731 558 735 q 541 719 549 727 q 389 484 422 591 l 385 469 l 408 469 q 562 520 479 469 q 635 572 594 541 q 715 636 677 603 q 773 691 731 651 q 858 772 814 730 q 922 836 901 814 q 964 886 950 865 q 1045 947 1004 947 q 1060 945 1055 947 q 1075 934 1066 942 q 1088 914 1082 927 q 1097 890 1095 901 q 1097 882 1097 885 q 1096 878 1097 880 q 1091 874 1095 876 q 1072 857 1082 868 q 1053 834 1061 845 q 1044 816 1050 828 q 1034 793 1038 804 q 993 684 1017 749 q 952 572 969 620 q 914 468 930 507 q 878 390 898 429 q 732 170 817 263 q 511 7 614 38 z "},"Z":{"ha":881,"x_min":0,"x_max":1037,"o":"m 798 -19 q 768 -31 777 -38 q 766 -28 767 -30 q 766 -26 766 -26 q 766 -23 766 -24 q 766 -21 766 -22 q 742 -9 763 -18 q 697 11 722 1 q 656 26 672 21 q 560 52 617 39 q 456 74 503 66 q 402 79 410 82 q 346 46 367 56 q 294 27 326 37 q 231 11 256 15 q 168 7 206 7 q 91 15 119 7 q 39 42 63 22 q 2 113 0 71 q 19 157 1 140 q 69 191 35 172 q 139 220 104 209 q 220 240 173 231 q 292 248 267 248 q 301 249 298 248 q 311 255 304 250 q 330 271 317 260 q 392 329 357 295 q 445 387 426 363 q 522 487 479 427 q 596 595 565 547 q 644 669 618 630 q 688 734 669 708 q 699 750 694 744 q 702 757 703 756 q 683 761 701 758 q 640 768 665 764 q 591 775 615 772 q 504 780 550 780 q 427 777 458 781 q 247 686 303 758 q 210 701 229 667 q 196 770 196 730 q 208 840 195 810 q 222 863 213 851 q 240 883 231 876 q 309 926 267 906 q 394 956 351 945 q 463 963 422 962 q 536 960 504 964 q 608 944 573 955 q 704 907 643 933 q 747 890 726 899 q 781 877 769 882 l 809 867 l 815 872 q 841 891 825 880 q 872 911 857 901 q 895 924 887 920 q 1003 923 966 956 q 1013 829 1037 892 q 950 766 996 788 q 913 754 936 760 q 871 747 890 749 l 849 745 l 833 724 q 775 635 806 688 q 695 484 745 583 q 619 337 648 389 q 564 248 591 286 q 554 233 557 239 q 550 226 550 227 q 561 223 551 225 q 585 217 570 220 q 785 134 717 186 q 831 62 828 102 q 823 19 833 41 q 798 -19 814 -4 z "},"[":{"ha":734,"x_min":0,"x_max":734,"o":"m 305 7 q 287 5 300 6 q 259 3 274 4 q 113 31 172 0 q 16 143 33 72 q 62 380 0 232 q 165 579 98 462 q 304 807 232 697 q 357 884 336 857 q 396 929 378 911 q 490 973 440 974 q 520 969 505 973 q 562 956 536 966 q 596 943 574 951 q 638 928 618 935 q 679 913 665 918 q 697 904 692 908 q 709 895 703 901 q 720 861 734 871 q 708 860 716 859 q 684 863 701 860 q 627 866 653 866 q 591 863 600 867 q 571 845 585 859 q 547 817 558 831 q 275 349 506 759 q 149 91 152 132 l 149 81 l 170 77 q 195 73 179 75 q 228 68 212 71 q 326 34 311 58 q 305 7 336 14 z "},"\\":{"ha":186,"x_min":0,"x_max":186,"o":"m 106 26 q 75 23 94 24 q 47 26 56 23 q 11 85 23 33 q 2 173 4 111 q 1 372 0 235 q 24 882 4 732 q 30 915 27 903 q 38 932 33 927 q 50 942 42 938 q 114 950 75 954 q 168 935 149 947 q 169 934 168 935 q 179 926 176 930 q 184 911 182 922 q 186 879 186 901 q 186 818 186 857 q 186 812 186 815 q 185 718 186 770 q 182 627 184 665 q 173 441 176 507 q 166 325 170 374 q 157 207 163 275 q 152 144 154 172 q 149 109 149 117 q 125 33 143 46 q 117 30 122 32 q 106 26 112 28 z "},"]":{"ha":711,"x_min":0,"x_max":711,"o":"m 270 14 q 226 10 248 7 q 170 26 204 13 q 136 39 157 31 q 94 54 115 47 q 55 68 68 64 q 36 77 42 73 q 25 86 31 81 q 15 119 0 110 q 25 120 18 121 q 50 118 33 120 q 105 114 79 114 q 140 117 132 114 q 160 135 147 121 q 183 163 173 148 q 450 621 224 219 q 574 873 570 833 l 574 883 l 553 887 q 527 891 543 889 q 496 896 511 894 q 402 928 417 906 q 410 954 390 943 q 423 956 413 955 q 446 959 433 958 q 609 933 540 966 q 707 787 707 884 q 581 437 711 671 q 471 250 532 347 q 371 98 411 153 q 270 14 317 26 z "},"^":{"ha":304,"x_min":0,"x_max":304,"o":"m 75 739 q 53 738 66 732 q 24 759 39 743 q 1 806 2 782 q 1 820 0 814 q 7 835 2 825 q 67 908 26 873 q 151 957 109 943 q 166 960 157 958 q 183 961 175 961 q 290 851 254 959 q 303 780 302 813 q 293 740 304 747 q 280 741 288 737 q 268 754 273 745 q 245 814 254 775 q 236 839 242 833 q 217 846 231 845 q 193 843 205 847 q 163 827 181 839 q 127 797 148 817 q 92 760 106 777 q 81 747 86 753 q 75 739 77 741 z "},"_":{"ha":894,"x_min":0,"x_max":894,"o":"m 507 47 q 399 44 463 45 q 278 43 335 43 q 199 45 222 43 q 169 46 192 45 q 115 48 145 47 q 59 51 77 50 q 34 57 41 52 q 20 70 26 61 q 13 82 17 74 q 6 98 9 90 q 1 119 3 109 q 0 149 0 128 q 1 171 0 163 q 2 184 1 179 q 6 194 3 189 q 18 212 12 206 q 38 222 24 218 q 138 236 61 232 q 400 242 215 241 q 683 242 581 245 q 841 230 784 239 q 882 212 870 226 q 893 167 894 197 q 850 71 891 95 q 834 64 844 66 q 808 61 825 62 q 762 58 791 60 q 706 56 736 57 q 654 53 675 54 q 591 50 633 52 q 507 47 549 48 z "},"`":{"ha":211,"x_min":0,"x_max":211,"o":"m 163 739 q 136 734 151 731 q 98 755 121 738 q 65 783 84 765 q 30 817 46 800 q 9 842 14 834 q 8 892 0 862 q 39 948 17 922 q 77 968 60 971 q 123 939 91 964 q 184 884 156 913 q 200 865 195 872 q 207 851 205 859 q 210 839 209 844 q 210 829 211 834 q 207 813 210 823 q 189 769 202 791 q 163 739 176 748 z "},"a":{"ha":656,"x_min":0,"x_max":727,"o":"m 522 89 q 487 83 505 83 q 453 90 468 83 q 381 145 413 107 q 338 230 350 184 q 335 244 336 238 q 333 252 334 251 q 325 247 332 257 q 247 162 289 201 q 176 110 204 123 q 105 112 140 95 q 24 205 45 146 q 45 395 0 289 q 89 461 60 427 q 150 521 118 496 q 194 548 170 536 q 238 566 218 560 q 279 569 256 570 q 321 562 302 568 q 373 531 348 551 q 412 487 398 510 q 418 477 415 481 q 421 473 420 473 q 428 481 422 473 q 441 503 433 490 q 495 568 473 558 q 505 571 500 571 q 519 568 510 571 q 579 527 551 557 q 607 471 607 496 q 601 449 607 465 q 578 399 595 434 q 546 331 557 355 q 530 291 535 306 q 521 262 524 277 q 519 200 510 217 q 530 191 523 191 q 682 308 592 188 q 699 330 692 321 q 709 342 705 338 q 715 347 713 346 q 720 347 718 348 q 727 340 727 347 q 721 317 727 334 q 709 286 715 300 q 694 261 705 278 q 673 229 684 245 q 658 208 663 214 q 651 200 656 205 q 642 188 646 194 q 582 128 616 157 q 522 89 547 99 m 142 187 q 143 186 141 186 q 151 189 145 186 q 166 197 156 191 q 302 318 220 227 q 344 367 322 340 q 380 414 366 393 q 396 437 395 434 q 377 445 394 444 q 339 439 360 445 q 245 376 292 423 q 167 264 199 329 q 156 238 162 254 q 146 207 151 222 q 142 187 142 193 z "},"b":{"ha":586,"x_min":0,"x_max":597,"o":"m 384 53 q 331 44 360 46 q 281 47 302 43 q 159 130 201 68 q 152 141 155 136 q 149 145 149 145 q 143 139 148 145 q 131 125 138 134 q 103 98 114 105 q 82 91 93 90 q 35 112 58 92 q 4 158 12 132 q 6 190 0 170 q 36 257 12 211 q 110 392 60 303 q 150 461 120 410 q 212 565 180 513 q 257 641 243 618 q 358 791 306 719 q 437 894 410 864 q 462 912 454 911 q 484 903 471 914 q 521 867 498 890 q 558 824 543 843 q 568 809 565 814 q 572 801 572 804 q 572 792 573 797 q 571 786 572 789 q 567 777 570 783 q 557 760 564 771 q 538 731 550 749 q 507 684 526 713 q 460 615 488 656 q 400 525 425 561 q 376 487 376 488 q 382 489 376 486 q 395 496 387 492 q 461 517 427 511 q 519 516 495 523 q 574 460 552 505 q 597 356 596 415 q 500 120 593 221 q 448 79 474 94 q 384 53 422 64 m 211 208 q 254 205 226 205 q 503 392 412 221 l 514 415 l 508 417 q 497 419 505 418 q 479 418 489 419 q 323 339 414 416 q 291 311 312 330 q 249 269 271 291 q 211 231 227 247 q 196 213 195 214 q 201 211 197 212 q 211 208 205 210 z "},"c":{"ha":452,"x_min":0,"x_max":503,"o":"m 271 92 q 229 82 252 85 q 187 83 206 80 q 50 153 91 92 q 2 286 0 215 q 100 502 2 399 q 251 580 175 579 q 374 499 332 576 q 368 399 401 449 q 329 393 345 366 q 330 418 320 406 q 337 431 333 424 q 343 444 341 438 q 345 452 346 450 q 337 448 345 453 q 317 434 329 444 q 294 414 306 425 q 184 265 231 352 q 163 200 155 208 q 209 185 176 186 q 284 199 242 185 q 344 225 309 207 q 401 260 380 244 q 472 332 452 299 q 484 349 479 346 q 495 348 489 353 q 503 335 502 344 q 498 310 503 327 q 406 177 474 244 q 271 92 340 114 z "},"d":{"ha":625,"x_min":-9,"x_max":733,"o":"m 478 85 q 437 76 460 77 q 421 76 427 75 q 411 78 416 76 q 399 83 406 79 q 302 227 311 131 q 300 241 301 236 q 298 247 299 247 q 291 238 297 246 q 276 219 284 231 q 119 126 188 98 q 65 159 92 136 q 25 207 38 182 q 18 373 -9 282 q 123 525 46 463 q 245 574 181 567 q 372 524 315 578 q 387 509 381 515 q 393 503 393 503 q 396 508 394 503 q 401 518 398 512 q 463 626 422 560 q 545 750 504 691 q 606 833 585 810 q 626 850 619 847 q 642 847 633 852 q 675 822 654 840 q 715 784 696 803 q 733 761 733 766 q 566 442 733 733 q 488 306 515 354 q 449 233 461 257 q 431 195 437 210 q 422 168 422 174 q 428 161 421 161 q 506 199 449 161 q 571 252 545 226 q 625 322 597 278 q 657 345 649 359 q 660 340 659 343 q 661 333 661 336 q 653 301 661 323 q 635 255 646 279 q 478 85 571 127 m 113 185 q 118 181 115 182 q 129 181 121 180 q 319 368 200 191 q 340 401 330 384 q 355 429 350 418 l 368 454 l 353 454 q 210 387 292 454 q 162 333 186 366 q 125 269 138 300 q 112 220 115 245 q 113 185 109 195 z "},"e":{"ha":410,"x_min":-6,"x_max":467,"o":"m 238 94 q 161 89 201 79 q 111 105 132 95 q 69 133 90 115 q 13 223 31 167 q 34 381 -6 299 q 149 504 74 464 q 244 526 199 529 q 338 489 298 524 q 357 382 400 441 q 214 307 314 319 q 198 303 205 305 q 191 300 192 302 q 184 283 188 296 q 179 257 181 271 q 176 233 176 243 q 187 182 173 196 q 195 175 191 176 q 208 176 199 174 q 333 235 262 184 q 435 334 367 260 l 450 350 l 459 345 q 466 340 464 342 q 466 334 467 338 q 429 265 460 311 q 365 182 399 219 q 305 131 340 155 q 238 94 271 106 m 216 360 q 214 354 214 357 q 214 352 214 352 q 229 356 218 352 q 251 365 240 359 q 269 374 262 370 q 297 398 283 382 q 317 426 312 414 q 321 435 319 431 q 321 439 322 439 q 305 435 319 441 q 275 418 291 429 q 241 390 259 408 q 216 360 222 372 z "},"f":{"ha":391,"x_min":0,"x_max":650,"o":"m 179 -251 q 47 -206 109 -268 q 1 -94 3 -164 q 4 -37 0 -64 q 20 24 8 -11 q 207 347 67 174 q 428 582 332 504 q 461 593 448 600 q 498 543 473 587 q 519 508 513 519 q 526 490 525 496 q 525 479 527 485 q 490 417 521 463 q 393 278 460 372 l 352 222 l 372 202 l 393 182 l 408 182 q 524 230 466 185 q 551 255 534 238 q 587 290 569 272 q 618 322 604 309 q 635 337 631 335 q 647 322 650 345 q 622 263 643 299 q 565 197 603 232 q 492 144 528 163 q 477 137 488 142 q 454 129 467 133 q 435 122 441 124 q 428 117 429 119 q 427 111 427 115 q 428 95 427 108 q 429 66 428 82 q 428 40 429 49 q 426 24 428 31 q 422 7 425 17 q 307 -162 394 -73 q 179 -251 235 -236 m 128 -169 q 127 -176 126 -175 q 135 -176 129 -178 q 182 -153 155 -172 q 232 -109 210 -134 q 350 106 350 26 l 350 127 l 333 134 q 319 141 326 138 q 308 148 312 145 l 300 153 l 275 117 q 163 -73 197 3 q 141 -128 152 -99 q 128 -169 130 -157 z "},"g":{"ha":547,"x_min":0,"x_max":711,"o":"m 279 -240 q 153 -235 214 -256 q 64 -168 104 -216 q 7 -60 24 -120 q 1 -22 1 -36 q 4 9 0 -7 q 13 36 9 28 q 24 43 18 43 q 39 34 31 43 q 52 10 47 24 q 121 -29 60 -24 q 338 66 231 -37 q 392 131 370 99 q 438 211 414 163 l 467 267 l 450 249 q 293 115 353 141 q 178 176 220 90 q 159 302 146 239 q 262 492 176 408 q 438 585 348 579 q 517 568 479 587 q 575 516 554 550 l 583 503 l 597 525 q 643 570 628 570 q 672 555 656 570 q 700 518 688 541 q 701 517 700 517 q 708 498 706 507 q 708 477 711 490 q 697 437 705 463 q 673 364 689 410 q 671 357 672 361 q 638 261 650 294 q 615 201 627 228 q 585 127 604 174 q 458 -115 513 -43 q 417 -162 442 -138 q 370 -201 392 -186 q 279 -240 329 -228 m 257 205 q 256 199 254 200 q 265 199 257 198 q 385 274 309 208 q 439 328 406 293 q 501 394 473 362 q 536 439 529 427 q 537 443 538 442 q 528 442 535 444 q 387 368 461 432 q 316 292 354 339 q 257 205 279 244 z "},"h":{"ha":638,"x_min":0,"x_max":749,"o":"m 131 81 q 124 77 128 79 q 117 75 120 75 q 95 83 109 76 q 68 103 81 91 q 37 283 0 170 q 215 581 73 383 q 315 710 260 644 q 414 825 370 777 q 466 873 458 873 q 487 858 472 873 q 522 818 503 842 q 536 800 528 809 q 548 785 543 790 q 556 773 555 777 q 557 762 558 768 q 554 751 557 758 q 544 733 551 745 q 520 699 536 721 q 479 640 505 677 q 377 495 425 565 q 315 404 330 426 q 317 402 313 399 q 338 418 322 406 q 413 467 373 446 q 461 489 436 479 q 494 500 486 499 q 517 491 503 499 q 543 472 531 484 q 590 379 588 428 q 547 246 591 339 q 528 205 536 224 q 517 181 519 187 q 514 171 515 174 q 514 167 513 168 q 517 166 515 166 q 663 248 574 166 q 715 316 692 274 q 731 339 725 334 q 742 342 736 345 q 741 304 749 338 q 712 230 732 271 q 604 110 677 157 q 491 92 544 72 q 379 216 399 132 q 422 369 363 275 q 432 385 429 378 q 435 392 436 392 q 419 384 433 392 q 389 366 405 376 q 186 170 281 292 q 150 119 160 135 q 139 95 139 102 q 137 87 139 90 q 131 81 136 84 z "},"i":{"ha":336,"x_min":0,"x_max":397,"o":"m 206 100 q 52 144 131 65 q 7 216 19 177 q 0 266 0 238 q 8 315 1 293 q 47 397 20 351 q 105 482 73 443 q 143 524 122 503 q 177 551 165 545 q 197 555 186 555 q 215 553 208 556 q 258 510 239 539 q 279 455 277 481 q 276 436 279 447 q 260 404 272 425 q 225 344 248 382 q 149 197 163 239 q 146 188 146 191 q 146 183 146 184 q 150 182 147 182 q 165 182 153 180 q 190 187 176 184 q 213 195 203 191 q 287 243 245 208 q 362 319 329 278 q 382 341 376 337 q 393 337 389 345 q 396 329 396 333 q 394 317 397 325 q 369 265 389 298 q 325 201 350 233 q 267 141 298 168 q 206 100 235 114 m 318 547 q 288 542 303 541 q 261 549 272 542 q 241 579 248 558 q 238 619 235 600 q 289 680 251 663 q 352 671 326 696 q 367 629 365 655 q 358 585 368 604 q 339 563 351 574 q 318 547 328 551 z "},"j":{"ha":228,"x_min":0,"x_max":817,"o":"m 273 -232 q 229 -237 252 -236 q 189 -235 205 -238 q 19 -63 70 -210 q 3 15 5 -22 q 9 73 0 52 q 81 41 35 119 q 92 24 86 31 q 100 15 97 18 q 152 3 119 3 q 214 13 186 3 q 276 49 244 25 q 330 100 308 73 q 367 150 349 123 q 410 226 385 178 q 479 361 435 275 q 531 463 512 428 q 561 515 549 498 q 583 545 572 532 q 652 571 620 586 q 682 546 669 564 q 699 510 696 528 q 698 497 700 503 q 690 481 696 492 q 652 402 666 437 q 618 302 637 366 q 392 -159 516 -49 q 273 -232 330 -220 m 766 587 q 736 582 751 581 q 709 589 720 583 q 690 620 696 598 q 686 660 683 641 q 737 720 699 703 q 800 711 774 737 q 815 669 813 695 q 806 625 817 644 q 788 603 800 614 q 766 587 776 591 z "},"k":{"ha":574,"x_min":0,"x_max":687,"o":"m 395 61 q 365 58 376 58 q 334 61 353 58 q 204 203 223 66 l 202 215 l 170 176 q 141 139 156 159 q 117 105 126 119 q 100 80 106 87 q 88 72 94 72 q 73 77 82 71 q 46 99 61 83 q 25 128 32 115 q 20 243 0 180 q 178 543 56 367 q 420 853 338 774 l 448 880 l 456 876 q 486 847 465 872 q 532 787 507 821 q 543 769 539 776 q 548 759 547 763 q 549 752 549 755 q 492 664 546 736 q 447 601 477 642 q 386 515 418 559 q 331 438 354 471 q 304 400 307 406 q 317 410 298 392 q 462 491 406 491 q 490 486 479 491 q 509 467 500 480 q 525 396 525 438 q 510 313 526 353 q 410 198 475 232 q 391 190 400 193 q 376 185 381 186 q 370 178 356 182 q 420 175 385 175 q 464 179 445 175 q 505 195 484 184 q 654 330 582 233 q 673 311 687 368 q 577 157 650 235 q 492 89 534 111 q 395 61 450 66 m 317 339 q 299 321 306 328 q 294 313 293 313 q 302 314 296 313 q 317 317 309 315 q 392 349 355 325 q 452 406 429 374 l 458 414 l 452 416 q 317 339 404 421 z "},"l":{"ha":342,"x_min":0,"x_max":471,"o":"m 184 99 q 68 124 129 78 q 0 275 1 177 q 157 627 1 387 q 273 781 211 707 q 361 870 334 855 q 408 860 380 880 q 450 818 433 844 q 469 770 467 793 q 468 749 471 760 q 453 718 465 737 q 419 662 442 698 q 357 569 396 627 q 242 393 281 454 q 176 281 203 332 q 158 245 168 267 q 140 207 148 224 q 132 188 132 190 q 135 188 132 188 q 142 187 138 187 q 278 245 191 187 q 312 269 296 256 q 347 302 327 282 q 376 330 366 321 q 391 341 386 339 q 398 340 395 343 q 355 257 407 330 q 267 159 317 205 q 184 99 218 113 z "},"m":{"ha":894,"x_min":0,"x_max":989,"o":"m 803 87 q 789 81 795 83 q 775 79 783 79 q 754 78 768 78 q 726 78 736 77 q 705 82 715 79 q 603 157 628 103 q 650 334 568 214 q 715 439 700 410 l 722 453 l 709 446 q 591 347 669 425 q 519 266 533 289 q 471 204 495 232 q 429 165 446 176 q 354 181 395 144 q 328 261 316 216 q 380 359 338 293 q 417 417 406 400 q 426 435 427 435 q 415 430 425 435 q 392 415 405 424 q 367 399 378 407 q 322 359 352 388 q 262 298 293 331 q 213 242 231 265 q 181 200 199 224 q 151 157 163 176 q 133 130 139 140 q 124 116 127 121 q 122 107 122 111 q 122 100 121 104 q 109 79 126 79 q 66 96 90 79 q 6 220 0 140 q 167 515 15 325 q 261 597 234 600 q 284 592 271 597 q 309 577 298 586 q 343 539 328 561 q 361 499 358 517 l 363 488 l 377 496 q 413 516 394 507 q 444 528 433 525 q 500 513 469 532 q 543 471 524 498 q 568 422 563 445 q 569 415 568 419 q 570 410 570 412 q 596 429 572 407 q 716 515 674 499 q 742 519 728 519 q 766 515 756 519 q 793 500 779 510 q 816 481 807 490 q 824 469 819 476 q 831 456 829 462 q 838 438 836 446 q 838 414 839 431 q 777 241 841 351 q 747 187 755 203 q 741 170 739 170 q 747 168 742 169 q 760 168 753 168 q 830 191 791 168 q 896 240 869 215 q 956 309 924 266 q 974 331 966 321 q 983 340 982 340 q 989 330 988 340 q 986 309 989 321 q 916 182 963 246 q 803 87 864 114 z "},"n":{"ha":759,"x_min":0,"x_max":855,"o":"m 591 65 q 492 72 534 52 q 396 210 408 113 q 487 448 380 290 q 500 467 494 457 q 509 481 506 476 l 515 491 l 506 490 q 463 471 492 486 q 414 441 435 456 q 194 217 317 372 q 142 150 160 174 q 119 114 125 126 q 117 96 114 102 q 117 83 121 90 q 85 80 110 72 q 37 111 61 89 q 10 149 20 127 l 0 170 l 0 207 q 4 256 0 239 q 24 309 8 273 q 103 445 53 370 q 197 566 153 519 q 237 596 222 591 q 275 589 253 601 q 311 562 293 580 q 338 527 330 544 q 340 465 355 494 q 334 452 336 457 q 332 446 332 446 q 339 452 332 446 q 359 468 347 458 q 503 553 429 526 q 552 558 532 564 q 596 528 572 553 q 637 431 639 485 q 625 367 638 405 q 575 252 612 330 q 549 194 556 211 q 544 176 542 176 q 583 173 556 169 q 644 190 610 176 q 828 336 738 225 q 850 340 846 356 q 810 253 855 318 q 740 168 780 210 q 669 104 700 126 q 629 80 651 91 q 591 65 608 69 z "},"o":{"ha":564,"x_min":0,"x_max":621,"o":"m 218 81 q 182 79 203 78 q 144 83 160 79 q 56 136 95 98 q 5 218 18 173 q 1 266 0 239 q 8 315 1 292 q 90 448 34 389 q 202 522 146 508 q 218 527 212 524 q 231 536 224 530 q 336 563 278 576 q 415 513 378 552 q 455 459 444 485 q 466 396 467 433 q 446 304 467 351 l 437 281 l 450 283 q 463 285 455 284 q 478 286 471 286 q 546 305 510 290 q 601 337 583 320 q 611 346 607 342 q 617 349 616 349 q 620 344 618 348 q 621 335 621 340 q 562 256 621 295 q 422 203 504 218 q 402 200 412 201 q 390 199 393 199 q 378 193 385 199 q 354 171 370 187 q 327 146 342 159 q 302 125 313 133 q 259 98 283 111 q 218 81 235 85 m 140 184 q 140 178 138 179 q 147 179 141 177 q 190 195 167 183 q 231 224 213 208 l 245 237 l 239 246 q 230 279 231 260 q 237 307 229 298 l 243 313 l 272 305 l 300 298 l 307 307 q 380 464 380 401 q 379 474 380 471 q 377 479 379 477 q 370 483 375 481 q 348 486 363 485 q 316 485 332 486 q 294 481 300 484 l 286 478 l 293 465 q 298 416 307 435 q 287 402 296 413 q 266 378 278 391 q 140 184 155 260 z "},"p":{"ha":621,"x_min":0,"x_max":792,"o":"m 151 -248 q 104 -240 134 -255 q 50 -197 73 -224 q 14 -53 0 -141 q 65 83 20 -4 q 210 326 110 171 q 324 491 267 416 q 407 587 381 566 q 429 597 420 596 q 452 590 438 597 q 488 563 470 581 q 514 526 505 545 q 521 508 519 515 q 523 491 523 500 q 526 476 523 475 q 533 481 527 477 q 547 492 539 486 q 586 518 565 505 q 624 538 607 530 q 643 544 633 542 q 665 546 652 545 q 681 546 675 547 q 691 545 687 546 q 703 540 696 543 q 760 474 734 524 q 778 334 792 410 q 589 90 744 170 q 464 59 520 54 q 350 111 398 62 q 336 125 342 119 q 330 130 330 130 q 316 106 328 128 q 285 53 303 84 q 250 -8 267 22 q 222 -58 233 -39 q 161 -177 176 -142 q 153 -221 146 -212 q 156 -237 157 -230 q 151 -248 156 -245 m 363 186 q 362 182 361 183 q 369 182 363 182 q 432 201 390 182 q 673 446 602 287 l 677 455 l 668 455 q 602 429 643 454 q 515 361 560 404 q 463 306 497 344 q 399 233 429 269 q 363 186 370 197 z "},"q":{"ha":699,"x_min":0,"x_max":649,"o":"m 311 -256 q 233 -256 279 -269 q 155 -212 186 -243 q 131 -178 138 -194 q 123 -139 124 -161 q 241 174 118 -40 q 254 197 249 188 q 260 207 260 207 q 254 203 260 208 q 240 193 248 199 q 219 179 231 187 q 196 166 206 172 q 172 156 180 158 q 149 153 163 153 q 129 153 137 152 q 111 157 121 154 q 45 205 74 172 q 5 281 17 239 q 2 333 0 303 q 12 387 4 363 q 105 521 38 469 q 369 593 250 636 q 421 562 397 583 q 458 518 446 541 l 465 505 l 479 522 q 530 567 514 562 q 570 550 543 570 q 589 534 576 545 q 615 510 602 523 q 639 487 629 497 q 649 476 649 477 q 634 447 649 474 q 597 382 619 420 q 553 308 575 345 q 447 133 482 192 q 395 43 412 75 q 360 -25 378 11 q 304 -197 309 -134 q 304 -210 304 -205 q 307 -217 305 -214 q 313 -225 309 -220 q 311 -256 331 -246 m 121 218 q 121 212 120 212 q 130 212 123 211 q 265 290 187 222 q 335 358 294 316 q 409 437 376 400 q 442 479 442 474 q 433 484 442 482 q 412 484 424 485 q 345 463 382 479 q 276 424 308 447 q 121 218 151 330 z "},"r":{"ha":557,"x_min":0,"x_max":665,"o":"m 376 74 q 260 73 317 55 q 175 138 204 91 q 159 175 163 158 q 157 218 155 192 q 190 325 157 269 q 193 330 191 328 q 203 349 198 340 q 218 371 208 357 q 245 409 227 384 q 296 479 264 435 q 311 499 303 488 q 330 526 323 515 q 336 538 337 537 q 323 537 334 538 q 298 532 313 535 q 269 527 283 529 q 250 525 255 525 l 237 525 l 219 494 q 86 313 156 385 q 53 285 64 291 q 28 283 41 279 q 8 293 16 287 q 0 306 0 300 q 0 309 0 307 q 3 315 1 311 q 11 326 5 319 q 26 345 16 333 q 50 376 35 357 q 157 527 101 443 l 175 554 l 165 568 q 158 580 161 574 q 154 591 155 587 q 168 639 152 611 q 204 678 184 667 q 283 669 233 691 q 316 645 302 659 q 330 620 330 631 q 328 612 330 618 q 322 598 326 606 l 314 581 l 353 583 l 391 585 l 412 576 q 473 431 509 538 q 451 380 465 408 q 403 297 436 352 q 368 238 380 260 q 351 205 355 216 q 347 188 346 193 q 353 180 348 183 q 359 177 356 178 q 367 177 362 176 q 380 178 372 177 q 426 192 397 181 q 484 216 455 203 q 611 308 548 248 q 643 335 632 328 q 658 340 653 342 q 662 323 665 336 q 648 295 659 311 q 588 225 623 262 q 524 163 552 187 q 465 120 494 140 q 420 92 436 100 q 399 83 412 88 q 376 74 387 78 z "},"s":{"ha":420,"x_min":0,"x_max":515,"o":"m 190 49 q 14 122 65 23 q 5 145 7 136 q 2 169 3 154 q 20 229 0 208 q 68 267 36 248 q 137 296 101 285 q 154 300 147 298 q 162 303 161 302 q 159 305 162 304 q 152 307 157 306 q 105 355 125 317 q 85 435 85 394 q 133 544 85 499 q 215 605 168 582 q 259 624 241 618 q 294 629 276 629 q 316 627 309 629 q 332 621 323 626 q 383 545 369 600 q 370 463 398 479 q 359 460 363 459 q 351 466 355 460 q 320 465 345 473 q 264 437 296 456 q 207 395 233 418 q 196 385 200 389 q 193 380 192 380 q 205 373 193 379 q 235 357 217 366 q 267 340 252 349 q 287 327 281 331 l 298 317 l 342 315 q 499 279 463 309 q 506 254 515 264 q 484 253 503 252 q 442 252 473 254 q 380 249 411 251 q 341 244 349 246 q 337 242 338 243 q 336 235 336 240 q 336 216 336 229 q 333 168 338 188 q 310 125 327 148 q 256 79 291 102 q 190 49 221 57 m 66 178 q 89 182 66 174 q 138 202 111 190 q 184 227 165 215 l 194 233 l 183 231 q 145 221 168 228 q 109 208 123 214 q 91 198 100 204 q 74 186 81 191 q 66 178 66 180 z "},"t":{"ha":359,"x_min":0,"x_max":583,"o":"m 220 87 q 113 95 163 74 q 37 162 62 115 q 41 341 0 237 q 155 552 73 419 l 173 581 l 126 582 q 87 584 99 582 q 72 590 75 585 q 70 606 69 595 q 85 640 71 633 q 116 644 91 642 q 168 647 142 646 q 205 647 195 648 l 215 646 l 246 688 q 383 848 337 812 q 425 850 400 862 q 499 792 450 838 q 520 771 514 779 q 526 759 526 764 q 519 744 525 753 q 505 719 516 736 q 481 682 494 702 l 450 637 l 486 632 q 568 614 548 624 q 574 587 583 608 q 573 585 573 586 q 565 573 570 576 q 547 568 561 569 q 504 568 534 568 q 500 568 502 568 q 452 569 474 568 q 422 569 430 569 l 403 570 l 359 507 q 226 302 279 390 q 173 198 173 214 q 217 179 173 174 q 264 194 235 182 q 311 218 292 206 q 379 270 347 242 q 425 319 410 298 q 435 332 431 327 q 441 337 439 337 q 444 335 442 337 q 448 330 446 334 q 398 221 456 299 q 220 87 313 113 z "},"u":{"ha":660,"x_min":-19,"x_max":704,"o":"m 501 101 q 486 98 494 99 q 473 97 478 97 q 438 103 458 97 q 398 119 418 109 q 313 213 337 151 q 311 215 313 215 q 305 212 309 215 q 293 201 301 208 q 224 149 252 163 q 165 134 195 134 q 92 155 129 135 q 34 205 56 174 q 25 222 30 212 q 16 242 20 233 q 70 488 -19 347 q 120 554 94 526 q 158 587 145 583 q 166 588 161 587 q 178 587 172 588 q 243 552 210 582 q 277 498 277 522 q 239 416 277 484 q 181 305 198 343 q 158 227 165 267 q 157 210 154 210 q 170 215 160 210 q 191 228 179 220 q 212 243 202 236 q 246 274 223 252 q 291 318 269 296 q 320 350 313 340 q 330 364 324 354 q 340 385 335 374 q 419 503 370 441 q 505 587 469 564 q 583 564 538 606 q 614 513 614 536 q 609 493 614 506 q 591 456 604 481 q 554 388 578 431 q 484 200 454 212 q 500 200 488 198 q 527 206 512 201 q 553 216 541 211 q 599 248 572 227 q 645 289 626 269 q 675 320 664 309 q 690 334 686 330 q 698 338 695 338 q 703 336 702 338 q 704 328 704 334 q 670 256 704 307 q 590 159 635 206 q 544 119 563 132 q 501 101 524 106 z "},"v":{"ha":718,"x_min":-22,"x_max":785,"o":"m 212 86 q 194 84 201 84 q 182 84 188 83 q 166 86 176 84 q 86 122 124 94 q 28 188 47 150 q 85 433 -22 279 q 237 617 189 587 q 288 604 256 625 q 338 547 319 582 q 343 496 354 516 q 329 474 341 492 q 302 435 317 457 q 184 241 214 313 q 174 216 177 224 q 171 205 171 208 q 174 205 172 203 q 186 211 177 206 q 208 224 195 216 q 276 274 237 242 q 345 334 315 305 q 378 374 375 363 q 384 393 380 388 q 394 397 387 397 q 400 397 397 396 q 409 405 404 399 q 425 422 414 410 q 527 575 508 519 q 533 594 531 588 q 538 601 536 600 q 546 604 541 603 q 601 572 568 604 q 637 472 646 522 q 611 414 632 450 q 560 338 591 378 l 543 316 l 606 317 q 660 320 642 318 q 691 324 679 321 q 737 338 715 330 q 765 352 759 346 q 771 356 769 355 q 775 355 773 357 q 779 323 785 346 q 723 269 770 293 q 611 236 676 244 q 555 234 587 233 q 501 240 524 235 l 479 245 l 454 222 q 212 86 322 103 z "},"w":{"ha":983,"x_min":0,"x_max":1060,"o":"m 555 85 q 355 155 448 60 q 331 183 340 171 q 317 212 323 196 l 311 230 l 290 206 q 231 149 262 175 q 181 113 201 122 q 151 105 169 107 q 120 107 134 104 q 14 213 37 130 q 47 366 0 282 q 86 423 58 385 q 138 491 114 461 q 172 528 152 507 q 211 566 193 549 q 238 590 229 584 q 319 569 275 618 q 355 484 365 519 q 271 354 351 472 q 221 279 252 327 q 173 203 190 231 l 166 192 l 175 198 q 218 235 189 208 q 283 298 248 262 q 323 340 312 326 q 341 366 335 354 q 389 432 358 397 q 445 485 420 467 q 460 493 454 491 q 475 495 466 495 q 520 478 496 495 q 557 436 545 460 q 564 402 567 418 q 543 352 562 386 q 471 205 478 229 q 468 194 469 199 q 467 189 467 189 q 479 194 468 188 q 505 207 491 199 q 529 222 519 215 q 644 334 586 259 q 656 350 652 344 q 662 358 661 355 q 661 364 663 361 q 659 372 660 367 q 659 381 659 377 q 677 392 659 402 l 686 387 l 700 406 q 740 466 720 434 q 774 523 760 498 q 787 555 787 548 q 786 560 787 557 q 782 566 785 563 q 777 577 777 572 q 785 589 778 583 q 793 595 789 593 q 804 595 797 596 q 848 573 825 591 q 884 529 871 555 q 892 509 890 516 q 893 486 894 501 q 844 353 893 435 l 836 339 l 859 337 q 958 342 896 335 q 1006 352 982 345 q 1037 364 1030 359 q 1055 358 1049 377 q 1057 334 1060 345 q 1042 313 1054 323 q 918 264 1004 277 q 815 264 867 256 q 797 267 804 266 q 788 267 791 267 q 783 265 785 267 q 775 256 782 263 q 761 238 769 248 q 709 184 740 214 q 653 136 679 155 q 603 104 630 119 q 555 85 575 90 z "},"x":{"ha":426,"x_min":0,"x_max":635,"o":"m 380 70 q 319 69 351 64 q 265 85 288 73 q 240 105 253 92 q 220 134 228 119 q 207 166 213 146 q 201 196 201 186 q 201 202 201 199 q 199 204 200 204 q 181 194 197 204 q 146 169 166 183 q 109 140 127 154 q 82 119 91 127 q 69 105 72 109 q 67 98 66 101 q 70 83 71 90 q 66 73 69 75 q 49 78 60 72 q 29 94 37 85 q 21 106 26 98 q 12 123 16 114 q 4 143 6 134 q 1 165 1 152 q 1 188 0 180 q 5 205 2 195 q 170 347 21 260 l 217 376 l 227 422 q 241 500 237 474 q 243 545 245 527 q 243 560 243 555 q 244 568 243 566 q 247 572 245 571 q 294 587 260 585 q 375 553 355 591 q 389 485 389 524 l 389 467 l 435 490 q 479 512 456 500 q 520 534 503 525 q 549 550 536 544 q 563 555 561 555 q 577 534 572 552 q 577 497 581 515 q 570 483 575 490 q 552 463 565 475 q 493 413 534 446 q 406 348 452 381 q 400 344 403 346 q 380 328 387 334 q 372 313 374 322 q 370 286 370 304 q 369 277 370 282 q 376 196 367 232 q 408 177 382 177 q 527 247 450 179 q 557 274 543 261 q 575 292 570 287 q 601 323 591 312 q 614 338 610 334 q 622 340 619 342 q 626 334 624 339 q 575 221 635 303 q 531 169 553 192 q 481 123 509 146 q 427 85 448 96 q 380 70 407 74 z "},"y":{"ha":557,"x_min":0,"x_max":711,"o":"m 277 -230 q 135 -205 207 -243 q 53 -136 90 -180 q 5 -47 17 -92 q 0 -14 1 -31 q 4 8 0 3 q 34 -3 15 15 q 73 -35 56 -26 q 117 -43 90 -43 q 302 63 202 -43 q 416 203 363 122 l 431 224 l 408 203 q 329 152 364 160 q 252 168 294 144 q 184 299 180 210 q 200 370 186 330 q 231 441 213 410 q 331 568 288 534 q 344 576 339 574 q 357 578 349 578 q 398 563 376 578 q 437 528 421 549 q 454 492 454 508 q 452 485 454 488 q 447 474 451 481 q 433 454 442 467 q 410 422 425 442 q 368 360 384 387 q 337 304 352 334 q 310 238 319 267 q 307 210 300 210 q 315 214 308 210 q 333 224 323 218 q 511 417 401 271 q 571 500 553 473 q 598 547 589 527 q 609 569 604 559 q 616 580 614 578 q 659 571 631 589 q 701 524 686 553 q 705 468 711 505 q 677 354 700 432 q 570 81 634 211 q 277 -230 433 -191 z "},"z":{"ha":513,"x_min":0,"x_max":465,"o":"m 446 101 q 440 96 442 98 q 437 94 437 94 q 431 98 434 94 q 427 110 429 103 q 421 123 426 119 q 403 132 417 127 q 234 133 342 149 q 136 118 173 123 q 81 111 100 113 q 54 111 62 109 q 41 115 45 112 q 8 163 22 127 q 2 182 4 174 q 1 205 1 191 q 14 260 0 235 q 62 318 28 285 q 141 382 93 348 q 241 446 189 417 l 250 452 l 244 454 q 232 456 241 455 q 212 459 223 458 q 158 456 183 464 q 100 425 133 448 q 85 417 92 420 q 77 413 79 413 q 56 430 67 413 q 38 469 45 446 q 60 555 25 517 q 195 617 117 614 q 247 608 220 618 q 313 572 273 598 q 340 556 326 565 q 364 542 354 547 q 379 533 374 536 q 388 531 385 530 q 394 533 391 531 q 429 530 414 543 q 447 489 441 517 q 450 435 454 461 q 439 403 448 418 q 410 369 431 389 q 348 316 389 349 l 293 273 l 319 271 q 401 249 363 269 q 460 192 450 226 q 461 142 465 170 q 446 101 456 115 z "},"{":{"ha":581,"x_min":0,"x_max":581,"o":"m 157 -12 q 95 -8 119 -20 q 42 39 66 5 q 7 110 18 72 q 1 152 2 130 q 3 189 0 173 q 47 274 13 233 q 159 372 82 315 q 196 401 178 386 q 226 429 214 417 q 238 444 238 441 q 205 450 238 452 q 191 449 196 449 q 184 450 186 449 q 178 454 181 451 q 166 471 171 460 q 161 489 161 481 q 162 495 161 492 q 166 500 163 498 q 176 508 169 503 q 197 527 189 517 q 216 551 206 536 q 238 599 229 569 q 261 694 248 629 q 278 766 269 731 q 295 821 288 800 q 429 965 342 939 q 500 948 464 975 q 547 890 528 928 q 550 791 581 822 q 541 784 544 785 q 536 784 538 783 q 527 795 531 787 q 520 812 522 802 q 518 820 519 817 q 515 822 517 822 q 511 821 514 823 q 477 803 495 817 q 446 771 460 789 q 415 716 433 753 q 385 646 397 680 q 296 489 343 523 q 287 480 290 484 q 283 475 283 477 q 287 468 284 474 q 293 454 289 462 q 302 378 310 414 q 271 308 295 344 q 258 291 265 300 q 234 264 250 282 q 184 210 217 245 q 158 180 171 195 q 140 157 146 165 q 117 123 127 141 q 104 96 106 104 l 102 89 l 123 91 q 148 94 132 92 q 177 98 163 96 q 222 101 209 104 q 243 82 236 98 q 226 26 258 56 q 157 -12 197 -3 z "},"|":{"ha":405,"x_min":0,"x_max":405,"o":"m 110 18 q 50 20 84 7 q 3 57 15 33 q 1 65 1 62 q 1 76 0 69 q 4 97 2 83 q 10 124 7 109 q 15 150 13 140 q 30 206 19 166 q 54 289 41 245 q 75 361 66 333 q 140 568 119 501 q 178 686 161 634 q 245 879 224 825 q 271 932 256 905 q 292 966 285 959 q 300 972 296 970 q 313 972 304 973 q 387 937 353 970 q 401 917 397 927 q 402 890 405 907 q 391 841 400 873 q 319 594 369 756 q 218 280 269 432 q 144 73 167 127 q 130 41 136 52 q 120 26 125 31 q 110 18 116 21 z "},"}":{"ha":574,"x_min":0,"x_max":574,"o":"m 145 -5 q 45 18 75 -15 q 6 132 0 70 q 47 175 12 175 q 67 167 58 176 q 93 136 77 159 q 112 108 102 121 q 130 86 122 95 q 139 76 137 77 q 147 89 142 75 q 157 124 152 103 q 165 164 162 144 q 169 209 167 179 q 174 275 172 239 q 223 439 178 399 q 253 461 235 451 q 288 476 271 471 l 297 478 l 297 509 q 308 575 296 541 q 349 671 319 610 q 377 730 367 706 q 394 779 387 755 q 400 802 399 791 q 401 833 401 812 q 400 856 401 847 q 399 869 400 864 q 395 881 398 875 q 385 894 388 901 q 376 888 382 890 q 362 883 370 885 q 349 882 355 882 q 342 884 343 882 q 367 940 339 920 q 387 953 378 949 q 410 962 395 957 q 560 921 518 996 q 572 844 574 888 q 548 743 571 793 q 465 604 526 693 q 419 530 433 555 q 400 485 405 505 q 395 456 396 470 q 396 422 395 442 q 397 409 397 414 q 396 403 397 405 q 393 398 395 401 q 367 387 382 390 q 345 389 352 384 q 339 395 343 390 q 329 406 334 400 q 304 421 310 429 q 303 379 302 414 q 309 303 304 344 q 315 227 314 256 q 315 175 317 197 q 185 4 304 43 q 165 -2 176 1 q 145 -5 153 -5 z "},"~":{"ha":357,"x_min":0,"x_max":357,"o":"m 283 360 q 199 406 244 336 q 180 431 187 422 q 169 441 174 439 q 157 444 163 444 q 106 427 139 442 q 50 393 73 411 q 32 382 39 384 q 21 386 26 381 q 3 430 7 401 q 9 487 0 460 q 17 502 12 494 q 33 520 22 509 q 125 567 81 569 q 144 566 138 568 q 161 559 151 565 q 186 541 175 553 q 212 505 198 528 q 225 487 219 494 q 233 476 231 479 q 280 487 250 463 q 293 500 288 493 q 307 525 298 507 q 323 553 317 547 q 337 555 330 559 q 354 519 350 547 q 349 460 357 490 q 333 411 340 427 q 311 382 325 395 q 297 369 304 375 q 283 360 289 363 z "},"¡":{"ha":640,"x_min":0,"x_max":640,"o":"m 526 964 q 565 965 541 973 q 614 933 590 956 q 637 886 640 909 q 625 855 636 876 q 597 812 614 835 q 562 773 576 783 q 531 768 547 764 q 488 790 509 773 q 456 827 467 806 q 455 857 449 839 q 484 911 460 875 q 526 964 509 952 m 397 751 q 452 749 424 770 q 471 732 462 743 q 484 713 480 722 q 484 659 493 690 q 385 460 463 597 q 357 409 372 437 q 330 361 341 381 q 227 186 286 279 q 142 44 165 86 q 130 25 136 33 q 122 14 125 16 q 86 17 109 5 q 43 54 64 29 q 14 108 22 79 q 71 279 0 152 q 326 665 159 434 q 373 728 357 709 q 397 751 388 746 z "},"¢":{"ha":588,"x_min":0,"x_max":588,"o":"m 78 97 q 71 90 74 92 q 62 88 68 88 q 45 94 53 88 q 37 133 22 107 q 48 152 40 138 q 63 180 56 166 q 73 197 71 193 q 72 200 73 197 q 67 206 70 203 q 14 327 28 256 q 36 532 0 418 q 159 754 80 661 q 325 874 237 848 q 345 879 336 878 q 368 880 355 880 q 483 831 431 882 l 497 818 l 506 828 q 560 880 551 880 q 576 870 567 880 q 587 849 585 860 q 587 843 588 846 q 582 835 585 840 q 571 821 579 831 q 553 797 563 810 l 530 767 l 536 751 q 536 645 552 699 q 520 619 529 619 q 493 637 507 619 q 476 677 479 656 q 473 686 475 687 q 457 667 471 686 q 424 621 443 648 q 387 568 405 593 q 370 543 379 555 q 355 522 361 530 q 303 445 340 499 q 239 349 267 391 q 217 314 225 326 q 201 289 209 301 q 182 258 194 277 l 164 231 l 167 222 q 176 202 170 211 q 187 191 182 193 q 211 191 195 189 q 239 197 227 193 q 301 228 270 207 q 375 291 332 250 q 399 312 388 303 q 416 325 410 321 l 429 332 l 439 327 q 458 303 456 319 q 446 262 461 287 q 420 226 434 243 q 382 184 406 208 q 310 127 342 144 q 243 111 279 111 q 123 154 190 110 q 119 156 121 155 q 117 156 118 156 q 112 148 117 155 q 101 131 108 141 q 88 111 94 120 q 78 97 81 101 m 173 378 q 169 361 171 368 q 168 355 168 355 q 180 372 169 355 q 208 416 192 390 q 238 462 217 431 q 281 527 258 493 q 319 581 304 560 q 406 701 342 614 q 421 721 414 713 q 428 731 427 730 q 421 730 429 734 q 402 719 414 726 q 382 705 391 712 q 316 643 351 683 q 254 561 281 603 q 173 378 199 471 z "},"£":{"ha":592,"x_min":0,"x_max":592,"o":"m 509 20 q 490 12 497 14 q 471 9 482 9 q 366 35 418 8 q 314 70 341 49 q 248 127 288 90 q 227 146 235 138 q 217 154 218 154 q 212 149 217 154 q 199 137 206 144 q 81 75 136 75 q 22 102 43 75 q 1 149 2 122 q 40 233 0 202 q 138 252 80 263 q 150 250 144 251 q 159 248 156 248 q 163 248 161 247 q 168 252 165 248 q 174 264 170 256 q 203 332 192 300 q 227 410 215 363 l 239 458 l 222 460 q 209 461 215 460 q 201 464 203 463 q 190 483 193 469 q 190 514 187 498 q 199 539 192 530 q 237 555 210 550 q 250 557 245 556 q 256 559 255 559 q 260 575 257 560 q 269 612 264 591 q 291 712 278 661 q 313 794 304 764 q 420 945 353 913 q 432 951 427 949 q 444 953 437 953 q 460 954 450 954 q 482 952 475 954 q 497 947 489 951 q 567 873 541 928 q 584 817 581 843 q 575 779 586 791 q 555 782 566 769 q 538 821 543 795 l 534 835 l 524 833 q 478 808 502 832 q 397 610 427 764 q 390 576 393 590 q 387 561 387 562 q 412 553 387 557 q 487 513 469 541 q 491 505 490 509 q 491 494 492 500 q 485 475 490 484 q 475 462 480 466 q 470 460 471 460 q 466 464 468 461 q 463 467 465 466 q 456 469 460 468 q 441 470 451 469 q 415 471 432 470 l 369 472 l 367 462 q 341 372 353 407 q 315 308 330 338 q 291 260 305 286 q 263 216 276 235 q 254 202 258 208 q 251 196 251 197 q 266 183 251 194 q 300 161 281 173 q 333 143 319 150 q 375 128 356 132 q 415 125 393 123 q 435 126 429 125 q 450 132 442 128 q 535 217 505 161 q 550 238 545 237 q 587 196 570 241 q 591 178 590 187 q 592 152 592 170 q 591 125 592 134 q 586 106 590 117 q 509 20 563 49 m 37 132 q 39 127 37 129 q 44 126 41 126 q 65 133 51 126 q 91 150 79 140 q 110 169 100 157 q 127 190 120 180 q 133 201 134 199 q 126 203 132 202 q 113 205 120 204 q 44 173 63 207 q 37 152 39 163 q 37 132 35 140 z "},"¤":{"ha":390,"x_min":0,"x_max":390,"o":"m 259 229 q 250 224 254 226 q 244 222 246 222 q 220 250 235 222 l 212 267 l 184 267 q 145 272 162 267 q 109 287 129 276 l 94 295 l 75 283 q 43 271 54 270 q 23 289 32 272 q 20 319 14 307 q 24 326 20 321 q 32 334 28 330 l 43 344 l 35 359 q 47 518 0 423 q 61 543 54 530 q 75 563 69 555 q 83 575 81 571 q 86 582 86 579 q 85 588 86 585 q 112 638 75 623 q 128 641 122 642 q 138 633 134 640 l 144 625 l 155 631 q 169 636 160 633 q 186 642 178 640 q 201 646 196 645 q 211 647 207 648 q 224 645 216 647 q 327 581 284 634 l 335 571 l 348 579 q 378 581 370 594 q 387 562 384 574 q 389 543 390 550 q 384 530 387 535 q 369 517 380 526 l 357 506 l 356 480 q 294 319 353 384 l 277 302 l 282 286 q 286 264 287 271 q 276 245 283 255 q 259 229 268 235 m 134 334 q 138 328 136 330 q 147 327 140 327 q 202 345 172 327 q 253 391 233 363 q 293 490 286 439 q 281 577 301 541 l 275 587 l 262 574 q 215 530 239 554 q 182 491 192 505 q 133 362 138 422 q 133 345 132 353 q 134 334 133 336 z "},"¥":{"ha":731,"x_min":0,"x_max":731,"o":"m 267 12 q 251 8 262 9 q 227 7 239 7 q 210 9 215 7 q 134 71 157 28 q 124 104 129 83 q 119 136 119 125 q 119 139 119 138 q 115 140 118 140 q 105 142 112 141 q 87 143 99 142 q 53 147 62 144 q 42 157 44 150 q 46 184 39 169 q 64 206 53 199 q 75 209 66 208 q 97 212 85 210 l 125 214 l 127 222 l 128 230 l 107 230 q 47 240 56 231 q 44 265 41 248 q 56 295 47 281 q 86 312 64 305 q 138 318 109 318 l 155 319 l 165 342 q 177 366 170 353 q 188 389 183 379 q 195 409 199 412 q 187 403 193 408 q 174 393 181 398 q 141 371 153 376 q 114 366 129 366 q 44 400 79 365 q 4 498 3 440 q 165 821 0 607 q 220 889 198 863 q 261 935 241 915 q 286 957 277 951 q 302 963 295 964 q 321 957 310 963 q 369 912 349 942 q 385 859 388 882 q 301 736 383 844 q 187 582 223 635 q 133 494 151 530 q 122 469 122 472 q 136 475 123 466 q 180 510 155 489 q 231 553 206 531 q 315 632 266 585 q 405 719 363 678 q 459 774 446 760 q 507 825 477 794 q 566 882 537 855 q 608 920 594 909 q 642 944 628 937 q 666 949 655 950 q 707 922 688 947 q 725 869 731 894 q 673 774 721 847 q 515 547 626 701 q 448 450 483 500 q 392 369 413 400 q 367 332 376 346 q 353 310 357 317 q 348 299 349 302 q 349 296 347 296 q 359 293 351 295 q 376 288 367 290 q 408 275 399 282 q 418 258 418 268 q 413 239 418 248 q 401 225 408 230 q 391 226 395 221 q 386 229 389 228 q 373 230 382 229 q 345 230 363 230 l 304 230 l 298 222 q 302 208 290 208 q 321 204 306 208 q 352 196 337 201 q 373 189 367 192 q 389 176 382 185 q 396 159 396 166 q 394 150 396 155 q 389 141 392 145 q 383 135 386 136 q 379 135 381 135 q 375 136 377 135 q 365 137 373 136 q 346 138 357 138 q 319 139 335 138 q 288 140 302 140 l 255 142 l 246 119 q 234 81 239 100 q 229 50 230 62 q 231 43 229 45 q 239 42 233 42 q 255 38 246 41 q 269 29 263 35 q 273 20 274 25 q 267 12 273 15 z "},"¦":{"ha":186,"x_min":0,"x_max":186,"o":"m 106 -123 q 75 -126 94 -126 q 47 -123 56 -127 q 11 -48 23 -115 q 2 65 4 -15 q 1 319 0 144 q 24 973 4 781 q 30 1016 27 1001 q 38 1039 33 1031 q 50 1050 42 1046 q 114 1061 75 1065 q 168 1041 149 1058 q 169 1040 168 1041 q 179 1030 176 1036 q 184 1011 182 1024 q 186 969 186 998 q 186 891 186 941 q 186 885 186 888 q 185 763 186 831 q 182 646 184 696 q 173 409 176 494 q 166 260 170 323 q 157 109 163 197 q 152 29 154 64 q 149 -18 149 -7 q 125 -113 143 -98 q 117 -118 122 -115 q 106 -123 112 -121 z "},"§":{"ha":630,"x_min":0,"x_max":630,"o":"m 205 10 q 59 48 126 -12 q 27 84 45 62 q 4 119 10 106 q 1 129 2 123 q 0 137 0 134 q 2 143 1 142 q 8 145 3 145 q 14 145 12 146 q 21 140 17 144 q 33 130 25 137 q 44 120 40 123 q 52 116 48 117 q 62 115 56 115 q 121 133 90 115 q 169 177 151 151 q 177 192 173 183 q 184 210 181 201 q 189 224 187 218 q 190 239 190 231 q 190 262 191 247 q 188 300 190 281 q 179 359 186 320 q 166 463 167 430 q 178 525 166 496 q 222 591 191 561 q 274 633 247 616 q 321 654 300 650 q 332 657 330 656 q 334 661 334 659 q 333 673 333 663 q 332 699 332 684 q 363 832 331 774 q 421 905 385 871 q 490 950 457 939 q 507 954 499 953 q 526 954 515 954 q 558 946 545 953 q 587 924 572 939 q 607 896 600 910 q 622 860 615 882 q 627 813 630 833 q 611 791 624 793 q 593 810 601 789 q 589 818 591 816 q 586 821 588 821 q 580 821 584 822 q 458 720 527 813 q 417 633 426 675 q 418 531 408 591 q 422 440 428 472 q 393 389 417 409 q 327 368 370 366 q 304 368 312 367 q 288 374 297 370 q 287 374 288 374 q 271 381 276 379 q 266 381 267 382 q 264 376 264 380 q 264 375 264 375 q 267 358 264 372 q 273 328 269 345 q 281 290 277 310 q 288 254 285 269 q 281 79 313 139 q 249 36 270 55 q 205 10 228 18 m 271 422 q 270 419 269 420 q 274 418 271 418 q 285 418 277 418 q 340 435 317 418 q 370 488 368 452 q 368 518 370 500 q 360 548 365 536 l 358 555 l 344 539 q 286 456 307 500 q 276 435 280 444 q 271 422 271 425 z "},"¨":{"ha":0,"x_min":0,"x_max":0,"o":""},"©":{"ha":656,"x_min":0,"x_max":656,"o":"m 350 186 q 300 180 331 182 q 250 181 269 179 q 31 334 98 207 q 4 479 0 396 q 45 637 5 562 q 192 801 100 743 q 382 849 284 859 q 443 835 414 846 q 492 810 473 825 q 503 803 495 808 q 521 793 511 798 q 583 745 559 772 q 648 541 656 667 q 608 400 644 471 q 350 186 517 230 m 226 235 q 412 288 315 225 q 583 553 550 387 q 586 609 587 578 q 580 662 585 639 q 522 758 564 722 l 511 767 l 481 767 q 341 730 409 767 q 132 455 178 637 q 127 428 128 441 q 126 393 126 416 q 130 343 126 362 q 145 301 134 325 q 226 235 172 243 m 308 317 q 237 335 271 302 q 195 454 185 383 q 228 535 200 493 q 323 623 267 595 q 466 582 419 665 q 472 529 483 551 q 469 520 470 524 q 467 515 467 516 q 463 510 467 511 q 455 513 459 509 q 445 528 449 519 q 442 544 441 537 l 444 552 l 431 551 q 381 528 410 547 q 328 483 351 509 q 272 387 289 435 q 274 364 263 364 q 290 368 278 364 q 317 378 302 372 q 341 390 331 385 q 350 391 346 393 q 359 384 353 390 q 366 376 364 379 q 366 367 367 372 q 362 358 365 362 q 354 349 360 354 q 308 317 326 323 z "},"ª":{"ha":335,"x_min":0,"x_max":335,"o":"m 237 731 q 232 728 235 730 q 225 726 229 727 q 203 732 216 725 q 180 749 189 739 q 164 773 171 758 q 157 795 157 787 q 146 795 158 809 q 123 775 137 786 q 99 759 109 764 q 26 777 62 741 q 9 802 14 790 q 3 829 3 813 q 16 891 0 860 q 64 956 33 928 q 130 994 95 984 q 163 997 146 998 q 191 991 180 996 q 211 977 201 987 q 227 956 220 967 l 233 945 l 248 958 q 328 970 302 1010 q 334 961 332 965 q 335 951 335 957 q 333 938 335 944 q 323 921 331 932 q 297 886 315 909 q 224 757 233 800 q 223 750 222 753 q 229 746 224 748 q 237 738 235 743 q 237 731 239 734 m 77 814 q 73 804 75 808 q 72 800 71 800 q 97 815 77 800 q 137 848 117 830 q 183 892 165 875 q 197 910 200 910 q 190 908 196 910 q 177 903 184 906 q 77 814 113 876 z "},"«":{"ha":773,"x_min":0,"x_max":773,"o":"m 397 300 q 383 294 393 295 q 351 297 374 293 q 283 313 328 302 q 110 351 178 339 q 34 369 49 362 q 2 446 6 383 q 13 509 0 481 q 60 564 26 536 q 109 600 81 583 q 191 646 136 617 q 308 705 268 687 q 365 721 348 722 q 389 705 381 720 q 399 642 401 682 q 390 593 398 612 q 362 559 381 574 q 243 479 328 530 q 235 475 239 477 q 217 464 224 469 q 203 456 209 460 q 194 451 197 453 q 189 448 191 449 q 187 446 187 446 q 187 445 186 446 q 188 445 187 445 q 188 444 188 444 q 195 443 189 444 q 207 439 200 441 q 261 422 229 433 q 315 403 293 411 q 401 348 387 374 q 406 323 407 337 q 397 300 404 309 m 763 300 q 749 294 759 295 q 717 297 740 293 q 649 313 694 302 q 476 351 544 339 q 400 369 415 362 q 368 446 372 383 q 379 509 366 481 q 427 564 393 536 q 475 600 447 583 q 557 646 503 617 q 674 705 634 687 q 730 721 714 722 q 755 705 747 720 q 765 642 767 682 q 755 593 764 612 q 728 559 747 574 q 609 479 693 530 q 602 475 605 477 q 583 464 591 469 q 569 456 575 460 q 560 451 564 453 q 555 448 557 449 q 553 446 553 446 q 553 445 553 446 q 554 445 553 445 q 554 444 554 444 q 561 443 555 444 q 573 439 566 441 q 627 422 595 433 q 681 403 659 411 q 768 348 753 374 q 772 323 773 337 q 763 300 770 309 z "},"¬":{"ha":570,"x_min":0,"x_max":570,"o":"m 0 520 l 570 520 l 570 187 l 569 186 l 503 186 l 503 452 l 0 452 l 0 520 z "},"®":{"ha":629,"x_min":0,"x_max":629,"o":"m 333 358 q 282 355 312 355 q 235 358 253 355 q 107 423 159 375 q 45 696 0 532 q 65 745 52 717 q 94 793 79 772 q 134 839 110 815 q 179 878 157 862 q 229 907 199 892 q 279 929 259 922 q 346 940 309 938 q 412 937 383 943 q 443 929 427 935 q 469 917 458 923 q 480 910 473 914 q 496 903 488 906 q 621 758 595 856 q 626 733 625 745 q 627 703 627 722 q 596 568 629 635 q 485 431 557 488 q 333 358 413 374 m 220 407 q 296 409 253 401 q 378 437 338 417 q 450 486 414 455 q 511 552 486 517 q 570 688 557 618 q 572 736 573 709 q 567 780 572 763 q 544 829 559 806 q 511 862 529 851 l 500 868 l 471 866 q 413 858 435 863 q 363 841 391 852 q 237 751 296 812 q 169 658 193 706 q 134 528 132 588 q 167 434 132 467 q 189 417 177 423 q 220 407 201 410 m 387 479 q 355 480 381 465 q 313 515 334 493 q 286 555 293 537 l 283 564 l 262 543 q 216 511 228 507 q 201 520 210 512 q 189 538 193 528 q 184 562 184 547 q 189 592 184 577 q 246 693 203 631 q 331 796 289 754 q 354 812 346 812 q 375 800 363 812 q 401 736 400 773 l 401 719 l 414 726 q 497 740 474 755 q 521 695 515 726 q 519 639 528 665 q 511 625 516 631 q 496 608 506 618 q 477 591 486 597 q 453 578 468 585 q 413 562 431 567 q 368 557 395 557 l 338 555 l 357 539 q 378 518 372 526 q 387 497 385 509 q 389 487 389 490 q 387 479 389 483 m 389 642 q 399 642 371 631 q 416 650 406 645 q 433 660 425 654 q 445 668 441 665 q 447 671 450 671 q 438 667 446 671 q 421 659 431 664 q 402 650 411 654 q 389 642 393 645 z "},"¯":{"ha":0,"x_min":0,"x_max":0,"o":""},"°":{"ha":279,"x_min":0,"x_max":279,"o":"m 152 734 q 43 765 94 714 q 0 857 0 805 q 4 890 0 877 q 115 1013 35 968 q 185 1032 157 1035 q 241 1000 213 1029 q 279 912 279 966 q 261 843 279 876 q 212 776 242 806 q 152 734 182 746 m 81 806 l 90 801 q 172 851 128 807 q 216 916 203 885 q 219 930 218 922 q 222 947 221 939 q 222 961 222 956 q 220 965 222 966 q 129 890 167 934 q 81 806 91 847 z "},"±":{"ha":485,"x_min":0,"x_max":485,"o":"m 126 247 q 80 245 104 246 q 43 245 56 245 q 22 245 28 245 q 12 247 15 245 q 7 250 9 248 q 2 276 0 259 q 12 309 3 293 q 32 331 20 326 q 109 342 52 338 q 232 344 167 345 q 342 337 298 343 q 390 327 376 332 q 407 313 405 321 q 404 289 410 302 q 384 267 397 275 q 368 259 378 262 q 335 256 358 257 q 267 252 313 254 q 189 250 229 251 q 126 247 149 248 m 211 365 q 197 359 203 359 q 179 365 190 359 q 158 380 168 370 q 144 401 148 391 q 146 469 134 431 q 152 483 150 477 q 153 490 153 489 q 143 491 152 490 q 121 492 134 492 q 91 495 101 494 q 77 498 81 496 q 71 503 73 500 q 67 510 68 506 q 67 521 66 513 q 81 558 69 539 q 106 585 92 577 q 113 588 108 587 q 128 589 118 589 q 157 589 138 589 l 202 589 l 225 628 q 259 684 243 659 q 283 718 275 709 q 289 722 286 721 q 298 724 292 724 q 313 721 307 724 q 331 711 319 718 q 374 656 364 688 q 372 636 376 648 q 354 600 368 625 q 344 580 347 587 q 342 571 341 573 q 348 569 343 569 q 371 564 353 568 q 410 555 389 560 q 441 547 431 550 q 483 524 481 534 q 473 498 485 511 q 446 480 461 484 q 342 481 425 475 q 307 484 321 483 q 290 484 292 484 q 281 470 289 483 q 262 438 273 457 q 231 387 243 404 q 211 365 220 370 z "},"²":{"ha":296,"x_min":0,"x_max":296,"o":"m 111 623 q 16 634 44 608 q 6 653 11 640 q 0 674 1 666 q 4 689 0 681 q 15 703 8 697 q 39 717 22 709 q 71 728 56 724 q 93 732 79 730 q 117 736 106 734 l 145 739 l 159 755 q 173 772 165 762 q 186 791 180 783 q 204 820 195 803 q 219 849 213 836 q 223 865 224 863 q 217 867 222 866 q 206 867 212 867 q 132 830 165 866 q 114 818 120 817 q 101 833 108 819 q 115 916 82 878 q 175 954 140 943 q 236 952 210 964 q 286 834 285 924 q 281 790 286 810 q 264 746 276 770 q 255 728 258 735 q 253 720 252 720 q 270 709 259 717 q 286 692 280 701 q 294 681 292 686 q 296 671 296 677 q 280 661 296 642 q 234 679 268 673 l 218 682 l 208 673 q 111 623 170 640 z "},"³":{"ha":241,"x_min":0,"x_max":241,"o":"m 165 618 q 134 612 153 614 q 102 614 115 611 q 90 617 97 614 q 75 625 82 621 q 24 663 44 640 q 2 708 5 686 q 4 724 0 720 q 19 723 7 727 q 28 719 23 721 q 36 715 33 717 q 65 705 47 710 q 97 699 83 700 q 158 710 130 696 l 174 717 l 168 722 q 115 735 154 732 q 87 740 94 736 q 77 757 81 744 q 83 790 70 779 q 94 799 85 793 q 113 812 103 805 q 176 863 162 843 l 184 873 l 178 875 q 170 876 175 876 q 160 875 165 876 q 69 833 117 869 q 58 825 63 829 q 50 822 52 822 q 30 843 40 822 q 81 947 5 907 q 150 962 119 965 q 230 882 214 960 q 199 786 241 829 l 185 772 l 195 763 q 218 718 212 748 q 165 618 233 643 z "},"´":{"ha":211,"x_min":0,"x_max":211,"o":"m 88 736 q 61 731 73 729 q 37 747 50 733 q 17 776 26 758 q 4 810 7 793 q 1 826 1 821 q 1 837 0 832 q 4 848 2 842 q 11 863 6 856 q 26 881 16 869 q 88 936 56 910 q 134 965 120 962 q 172 945 151 968 q 202 889 194 920 q 202 840 211 859 q 174 806 195 827 q 127 764 152 784 q 88 736 103 744 z "},"µ":{"ha":0,"x_min":0,"x_max":0,"o":""},"¶":{"ha":567,"x_min":0,"x_max":567,"o":"m 567 973 l 567 926 l 481 926 l 481 0 l 425 0 l 425 926 l 313 926 l 313 0 l 256 0 l 256 500 q 69 570 138 506 q 0 736 0 634 q 73 908 0 843 q 267 973 146 973 l 567 973 z "},"·":{"ha":244,"x_min":0,"x_max":244,"o":"m 142 354 q 40 386 86 339 q 0 477 0 423 q 22 546 0 517 q 73 592 42 576 q 135 605 104 608 q 170 592 150 603 q 205 568 191 582 q 244 484 244 534 q 215 404 244 440 q 142 354 186 367 z "},"∙":{"ha":244,"x_min":0,"x_max":244,"o":"m 142 354 q 40 386 86 339 q 0 477 0 423 q 22 546 0 517 q 73 592 42 576 q 135 605 104 608 q 170 592 150 603 q 205 568 191 582 q 244 484 244 534 q 215 404 244 440 q 142 354 186 367 z "},"¸":{"ha":214,"x_min":0,"x_max":214,"o":"m 153 -241 q 141 -247 146 -245 q 128 -249 136 -248 q 106 -250 121 -250 q 69 -249 81 -250 q 46 -241 57 -247 q 13 -217 26 -231 q 0 -193 0 -203 q 26 -178 0 -176 q 82 -161 54 -178 q 97 -149 89 -157 q 111 -135 105 -142 q 117 -125 117 -127 q 113 -119 117 -123 q 101 -111 108 -115 q 68 -56 68 -92 q 85 -11 68 -29 q 148 4 113 19 q 165 -9 156 -1 q 176 -22 174 -17 q 156 -77 179 -35 q 147 -94 151 -87 q 143 -102 143 -101 q 148 -107 143 -103 q 160 -118 153 -112 q 193 -204 214 -163 q 178 -224 189 -214 q 153 -241 167 -235 z "},"¹":{"ha":259,"x_min":0,"x_max":259,"o":"m 54 639 q 43 631 48 634 q 35 627 37 627 q 22 636 31 627 q 10 653 14 644 q 26 727 0 681 q 65 783 40 750 q 114 844 90 817 q 124 857 120 851 q 130 863 129 862 q 124 863 130 865 q 107 857 117 861 q 77 848 87 849 q 57 854 66 848 q 42 873 48 861 q 36 894 35 885 l 37 903 l 61 911 q 90 922 72 915 q 124 937 108 929 q 159 950 141 943 q 189 962 177 958 q 205 967 199 966 q 214 969 211 969 q 220 968 218 969 q 250 930 236 961 q 257 912 256 919 q 259 892 259 905 q 258 873 259 880 q 251 855 256 866 q 225 815 243 839 q 189 770 208 792 q 146 728 175 756 q 91 673 118 700 q 54 639 64 647 z "},"º":{"ha":289,"x_min":0,"x_max":289,"o":"m 151 635 q 122 630 139 631 q 94 633 106 629 q 47 659 69 642 q 16 698 26 677 q 5 768 0 732 q 74 901 20 839 q 184 973 128 964 q 248 939 222 976 q 256 929 252 935 q 264 918 260 923 q 283 884 278 901 q 289 843 289 868 q 211 680 289 764 q 179 651 192 661 q 151 635 165 641 m 103 690 q 104 682 101 682 q 121 689 108 682 q 192 754 157 710 q 237 837 226 798 q 239 855 239 845 q 240 871 240 865 q 238 878 239 878 q 221 863 236 878 q 189 828 205 847 q 161 795 172 808 q 122 735 138 764 q 103 690 106 707 z "},"»":{"ha":773,"x_min":0,"x_max":773,"o":"m 77 279 q 48 271 57 272 q 33 273 39 270 q 8 342 8 285 q 23 410 7 385 q 90 467 39 434 q 125 489 104 475 q 164 513 146 502 q 172 517 168 515 q 190 528 182 523 q 204 536 198 532 q 213 541 210 539 q 218 545 216 543 q 220 546 220 546 q 220 547 220 547 q 219 547 220 547 q 219 548 219 548 q 212 550 218 548 q 200 553 207 551 q 146 570 178 559 q 92 589 114 581 q 5 644 20 618 q 2 670 0 655 q 10 693 3 684 q 37 698 16 700 q 112 682 58 696 q 296 641 215 656 q 376 622 364 629 q 405 547 401 606 q 392 481 407 507 q 274 378 362 428 q 158 316 218 347 q 77 279 98 286 m 444 279 q 414 271 423 272 q 399 273 405 270 q 374 342 374 285 q 389 410 373 385 q 456 467 406 434 q 491 489 470 475 q 530 513 511 502 q 538 517 534 515 q 556 528 549 523 q 570 536 564 532 q 578 541 575 539 q 584 545 582 543 q 586 546 586 546 q 586 547 587 547 q 585 547 586 547 q 585 548 585 548 q 578 550 583 548 q 566 553 573 551 q 512 570 544 559 q 458 589 480 581 q 372 644 386 618 q 368 670 366 655 q 376 693 370 684 q 403 698 382 700 q 478 682 425 696 q 663 641 581 656 q 742 622 730 629 q 770 547 767 606 q 758 481 773 507 q 640 378 728 428 q 525 316 585 347 q 444 279 465 286 z "},"¼":{"ha":1158,"x_min":0,"x_max":0,"o":""},"½":{"ha":1332,"x_min":0,"x_max":0,"o":""},"¾":{"ha":1158,"x_min":0,"x_max":0,"o":""},"¿":{"ha":617,"x_min":-3,"x_max":614,"o":"m 493 683 q 555 681 517 693 q 610 647 593 669 q 613 630 614 640 q 605 597 612 619 q 563 540 588 545 q 511 542 540 534 q 463 568 482 550 q 463 644 435 590 q 493 683 479 676 m 425 503 q 446 505 431 508 q 480 490 461 501 q 508 466 494 481 q 530 435 522 451 l 539 416 l 539 381 q 538 349 539 359 q 532 327 536 339 q 456 199 511 257 q 409 156 437 178 q 327 99 381 134 q 276 65 300 81 q 243 42 252 49 q 90 -143 119 -53 q 85 -167 85 -159 q 91 -178 85 -174 q 129 -192 104 -189 q 181 -192 154 -196 q 222 -182 199 -189 q 262 -166 244 -175 q 369 -79 323 -134 q 423 26 415 -25 q 424 37 425 33 q 419 45 422 41 q 414 53 417 48 q 411 60 412 57 q 435 83 404 86 q 494 52 465 78 q 536 -6 524 25 q 541 -40 541 -20 q 536 -75 541 -60 q 479 -158 520 -117 q 385 -226 439 -199 q 205 -271 301 -269 q 136 -268 162 -273 q 86 -245 110 -262 q 60 -222 71 -235 q 35 -187 48 -209 q 3 -108 12 -149 q 5 -25 -3 -71 q 33 61 13 21 q 181 216 72 146 q 215 237 195 224 q 250 260 235 250 q 370 372 334 313 q 391 409 382 390 q 408 457 399 428 q 416 484 413 475 q 421 497 419 493 q 425 503 422 500 z "},"À":{"ha":1067,"x_min":0,"x_max":1011,"o":"m 937 -5 q 915 -9 926 -7 q 886 -10 904 -10 q 838 -7 857 -12 q 793 9 818 -3 q 683 127 701 51 q 675 186 676 151 q 678 250 674 221 q 688 298 682 272 q 700 342 694 325 l 705 355 l 699 354 q 684 351 697 353 q 652 345 670 349 q 577 330 577 331 q 573 323 576 329 q 564 308 570 317 q 368 87 469 147 q 216 56 296 47 q 58 156 119 65 q 3 313 6 232 q 12 372 0 362 q 19 376 16 375 q 31 375 22 376 q 41 373 37 374 q 51 366 45 371 q 69 349 57 361 q 118 311 100 320 q 168 300 137 301 q 194 300 184 300 q 218 304 204 301 q 435 437 336 330 q 485 496 465 469 q 528 565 505 524 q 561 625 549 601 q 586 677 573 648 q 612 733 597 702 q 637 788 626 764 q 653 821 649 813 q 657 829 656 826 q 659 833 659 833 q 647 837 657 834 q 624 842 637 839 q 598 847 611 845 q 579 850 586 850 q 524 851 553 853 q 469 841 494 848 q 413 817 440 833 q 369 783 385 800 q 360 773 363 777 q 354 762 357 768 q 345 744 351 755 q 334 732 340 733 q 295 762 315 729 q 276 831 276 795 q 380 948 276 911 q 476 964 425 964 q 556 956 519 964 q 654 922 594 947 q 677 913 667 918 q 692 908 688 909 l 701 905 l 715 922 q 766 954 740 947 q 784 951 774 955 q 799 941 793 947 q 805 925 804 935 q 803 905 806 916 l 800 895 l 822 892 q 861 885 845 890 q 895 871 876 881 q 1001 739 978 831 q 1006 720 1004 728 q 1007 702 1007 712 q 1008 674 1008 692 q 1007 638 1008 652 q 1002 609 1006 624 q 975 520 996 572 q 905 360 955 468 q 869 273 879 303 q 857 210 859 243 q 871 105 850 150 q 968 50 899 46 q 1008 41 1000 52 q 1011 37 1011 39 q 1008 31 1010 35 q 991 20 1004 26 q 964 6 979 13 q 937 -5 949 -1 m 644 458 q 665 456 650 456 q 699 459 681 457 q 729 463 716 462 q 739 465 735 465 l 750 466 l 791 556 q 827 637 814 608 q 847 687 840 667 q 859 730 854 707 q 868 783 869 766 q 855 812 867 800 q 836 825 846 822 q 805 827 825 828 q 774 823 783 826 q 765 813 766 821 q 723 671 739 724 q 689 573 706 618 q 675 538 685 562 q 657 491 666 514 q 644 458 648 467 m 929 935 q 902 930 916 927 q 863 951 887 934 q 831 979 850 961 q 795 1013 812 996 q 775 1038 779 1030 q 774 1088 766 1058 q 805 1144 783 1118 q 843 1164 825 1167 q 889 1135 857 1160 q 950 1080 922 1109 q 966 1061 961 1068 q 972 1047 970 1055 q 976 1035 975 1040 q 976 1025 977 1030 q 972 1009 975 1019 q 955 965 968 987 q 929 935 942 944 z "},"Á":{"ha":1067,"x_min":0,"x_max":1035,"o":"m 937 -5 q 915 -9 926 -7 q 886 -10 904 -10 q 838 -7 857 -12 q 793 9 818 -3 q 683 127 701 51 q 675 186 676 151 q 678 250 674 221 q 688 298 682 272 q 700 342 694 325 l 705 355 l 699 354 q 684 351 697 353 q 652 345 670 349 q 577 330 577 331 q 573 323 576 329 q 564 308 570 317 q 368 87 469 147 q 216 56 296 47 q 58 156 119 65 q 3 313 6 232 q 12 372 0 362 q 19 376 16 375 q 31 375 22 376 q 41 373 37 374 q 51 366 45 371 q 69 349 57 361 q 118 311 100 320 q 168 300 137 301 q 194 300 184 300 q 218 304 204 301 q 435 437 336 330 q 485 496 465 469 q 528 565 505 524 q 561 625 549 601 q 586 677 573 648 q 612 733 597 702 q 637 788 626 764 q 653 821 649 813 q 657 829 656 826 q 659 833 659 833 q 647 837 657 834 q 624 842 637 839 q 598 847 611 845 q 579 850 586 850 q 524 851 553 853 q 469 841 494 848 q 413 817 440 833 q 369 783 385 800 q 360 773 363 777 q 354 762 357 768 q 345 744 351 755 q 334 732 340 733 q 295 762 315 729 q 276 831 276 795 q 380 948 276 911 q 476 964 425 964 q 556 956 519 964 q 654 922 594 947 q 677 913 667 918 q 692 908 688 909 l 701 905 l 715 922 q 766 954 740 947 q 784 951 774 955 q 799 941 793 947 q 805 925 804 935 q 803 905 806 916 l 800 895 l 822 892 q 861 885 845 890 q 895 871 876 881 q 1001 739 978 831 q 1006 720 1004 728 q 1007 702 1007 712 q 1008 674 1008 692 q 1007 638 1008 652 q 1002 609 1006 624 q 975 520 996 572 q 905 360 955 468 q 869 273 879 303 q 857 210 859 243 q 871 105 850 150 q 968 50 899 46 q 1008 41 1000 52 q 1011 37 1011 39 q 1008 31 1010 35 q 991 20 1004 26 q 964 6 979 13 q 937 -5 949 -1 m 644 458 q 665 456 650 456 q 699 459 681 457 q 729 463 716 462 q 739 465 735 465 l 750 466 l 791 556 q 827 637 814 608 q 847 687 840 667 q 859 730 854 707 q 868 783 869 766 q 855 812 867 800 q 836 825 846 822 q 805 827 825 828 q 774 823 783 826 q 765 813 766 821 q 723 671 739 724 q 689 573 706 618 q 675 538 685 562 q 657 491 666 514 q 644 458 648 467 m 871 928 q 845 958 858 937 q 827 1002 833 979 q 825 1017 825 1012 q 825 1028 824 1023 q 828 1040 825 1033 q 834 1054 829 1047 q 850 1072 839 1061 q 911 1127 879 1101 q 957 1156 944 1153 q 996 1137 975 1160 q 1026 1081 1018 1111 q 1025 1030 1035 1050 q 1005 1006 1021 1023 q 970 971 989 989 q 937 944 951 954 q 899 923 913 926 q 871 928 884 920 z "},"Â":{"ha":1067,"x_min":0,"x_max":1011,"o":"m 937 -5 q 915 -9 926 -7 q 886 -10 904 -10 q 838 -7 857 -12 q 793 9 818 -3 q 683 127 701 51 q 675 186 676 151 q 678 250 674 221 q 688 298 682 272 q 700 342 694 325 l 705 355 l 699 354 q 684 351 697 353 q 652 345 670 349 q 577 330 577 331 q 573 323 576 329 q 564 308 570 317 q 368 87 469 147 q 216 56 296 47 q 58 156 119 65 q 3 313 6 232 q 12 372 0 362 q 19 376 16 375 q 31 375 22 376 q 41 373 37 374 q 51 366 45 371 q 69 349 57 361 q 118 311 100 320 q 168 300 137 301 q 194 300 184 300 q 218 304 204 301 q 435 437 336 330 q 485 496 465 469 q 528 565 505 524 q 561 625 549 601 q 586 677 573 648 q 612 733 597 702 q 637 788 626 764 q 653 821 649 813 q 657 829 656 826 q 659 833 659 833 q 647 837 657 834 q 624 842 637 839 q 598 847 611 845 q 579 850 586 850 q 524 851 553 853 q 469 841 494 848 q 413 817 440 833 q 369 783 385 800 q 360 773 363 777 q 354 762 357 768 q 345 744 351 755 q 334 732 340 733 q 295 762 315 729 q 276 831 276 795 q 380 948 276 911 q 476 964 425 964 q 556 956 519 964 q 654 922 594 947 q 677 913 667 918 q 692 908 688 909 l 701 905 l 715 922 q 766 954 740 947 q 784 951 774 955 q 799 941 793 947 q 805 925 804 935 q 803 905 806 916 l 800 895 l 822 892 q 861 885 845 890 q 895 871 876 881 q 1001 739 978 831 q 1006 720 1004 728 q 1007 702 1007 712 q 1008 674 1008 692 q 1007 638 1008 652 q 1002 609 1006 624 q 975 520 996 572 q 905 360 955 468 q 869 273 879 303 q 857 210 859 243 q 871 105 850 150 q 968 50 899 46 q 1008 41 1000 52 q 1011 37 1011 39 q 1008 31 1010 35 q 991 20 1004 26 q 964 6 979 13 q 937 -5 949 -1 m 644 458 q 665 456 650 456 q 699 459 681 457 q 729 463 716 462 q 739 465 735 465 l 750 466 l 791 556 q 827 637 814 608 q 847 687 840 667 q 859 730 854 707 q 868 783 869 766 q 855 812 867 800 q 836 825 846 822 q 805 827 825 828 q 774 823 783 826 q 765 813 766 821 q 723 671 739 724 q 689 573 706 618 q 675 538 685 562 q 657 491 666 514 q 644 458 648 467 m 983 949 q 957 953 974 937 q 945 968 952 958 q 928 1000 939 979 q 903 1043 909 1038 q 895 1047 900 1045 q 884 1048 890 1048 q 747 970 830 1051 q 720 949 726 949 q 700 960 711 949 q 681 988 689 972 q 673 1018 673 1004 q 678 1041 673 1029 q 696 1069 684 1053 q 787 1143 732 1117 q 846 1158 817 1158 q 953 1069 913 1158 q 983 949 998 977 z "},"Ã":{"ha":1067,"x_min":0,"x_max":1061,"o":"m 937 -5 q 915 -9 926 -7 q 886 -10 904 -10 q 838 -7 857 -12 q 793 9 818 -3 q 683 127 701 51 q 675 186 676 151 q 678 250 674 221 q 688 298 682 272 q 700 342 694 325 l 705 355 l 699 354 q 684 351 697 353 q 652 345 670 349 q 577 330 577 331 q 573 323 576 329 q 564 308 570 317 q 368 87 469 147 q 216 56 296 47 q 58 156 119 65 q 3 313 6 232 q 12 372 0 362 q 19 376 16 375 q 31 375 22 376 q 41 373 37 374 q 51 366 45 371 q 69 349 57 361 q 118 311 100 320 q 168 300 137 301 q 194 300 184 300 q 218 304 204 301 q 435 437 336 330 q 485 496 465 469 q 528 565 505 524 q 561 625 549 601 q 586 677 573 648 q 612 733 597 702 q 637 788 626 764 q 653 821 649 813 q 657 829 656 826 q 659 833 659 833 q 647 837 657 834 q 624 842 637 839 q 598 847 611 845 q 579 850 586 850 q 524 851 553 853 q 469 841 494 848 q 413 817 440 833 q 369 783 385 800 q 360 773 363 777 q 354 762 357 768 q 345 744 351 755 q 334 732 340 733 q 295 762 315 729 q 276 831 276 795 q 380 948 276 911 q 476 964 425 964 q 556 956 519 964 q 654 922 594 947 q 677 913 667 918 q 692 908 688 909 l 701 905 l 715 922 q 766 954 740 947 q 784 951 774 955 q 799 941 793 947 q 805 925 804 935 q 803 905 806 916 l 800 895 l 822 892 q 861 885 845 890 q 895 871 876 881 q 1001 739 978 831 q 1006 720 1004 728 q 1007 702 1007 712 q 1008 674 1008 692 q 1007 638 1008 652 q 1002 609 1006 624 q 975 520 996 572 q 905 360 955 468 q 869 273 879 303 q 857 210 859 243 q 871 105 850 150 q 968 50 899 46 q 1008 41 1000 52 q 1011 37 1011 39 q 1008 31 1010 35 q 991 20 1004 26 q 964 6 979 13 q 937 -5 949 -1 m 644 458 q 665 456 650 456 q 699 459 681 457 q 729 463 716 462 q 739 465 735 465 l 750 466 l 791 556 q 827 637 814 608 q 847 687 840 667 q 859 730 854 707 q 868 783 869 766 q 855 812 867 800 q 836 825 846 822 q 805 827 825 828 q 774 823 783 826 q 765 813 766 821 q 723 671 739 724 q 689 573 706 618 q 675 538 685 562 q 657 491 666 514 q 644 458 648 467 m 997 995 q 971 990 984 990 q 949 994 958 989 q 911 1037 932 1002 q 894 1061 901 1056 q 877 1062 887 1065 q 817 1019 839 1052 q 801 1002 807 1004 q 788 1008 795 1000 q 778 1043 780 1020 q 781 1085 775 1066 q 839 1146 798 1131 q 909 1133 879 1161 q 917 1123 911 1131 q 927 1106 922 1115 q 937 1091 932 1098 q 944 1083 942 1084 q 964 1082 949 1081 q 1027 1127 1004 1086 q 1046 1143 1038 1149 q 1060 1103 1059 1133 q 1050 1046 1061 1073 q 1026 1016 1042 1031 q 997 995 1010 1000 z "},"Ä":{"ha":1067,"x_min":0,"x_max":1118,"o":"m 937 -5 q 915 -9 926 -7 q 886 -10 904 -10 q 838 -7 857 -12 q 793 9 818 -3 q 683 127 701 51 q 675 186 676 151 q 678 250 674 221 q 688 298 682 272 q 700 342 694 325 l 705 355 l 699 354 q 684 351 697 353 q 652 345 670 349 q 577 330 577 331 q 573 323 576 329 q 564 308 570 317 q 368 87 469 147 q 216 56 296 47 q 58 156 119 65 q 3 313 6 232 q 12 372 0 362 q 19 376 16 375 q 31 375 22 376 q 41 373 37 374 q 51 366 45 371 q 69 349 57 361 q 118 311 100 320 q 168 300 137 301 q 194 300 184 300 q 218 304 204 301 q 435 437 336 330 q 485 496 465 469 q 528 565 505 524 q 561 625 549 601 q 586 677 573 648 q 612 733 597 702 q 637 788 626 764 q 653 821 649 813 q 657 829 656 826 q 659 833 659 833 q 647 837 657 834 q 624 842 637 839 q 598 847 611 845 q 579 850 586 850 q 524 851 553 853 q 469 841 494 848 q 413 817 440 833 q 369 783 385 800 q 360 773 363 777 q 354 762 357 768 q 345 744 351 755 q 334 732 340 733 q 295 762 315 729 q 276 831 276 795 q 380 948 276 911 q 476 964 425 964 q 556 956 519 964 q 654 922 594 947 q 677 913 667 918 q 692 908 688 909 l 701 905 l 715 922 q 766 954 740 947 q 784 951 774 955 q 799 941 793 947 q 805 925 804 935 q 803 905 806 916 l 800 895 l 822 892 q 861 885 845 890 q 895 871 876 881 q 1001 739 978 831 q 1006 720 1004 728 q 1007 702 1007 712 q 1008 674 1008 692 q 1007 638 1008 652 q 1002 609 1006 624 q 975 520 996 572 q 905 360 955 468 q 869 273 879 303 q 857 210 859 243 q 871 105 850 150 q 968 50 899 46 q 1008 41 1000 52 q 1011 37 1011 39 q 1008 31 1010 35 q 991 20 1004 26 q 964 6 979 13 q 937 -5 949 -1 m 644 458 q 665 456 650 456 q 699 459 681 457 q 729 463 716 462 q 739 465 735 465 l 750 466 l 791 556 q 827 637 814 608 q 847 687 840 667 q 859 730 854 707 q 868 783 869 766 q 855 812 867 800 q 836 825 846 822 q 805 827 825 828 q 774 823 783 826 q 765 813 766 821 q 723 671 739 724 q 689 573 706 618 q 675 538 685 562 q 657 491 666 514 q 644 458 648 467 m 1055 970 q 991 990 1019 960 q 966 1047 966 1013 q 979 1090 966 1072 q 1011 1119 992 1109 q 1050 1126 1031 1128 q 1073 1119 1060 1125 q 1094 1104 1085 1112 q 1118 1051 1118 1083 q 1100 1001 1118 1024 q 1055 970 1082 978 m 864 990 q 800 1010 829 981 q 775 1067 775 1034 q 789 1110 775 1092 q 821 1139 802 1129 q 859 1147 840 1149 q 882 1139 869 1145 q 903 1124 895 1133 q 928 1072 928 1103 q 910 1021 928 1044 q 864 990 892 998 z "},"Å":{"ha":1067,"x_min":0,"x_max":1013,"o":"m 644 458 q 665 456 650 456 q 699 459 681 457 q 729 463 716 462 q 739 465 735 465 l 750 466 l 791 556 q 827 637 814 608 q 847 687 840 667 q 859 730 854 707 q 868 783 869 766 q 855 812 867 800 q 836 825 846 822 q 805 827 825 828 q 774 823 783 826 q 765 813 766 821 q 723 671 739 724 q 689 573 706 618 q 675 538 685 562 q 657 491 666 514 q 644 458 648 467 m 814 922 l 824 916 q 905 966 862 922 q 949 1031 937 1000 q 953 1045 951 1037 q 956 1062 955 1054 q 956 1076 956 1071 q 954 1080 956 1082 q 863 1006 901 1049 q 814 922 825 962 m 911 863 q 1001 739 980 822 q 1006 720 1004 728 q 1007 702 1007 712 q 1008 674 1008 692 q 1007 638 1008 652 q 1002 609 1006 624 q 975 520 996 572 q 905 360 955 468 q 869 273 879 303 q 857 210 859 243 q 871 105 850 150 q 968 50 899 46 q 1008 41 1000 52 q 1011 37 1011 39 q 1008 31 1010 35 q 991 20 1004 26 q 964 6 979 13 q 937 -5 949 -1 q 915 -9 926 -7 q 886 -10 904 -10 q 838 -7 857 -12 q 793 9 818 -3 q 683 127 701 51 q 675 186 676 151 q 678 250 674 221 q 688 298 682 272 q 700 342 694 325 l 705 355 l 699 354 q 684 351 697 353 q 652 345 670 349 q 577 330 577 331 q 573 323 576 329 q 564 308 570 317 q 368 87 469 147 q 216 56 296 47 q 58 156 119 65 q 3 313 6 232 q 12 372 0 362 q 19 376 16 375 q 31 375 22 376 q 41 373 37 374 q 51 366 45 371 q 69 349 57 361 q 118 311 100 320 q 168 300 137 301 q 194 300 184 300 q 218 304 204 301 q 435 437 336 330 q 485 496 465 469 q 528 565 505 524 q 561 625 549 601 q 586 677 573 648 q 612 733 597 702 q 637 788 626 764 q 653 821 649 813 q 657 829 656 826 q 659 833 659 833 q 647 837 657 834 q 624 842 637 839 q 598 847 611 845 q 579 850 586 850 q 524 851 553 853 q 469 841 494 848 q 413 817 440 833 q 369 783 385 800 q 360 773 363 777 q 354 762 357 768 q 345 744 351 755 q 334 732 340 733 q 295 762 315 729 q 276 831 276 795 q 380 948 276 911 q 476 964 425 964 q 556 956 519 964 q 654 922 594 947 q 677 913 667 918 q 692 908 688 909 l 701 905 l 715 922 q 738 941 726 933 q 734 972 734 956 q 738 1005 734 992 q 849 1128 768 1083 q 919 1147 891 1150 q 975 1115 947 1145 q 1013 1027 1013 1082 q 995 958 1013 991 q 946 891 976 921 q 911 863 929 874 z "},"Æ":{"ha":1472,"x_min":0,"x_max":1452,"o":"m 644 458 q 665 456 650 456 q 699 459 681 457 q 729 463 716 462 q 739 465 735 465 l 750 466 l 791 556 q 827 637 814 608 q 847 687 840 667 q 859 730 854 707 q 868 783 869 766 q 855 812 867 800 q 836 825 846 822 q 805 827 825 828 q 774 823 783 826 q 765 813 766 821 q 723 671 739 724 q 689 573 706 618 q 675 538 685 562 q 657 491 666 514 q 644 458 648 467 m 1235 795 q 1316 800 1280 788 q 1347 813 1333 806 q 1378 834 1360 821 q 1411 867 1396 848 q 1425 896 1425 886 q 1414 905 1425 901 q 1388 907 1404 908 q 1252 840 1324 902 q 1222 813 1234 825 q 1211 799 1210 801 q 1218 798 1211 799 q 1235 795 1225 796 m 997 22 l 991 20 q 964 6 979 13 q 937 -5 949 -1 q 915 -9 926 -7 q 886 -10 904 -10 q 838 -7 857 -12 q 793 9 818 -3 q 683 127 701 51 q 675 186 676 151 q 678 250 674 221 q 688 298 682 272 q 700 342 694 325 l 705 355 l 699 354 q 684 351 697 353 q 652 345 670 349 q 577 330 577 331 q 573 323 576 329 q 564 308 570 317 q 368 87 469 147 q 216 56 296 47 q 58 156 119 65 q 3 313 6 232 q 12 372 0 362 q 19 376 16 375 q 31 375 22 376 q 41 373 37 374 q 51 366 45 371 q 69 349 57 361 q 118 311 100 320 q 168 300 137 301 q 194 300 184 300 q 218 304 204 301 q 435 437 336 330 q 485 496 465 469 q 528 565 505 524 q 561 625 549 601 q 586 677 573 648 q 612 733 597 702 q 637 788 626 764 q 653 821 649 813 q 657 829 656 826 q 659 833 659 833 q 647 837 657 834 q 624 842 637 839 q 598 847 611 845 q 579 850 586 850 q 524 851 553 853 q 469 841 494 848 q 413 817 440 833 q 369 783 385 800 q 360 773 363 777 q 354 762 357 768 q 345 744 351 755 q 334 732 340 733 q 295 762 315 729 q 276 831 276 795 q 380 948 276 911 q 476 964 425 964 q 556 956 519 964 q 654 922 594 947 q 677 913 667 918 q 692 908 688 909 l 701 905 l 715 922 q 766 954 740 947 q 784 951 774 955 q 799 941 793 947 q 805 925 804 935 q 803 905 806 916 l 800 895 l 822 892 q 861 885 845 890 q 895 871 876 881 q 1001 739 978 831 q 1006 720 1004 728 q 1007 702 1007 712 q 1008 674 1008 692 q 1007 638 1008 652 q 1002 609 1006 624 q 1002 606 1002 608 q 1029 614 1015 610 q 1044 617 1038 616 q 1051 620 1050 619 q 1049 626 1051 621 q 1043 639 1046 631 q 1027 679 1031 661 q 1024 724 1023 697 q 1024 750 1024 738 q 1025 768 1025 763 l 1027 779 l 1069 852 l 1085 867 q 1291 966 1172 949 q 1363 962 1326 970 q 1422 939 1400 955 q 1443 912 1434 930 q 1452 879 1452 893 q 1405 798 1452 840 q 1299 741 1358 755 q 1235 737 1276 736 q 1168 743 1194 738 q 1163 741 1166 744 q 1154 727 1160 737 q 1128 675 1139 702 q 1118 635 1118 649 l 1118 629 l 1143 629 q 1165 628 1158 629 q 1183 623 1173 627 q 1253 573 1231 604 q 1258 562 1257 566 q 1259 551 1259 558 q 1253 532 1258 540 q 1237 518 1247 525 q 1215 508 1227 512 q 1153 522 1192 500 l 1132 532 l 1112 522 q 885 245 924 419 q 882 210 882 228 q 886 180 883 192 q 891 172 888 174 q 900 168 894 170 q 1010 165 943 153 q 1227 274 1115 186 q 1300 342 1263 303 q 1360 414 1337 381 q 1388 424 1373 433 q 1427 381 1411 411 q 1447 318 1444 351 q 1364 145 1448 235 q 1110 22 1262 45 q 1079 19 1099 20 q 1042 18 1060 18 q 1018 19 1024 18 q 1011 20 1017 20 q 998 22 1005 21 l 997 22 z "},"Ç":{"ha":981,"x_min":0,"x_max":1008,"o":"m 784 747 q 807 746 793 747 q 833 747 821 746 q 881 752 863 747 q 919 770 900 758 q 952 806 937 783 q 969 850 966 829 l 971 863 l 962 864 q 944 866 957 865 q 916 866 932 866 q 883 865 895 866 q 857 860 871 863 q 761 817 812 847 q 731 798 747 808 q 703 779 715 787 q 691 768 692 770 q 693 766 691 767 q 698 764 694 765 q 723 758 707 762 q 757 752 740 755 q 784 747 774 749 m 379 18 q 323 50 351 31 q 301 67 314 56 q 277 90 288 79 q 180 258 201 162 q 176 284 177 271 q 175 321 175 297 q 178 383 174 355 q 191 444 182 410 q 380 764 239 621 q 402 786 395 778 q 412 798 410 794 q 412 801 414 801 q 381 807 401 804 q 349 810 361 810 q 270 794 313 809 q 195 755 228 779 q 120 677 155 724 q 102 654 109 663 q 92 642 96 646 q 84 638 87 638 q 77 638 81 637 q 24 680 47 645 q 1 748 0 714 q 22 813 5 779 q 63 872 39 848 q 155 926 98 907 q 410 894 278 968 q 438 878 423 886 q 463 865 453 870 l 485 853 l 517 874 q 739 972 627 949 q 772 978 758 977 q 813 979 786 979 q 851 978 838 979 q 877 975 865 977 q 990 909 964 955 q 1003 874 997 896 q 1008 840 1008 852 q 1004 808 1008 827 q 991 774 999 789 q 952 728 979 749 q 895 699 925 707 q 840 693 876 694 q 771 696 804 692 q 713 705 743 699 q 666 715 683 710 q 657 717 661 717 q 651 716 654 718 q 642 711 648 715 q 512 595 578 673 q 398 424 446 517 q 336 228 336 295 q 344 182 336 207 q 360 149 351 157 q 386 144 366 145 q 432 146 407 144 q 475 153 456 149 q 777 385 613 190 q 817 428 804 416 q 841 443 830 440 q 909 397 874 450 q 924 277 949 338 q 868 187 906 236 q 784 100 829 138 q 681 35 739 62 q 572 -3 624 7 q 513 -7 549 -6 q 467 -7 485 -8 q 448 -52 464 -22 q 438 -68 442 -61 q 435 -76 435 -75 q 439 -82 435 -77 q 452 -92 444 -86 q 485 -178 505 -138 q 469 -199 480 -189 q 445 -216 458 -209 q 432 -221 437 -219 q 420 -223 427 -222 q 397 -224 412 -224 q 361 -223 373 -224 q 338 -215 349 -221 q 304 -191 317 -205 q 292 -167 292 -178 q 318 -152 292 -151 q 374 -136 346 -152 q 389 -123 380 -131 q 403 -109 397 -116 q 409 -100 409 -102 q 404 -94 409 -98 q 393 -85 399 -90 q 359 -31 359 -66 q 376 15 359 -3 l 379 18 z "},"È":{"ha":849,"x_min":0,"x_max":801,"o":"m 459 22 q 428 19 448 20 q 391 18 409 18 q 367 19 373 18 q 360 20 366 20 q 347 22 354 21 q 136 177 216 48 q 168 486 50 333 q 203 523 183 505 q 242 554 224 542 q 378 614 302 593 q 393 617 387 616 q 400 620 399 619 q 398 626 400 621 q 392 639 395 631 q 376 679 380 661 q 373 724 372 697 q 373 750 373 738 q 374 768 374 763 l 376 779 l 355 783 q 317 788 332 787 q 284 787 302 789 q 207 762 242 783 q 113 670 140 723 q 103 654 107 659 q 91 650 98 650 q 68 661 81 650 q 45 687 56 671 q 73 837 0 761 q 199 896 121 885 q 225 898 214 898 q 254 897 236 899 q 394 861 311 892 l 418 852 l 434 867 q 640 966 521 949 q 712 962 675 970 q 771 939 749 955 q 792 912 783 930 q 801 879 801 893 q 754 798 801 840 q 648 741 707 755 q 584 737 625 736 q 517 743 543 738 q 512 741 515 744 q 503 727 509 737 q 477 675 488 702 q 467 635 467 649 l 467 629 l 492 629 q 514 628 507 629 q 532 623 522 627 q 602 573 580 604 q 607 562 606 566 q 608 551 608 558 q 602 532 607 540 q 586 518 596 525 q 564 508 576 512 q 502 522 541 500 l 481 532 l 460 522 q 234 245 273 419 q 231 210 231 228 q 235 180 232 192 q 240 172 237 174 q 249 168 243 170 q 359 165 292 153 q 576 274 464 186 q 649 342 612 303 q 709 414 686 381 q 737 424 722 433 q 776 381 760 411 q 795 318 793 351 q 713 145 797 235 q 459 22 611 45 m 584 795 q 665 800 629 788 q 696 813 682 806 q 727 834 709 821 q 760 867 745 848 q 774 896 774 886 q 763 905 774 901 q 737 907 753 908 q 601 840 673 902 q 571 813 583 825 q 559 799 559 801 q 567 798 560 799 q 584 795 574 796 m 733 989 q 706 984 720 981 q 667 1005 691 987 q 635 1032 654 1015 q 600 1067 616 1050 q 579 1091 583 1084 q 578 1142 570 1112 q 609 1198 587 1172 q 647 1217 629 1221 q 693 1188 661 1214 q 754 1133 726 1162 q 770 1115 765 1122 q 777 1101 774 1108 q 780 1089 779 1094 q 780 1078 781 1084 q 777 1063 779 1073 q 759 1019 772 1040 q 733 989 746 998 z "},"É":{"ha":849,"x_min":0,"x_max":823,"o":"m 459 22 q 428 19 448 20 q 391 18 409 18 q 367 19 373 18 q 360 20 366 20 q 347 22 354 21 q 136 177 216 48 q 168 486 50 333 q 203 523 183 505 q 242 554 224 542 q 378 614 302 593 q 393 617 387 616 q 400 620 399 619 q 398 626 400 621 q 392 639 395 631 q 376 679 380 661 q 373 724 372 697 q 373 750 373 738 q 374 768 374 763 l 376 779 l 355 783 q 317 788 332 787 q 284 787 302 789 q 207 762 242 783 q 113 670 140 723 q 103 654 107 659 q 91 650 98 650 q 68 661 81 650 q 45 687 56 671 q 73 837 0 761 q 199 896 121 885 q 225 898 214 898 q 254 897 236 899 q 394 861 311 892 l 418 852 l 434 867 q 640 966 521 949 q 712 962 675 970 q 771 939 749 955 q 792 912 783 930 q 801 879 801 893 q 754 798 801 840 q 648 741 707 755 q 584 737 625 736 q 517 743 543 738 q 512 741 515 744 q 503 727 509 737 q 477 675 488 702 q 467 635 467 649 l 467 629 l 492 629 q 514 628 507 629 q 532 623 522 627 q 602 573 580 604 q 607 562 606 566 q 608 551 608 558 q 602 532 607 540 q 586 518 596 525 q 564 508 576 512 q 502 522 541 500 l 481 532 l 460 522 q 234 245 273 419 q 231 210 231 228 q 235 180 232 192 q 240 172 237 174 q 249 168 243 170 q 359 165 292 153 q 576 274 464 186 q 649 342 612 303 q 709 414 686 381 q 737 424 722 433 q 776 381 760 411 q 795 318 793 351 q 713 145 797 235 q 459 22 611 45 m 584 795 q 665 800 629 788 q 696 813 682 806 q 727 834 709 821 q 760 867 745 848 q 774 896 774 886 q 763 905 774 901 q 737 907 753 908 q 601 840 673 902 q 571 813 583 825 q 559 799 559 801 q 567 798 560 799 q 584 795 574 796 m 660 989 q 634 1019 646 998 q 616 1063 621 1040 q 613 1078 614 1073 q 613 1089 612 1084 q 616 1101 614 1094 q 623 1115 618 1108 q 639 1133 627 1122 q 700 1188 667 1162 q 745 1217 732 1214 q 784 1198 763 1221 q 815 1142 806 1172 q 814 1091 823 1112 q 793 1067 810 1084 q 758 1032 777 1050 q 726 1005 739 1015 q 687 984 701 987 q 660 989 673 981 z "},"Ê":{"ha":849,"x_min":0,"x_max":816,"o":"m 459 22 q 428 19 448 20 q 391 18 409 18 q 367 19 373 18 q 360 20 366 20 q 347 22 354 21 q 136 177 216 48 q 168 486 50 333 q 203 523 183 505 q 242 554 224 542 q 378 614 302 593 q 393 617 387 616 q 400 620 399 619 q 398 626 400 621 q 392 639 395 631 q 376 679 380 661 q 373 724 372 697 q 373 750 373 738 q 374 768 374 763 l 376 779 l 355 783 q 317 788 332 787 q 284 787 302 789 q 207 762 242 783 q 113 670 140 723 q 103 654 107 659 q 91 650 98 650 q 68 661 81 650 q 45 687 56 671 q 73 837 0 761 q 199 896 121 885 q 225 898 214 898 q 254 897 236 899 q 394 861 311 892 l 418 852 l 434 867 q 640 966 521 949 q 712 962 675 970 q 771 939 749 955 q 792 912 783 930 q 801 879 801 893 q 754 798 801 840 q 648 741 707 755 q 584 737 625 736 q 517 743 543 738 q 512 741 515 744 q 503 727 509 737 q 477 675 488 702 q 467 635 467 649 l 467 629 l 492 629 q 514 628 507 629 q 532 623 522 627 q 602 573 580 604 q 607 562 606 566 q 608 551 608 558 q 602 532 607 540 q 586 518 596 525 q 564 508 576 512 q 502 522 541 500 l 481 532 l 460 522 q 234 245 273 419 q 231 210 231 228 q 235 180 232 192 q 240 172 237 174 q 249 168 243 170 q 359 165 292 153 q 576 274 464 186 q 649 342 612 303 q 709 414 686 381 q 737 424 722 433 q 776 381 760 411 q 795 318 793 351 q 713 145 797 235 q 459 22 611 45 m 584 795 q 665 800 629 788 q 696 813 682 806 q 727 834 709 821 q 760 867 745 848 q 774 896 774 886 q 763 905 774 901 q 737 907 753 908 q 601 840 673 902 q 571 813 583 825 q 559 799 559 801 q 567 798 560 799 q 584 795 574 796 m 800 949 q 774 953 791 937 q 763 968 770 958 q 746 1000 756 979 q 721 1043 727 1038 q 712 1047 718 1045 q 701 1048 707 1048 q 564 970 648 1051 q 537 949 543 949 q 517 960 528 949 q 499 988 507 972 q 491 1018 491 1004 q 496 1041 490 1029 q 513 1069 501 1053 q 605 1143 550 1117 q 664 1158 634 1158 q 770 1069 731 1158 q 800 949 816 977 z "},"Ë":{"ha":849,"x_min":0,"x_max":891,"o":"m 459 22 q 428 19 448 20 q 391 18 409 18 q 367 19 373 18 q 360 20 366 20 q 347 22 354 21 q 136 177 216 48 q 168 486 50 333 q 203 523 183 505 q 242 554 224 542 q 378 614 302 593 q 393 617 387 616 q 400 620 399 619 q 398 626 400 621 q 392 639 395 631 q 376 679 380 661 q 373 724 372 697 q 373 750 373 738 q 374 768 374 763 l 376 779 l 355 783 q 317 788 332 787 q 284 787 302 789 q 207 762 242 783 q 113 670 140 723 q 103 654 107 659 q 91 650 98 650 q 68 661 81 650 q 45 687 56 671 q 73 837 0 761 q 199 896 121 885 q 225 898 214 898 q 254 897 236 899 q 394 861 311 892 l 418 852 l 434 867 q 640 966 521 949 q 712 962 675 970 q 771 939 749 955 q 792 912 783 930 q 801 879 801 893 q 754 798 801 840 q 648 741 707 755 q 584 737 625 736 q 517 743 543 738 q 512 741 515 744 q 503 727 509 737 q 477 675 488 702 q 467 635 467 649 l 467 629 l 492 629 q 514 628 507 629 q 532 623 522 627 q 602 573 580 604 q 607 562 606 566 q 608 551 608 558 q 602 532 607 540 q 586 518 596 525 q 564 508 576 512 q 502 522 541 500 l 481 532 l 460 522 q 234 245 273 419 q 231 210 231 228 q 235 180 232 192 q 240 172 237 174 q 249 168 243 170 q 359 165 292 153 q 576 274 464 186 q 649 342 612 303 q 709 414 686 381 q 737 424 722 433 q 776 381 760 411 q 795 318 793 351 q 713 145 797 235 q 459 22 611 45 m 584 795 q 665 800 629 788 q 696 813 682 806 q 727 834 709 821 q 760 867 745 848 q 774 896 774 886 q 763 905 774 901 q 737 907 753 908 q 601 840 673 902 q 571 813 583 825 q 559 799 559 801 q 567 798 560 799 q 584 795 574 796 m 827 970 q 764 990 792 960 q 739 1047 739 1013 q 752 1090 739 1072 q 784 1119 765 1109 q 823 1126 804 1128 q 845 1119 833 1125 q 867 1104 858 1112 q 891 1051 891 1083 q 873 1001 891 1024 q 827 970 855 978 m 637 990 q 573 1010 602 981 q 548 1067 548 1034 q 562 1110 548 1092 q 594 1139 574 1129 q 632 1147 613 1149 q 655 1139 642 1145 q 676 1124 667 1133 q 701 1072 701 1103 q 683 1021 701 1044 q 637 990 665 998 z "},"Ì":{"ha":734,"x_min":9,"x_max":898,"o":"m 308 10 q 289 7 301 9 q 264 6 276 6 q 69 110 143 0 q 12 271 16 187 q 22 330 9 321 q 29 334 26 334 q 41 334 33 335 q 51 332 47 334 q 62 325 56 330 q 80 308 68 319 q 131 268 111 277 q 182 258 150 258 q 208 258 197 257 q 233 262 219 259 q 456 398 354 288 q 506 459 486 431 q 550 529 526 486 q 584 590 572 566 q 610 644 597 614 q 636 701 622 669 q 663 758 651 732 q 679 791 675 783 q 683 800 681 796 q 684 804 684 804 q 673 807 683 805 q 649 813 663 810 q 623 818 635 816 q 603 821 610 821 q 546 822 576 824 q 490 812 515 819 q 432 786 460 803 q 387 752 404 770 q 379 742 382 746 q 372 730 376 737 q 363 712 369 724 q 352 700 358 701 q 312 731 332 697 q 292 802 292 765 q 399 922 292 884 q 497 937 445 938 q 576 930 541 938 q 675 897 612 922 q 687 892 682 895 q 710 884 702 886 q 722 880 718 881 q 728 881 726 880 q 732 884 730 882 q 733 887 732 886 q 786 943 762 926 q 844 964 811 960 q 884 932 873 968 q 862 842 898 883 q 834 819 851 831 q 806 802 818 807 q 799 798 801 801 q 795 790 797 795 q 791 774 794 785 q 783 749 787 763 q 774 716 780 736 q 764 681 768 697 q 679 443 738 590 q 643 366 667 414 q 599 284 619 319 q 409 54 505 121 q 308 10 367 22 m 736 960 q 709 955 724 951 q 671 976 694 958 q 638 1003 657 985 q 603 1038 619 1021 q 583 1062 587 1055 q 582 1113 573 1082 q 612 1168 590 1143 q 650 1188 633 1192 q 696 1159 664 1185 q 758 1104 729 1133 q 773 1086 768 1093 q 780 1072 778 1079 q 783 1060 782 1065 q 783 1049 784 1055 q 780 1034 783 1044 q 762 990 775 1011 q 736 960 749 968 z "},"Í":{"ha":734,"x_min":9,"x_max":898,"o":"m 308 10 q 289 7 301 9 q 264 6 276 6 q 69 110 143 0 q 12 271 16 187 q 22 330 9 321 q 29 334 26 334 q 41 334 33 335 q 51 332 47 334 q 62 325 56 330 q 80 308 68 319 q 131 268 111 277 q 182 258 150 258 q 208 258 197 257 q 233 262 219 259 q 456 398 354 288 q 506 459 486 431 q 550 529 526 486 q 584 590 572 566 q 610 644 597 614 q 636 701 622 669 q 663 758 651 732 q 679 791 675 783 q 683 800 681 796 q 684 804 684 804 q 673 807 683 805 q 649 813 663 810 q 623 818 635 816 q 603 821 610 821 q 546 822 576 824 q 490 812 515 819 q 432 786 460 803 q 387 752 404 770 q 379 742 382 746 q 372 730 376 737 q 363 712 369 724 q 352 700 358 701 q 312 731 332 697 q 292 802 292 765 q 399 922 292 884 q 497 937 445 938 q 576 930 541 938 q 675 897 612 922 q 687 892 682 895 q 710 884 702 886 q 722 880 718 881 q 728 881 726 880 q 732 884 730 882 q 733 887 732 886 q 786 943 762 926 q 844 964 811 960 q 884 932 873 968 q 862 842 898 883 q 834 819 851 831 q 806 802 818 807 q 799 798 801 801 q 795 790 797 795 q 791 774 794 785 q 783 749 787 763 q 774 716 780 736 q 764 681 768 697 q 679 443 738 590 q 643 366 667 414 q 599 284 619 319 q 409 54 505 121 q 308 10 367 22 m 667 957 q 641 987 653 966 q 623 1031 628 1008 q 620 1046 621 1041 q 620 1057 619 1052 q 623 1069 621 1062 q 629 1083 625 1076 q 646 1101 634 1090 q 707 1156 674 1131 q 752 1185 739 1182 q 791 1166 770 1189 q 822 1110 813 1140 q 821 1059 830 1080 q 800 1035 817 1052 q 765 1000 784 1018 q 732 973 746 983 q 694 952 708 956 q 667 957 680 949 z "},"Î":{"ha":734,"x_min":9,"x_max":1002,"o":"m 308 10 q 289 7 301 9 q 264 6 276 6 q 69 110 143 0 q 12 271 16 187 q 22 330 9 321 q 29 334 26 334 q 41 334 33 335 q 51 332 47 334 q 62 325 56 330 q 80 308 68 319 q 131 268 111 277 q 182 258 150 258 q 208 258 197 257 q 233 262 219 259 q 456 398 354 288 q 506 459 486 431 q 550 529 526 486 q 584 590 572 566 q 610 644 597 614 q 636 701 622 669 q 663 758 651 732 q 679 791 675 783 q 683 800 681 796 q 684 804 684 804 q 673 807 683 805 q 649 813 663 810 q 623 818 635 816 q 603 821 610 821 q 546 822 576 824 q 490 812 515 819 q 432 786 460 803 q 387 752 404 770 q 379 742 382 746 q 372 730 376 737 q 363 712 369 724 q 352 700 358 701 q 312 731 332 697 q 292 802 292 765 q 399 922 292 884 q 497 937 445 938 q 576 930 541 938 q 675 897 612 922 q 687 892 682 895 q 710 884 702 886 q 722 880 718 881 q 728 881 726 880 q 732 884 730 882 q 733 887 732 886 q 786 943 762 926 q 844 964 811 960 q 884 932 873 968 q 862 842 898 883 q 834 819 851 831 q 806 802 818 807 q 799 798 801 801 q 795 790 797 795 q 791 774 794 785 q 783 749 787 763 q 774 716 780 736 q 764 681 768 697 q 679 443 738 590 q 643 366 667 414 q 599 284 619 319 q 409 54 505 121 q 308 10 367 22 m 986 988 q 960 991 977 975 q 949 1007 956 996 q 932 1039 942 1018 q 907 1082 913 1077 q 898 1085 903 1084 q 887 1087 893 1087 q 750 1008 833 1090 q 723 987 729 987 q 703 999 714 987 q 685 1026 692 1010 q 677 1057 677 1042 q 682 1080 676 1068 q 699 1108 687 1092 q 791 1181 736 1156 q 850 1196 820 1196 q 956 1108 917 1196 q 986 988 1002 1015 z "},"Ï":{"ha":734,"x_min":9,"x_max":1042,"o":"m 308 10 q 289 7 301 9 q 264 6 276 6 q 69 110 143 0 q 12 271 16 187 q 22 330 9 321 q 29 334 26 334 q 41 334 33 335 q 51 332 47 334 q 62 325 56 330 q 80 308 68 319 q 131 268 111 277 q 182 258 150 258 q 208 258 197 257 q 233 262 219 259 q 456 398 354 288 q 506 459 486 431 q 550 529 526 486 q 584 590 572 566 q 610 644 597 614 q 636 701 622 669 q 663 758 651 732 q 679 791 675 783 q 683 800 681 796 q 684 804 684 804 q 673 807 683 805 q 649 813 663 810 q 623 818 635 816 q 603 821 610 821 q 546 822 576 824 q 490 812 515 819 q 432 786 460 803 q 387 752 404 770 q 379 742 382 746 q 372 730 376 737 q 363 712 369 724 q 352 700 358 701 q 312 731 332 697 q 292 802 292 765 q 399 922 292 884 q 497 937 445 938 q 576 930 541 938 q 675 897 612 922 q 687 892 682 895 q 710 884 702 886 q 722 880 718 881 q 728 881 726 880 q 732 884 730 882 q 733 887 732 886 q 786 943 762 926 q 844 964 811 960 q 884 932 873 968 q 862 842 898 883 q 834 819 851 831 q 806 802 818 807 q 799 798 801 801 q 795 790 797 795 q 791 774 794 785 q 783 749 787 763 q 774 716 780 736 q 764 681 768 697 q 679 443 738 590 q 643 366 667 414 q 599 284 619 319 q 409 54 505 121 q 308 10 367 22 m 978 970 q 914 990 943 960 q 889 1047 889 1013 q 903 1090 889 1072 q 935 1119 916 1109 q 973 1126 954 1128 q 996 1119 983 1125 q 1017 1104 1008 1112 q 1042 1051 1042 1083 q 1024 1001 1042 1024 q 978 970 1006 978 m 787 990 q 724 1010 752 981 q 699 1067 699 1034 q 712 1110 699 1092 q 744 1139 725 1129 q 783 1147 764 1149 q 805 1139 793 1145 q 827 1124 818 1133 q 851 1072 851 1103 q 833 1021 851 1044 q 787 990 815 998 z "},"Ð":{"ha":1173,"x_min":0,"x_max":1145,"o":"m 621 447 q 600 403 612 427 q 558 325 577 358 q 463 186 511 245 l 458 178 l 470 166 q 488 152 479 156 q 509 145 496 147 q 537 145 519 144 q 570 149 555 146 q 761 261 665 170 q 924 481 858 353 q 973 675 984 597 q 909 804 963 770 q 850 821 882 821 q 789 805 817 821 q 753 773 772 795 q 725 734 733 751 q 720 720 724 730 q 713 696 717 709 q 657 533 694 631 q 691 531 673 532 q 734 528 715 529 q 759 526 753 526 q 810 513 802 524 q 813 509 812 512 q 815 504 814 507 q 817 487 817 497 q 816 471 817 477 q 775 452 811 459 q 715 448 758 449 q 621 447 683 446 m 503 541 l 512 557 q 545 614 532 591 q 569 665 557 637 q 594 720 580 690 q 619 773 608 749 q 634 805 630 798 q 637 813 636 810 q 639 817 639 817 q 628 820 637 818 q 606 825 619 823 q 581 830 593 828 q 562 833 569 833 q 508 834 537 836 q 455 825 479 831 q 401 801 428 817 q 358 768 374 785 q 350 758 353 762 q 343 747 347 753 q 336 730 340 741 q 325 718 330 720 q 287 748 306 716 q 269 815 269 780 q 369 928 269 892 q 462 943 412 944 q 537 936 503 944 q 631 905 571 928 q 642 901 637 903 q 664 892 656 895 q 675 889 671 890 q 681 890 679 888 q 684 893 682 891 l 686 896 q 736 949 712 932 q 791 969 760 965 q 820 957 810 970 q 831 923 828 945 q 828 888 833 902 q 826 882 827 884 q 825 879 825 880 q 832 879 826 879 q 846 881 838 880 q 1021 820 940 894 q 1139 530 1145 707 q 886 87 1121 254 q 726 20 813 40 q 668 15 704 16 q 614 16 633 14 q 421 116 499 36 l 408 130 l 391 117 q 256 62 334 69 q 84 125 153 52 q 48 174 65 146 q 20 228 31 201 q 2 312 5 270 q 12 369 0 355 q 19 373 16 372 q 31 372 22 374 q 40 370 36 372 q 50 364 44 369 q 68 347 56 359 q 115 310 97 319 q 163 300 134 300 q 189 300 178 300 q 212 304 199 301 q 423 433 327 328 q 437 449 431 441 q 227 460 298 452 q 204 463 212 461 q 192 467 196 465 q 186 473 189 469 q 180 508 178 487 q 191 536 182 526 l 191 537 q 197 543 194 541 q 207 546 200 545 q 230 547 214 547 q 271 547 245 547 l 275 547 q 340 546 304 547 q 403 545 376 545 q 503 541 463 542 z "},"Ñ":{"ha":1198,"x_min":0,"x_max":1518,"o":"m 843 11 q 815 6 832 7 q 783 7 798 5 q 674 98 695 20 q 667 151 669 117 q 666 218 665 186 q 677 327 668 267 q 698 433 686 387 q 725 533 708 472 q 756 640 743 595 q 781 729 773 698 q 788 777 788 761 l 788 787 l 775 782 q 765 779 769 780 q 761 777 762 777 q 730 669 760 777 q 646 433 703 574 q 599 335 629 391 q 536 227 569 278 q 319 24 429 60 q 85 76 176 -19 q 49 125 66 97 q 20 180 31 153 q 2 267 5 223 q 12 324 0 310 q 19 328 16 328 q 31 328 22 329 q 40 326 36 327 q 50 319 44 324 q 68 302 56 314 q 117 264 98 273 q 166 254 136 255 q 192 254 181 254 q 216 258 202 255 q 431 390 332 283 q 479 448 460 421 q 522 515 498 475 q 554 574 542 551 q 579 626 567 598 q 605 682 591 651 q 630 736 619 712 q 646 768 642 761 q 650 777 648 774 q 651 781 651 781 q 640 784 650 782 q 617 790 631 787 q 592 795 604 793 q 572 798 579 797 q 517 798 547 801 q 463 789 488 795 q 408 765 435 781 q 365 731 381 749 q 356 721 359 726 q 350 710 353 717 q 341 693 347 704 q 331 680 336 682 q 292 711 311 678 q 273 779 273 743 q 376 895 273 858 q 471 910 420 910 q 547 902 513 910 q 642 871 582 895 q 654 867 648 869 q 676 858 668 861 q 688 854 684 855 q 693 855 692 854 q 696 859 695 857 q 699 861 697 860 q 750 916 726 899 q 806 936 774 932 q 844 905 833 940 q 841 846 852 874 l 834 831 l 844 828 q 893 798 869 821 q 925 684 931 764 q 868 438 920 604 q 844 357 852 389 q 829 296 835 324 q 818 233 823 263 q 813 197 813 203 q 820 209 814 195 q 836 250 826 224 q 926 462 874 352 q 1023 650 977 572 q 1074 729 1044 684 q 1126 803 1105 775 q 1182 867 1149 833 q 1239 916 1216 901 q 1480 920 1390 1014 q 1500 893 1491 909 q 1514 864 1509 878 q 1517 843 1517 854 q 1515 826 1518 831 q 1505 821 1512 821 q 1489 827 1497 821 q 1474 832 1482 832 q 1453 827 1467 832 q 1234 614 1355 793 q 1166 505 1200 565 q 1076 332 1133 444 q 1029 241 1046 273 q 999 188 1012 209 q 971 143 987 168 q 900 48 929 79 q 843 11 871 18 m 1157 995 q 1131 990 1144 990 q 1109 994 1118 989 q 1072 1037 1092 1002 q 1054 1061 1061 1056 q 1037 1062 1047 1065 q 977 1019 999 1052 q 961 1002 967 1004 q 948 1008 955 1000 q 938 1043 940 1020 q 941 1085 935 1066 q 999 1146 958 1131 q 1069 1133 1039 1161 q 1077 1123 1072 1131 q 1087 1106 1082 1115 q 1097 1091 1092 1098 q 1104 1083 1102 1084 q 1124 1082 1109 1081 q 1187 1127 1164 1086 q 1206 1143 1198 1149 q 1220 1103 1219 1133 q 1210 1046 1221 1073 q 1186 1016 1202 1031 q 1157 995 1171 1000 z "},"Ò":{"ha":920,"x_min":0,"x_max":947,"o":"m 476 0 q 441 -4 465 -3 q 392 -5 418 -5 q 350 -3 366 -5 q 151 128 212 10 q 145 467 81 279 q 279 674 193 590 l 298 692 l 287 690 q 130 637 196 680 q 96 608 113 625 q 73 577 79 590 q 60 562 66 564 q 20 595 39 559 q 0 673 0 631 q 8 721 0 701 q 39 764 17 741 q 204 851 105 833 q 385 814 279 867 l 425 794 l 446 808 q 569 869 513 851 q 634 881 602 879 q 687 878 665 884 q 697 874 693 876 q 702 873 701 873 q 700 876 702 873 q 696 884 699 879 q 691 966 663 942 q 697 969 694 968 q 704 971 700 970 q 717 970 709 971 q 735 968 728 970 q 753 960 743 966 q 861 838 817 929 q 866 431 947 661 q 829 339 851 388 q 785 253 806 291 q 476 0 658 42 m 319 155 q 328 151 323 153 q 336 150 332 150 q 349 151 341 150 q 609 311 493 165 q 730 517 685 410 q 777 652 764 597 q 789 756 791 707 q 784 797 788 784 q 767 820 779 810 q 751 827 747 838 q 752 753 766 789 q 659 685 731 709 q 614 674 636 677 q 558 670 591 671 l 518 669 l 492 643 q 279 296 318 468 q 275 241 274 270 q 281 197 275 213 q 297 173 287 184 q 319 155 307 161 m 608 741 q 616 741 608 740 q 635 743 625 741 q 656 747 646 745 q 673 752 663 749 q 690 760 683 756 q 706 768 698 763 q 720 779 714 774 q 725 786 725 784 q 720 788 725 788 q 706 787 714 788 q 690 783 698 786 q 674 778 683 781 q 660 772 666 774 q 639 760 651 767 q 618 747 627 753 q 608 741 608 741 m 605 960 q 577 955 592 951 q 539 976 563 958 q 507 1003 526 985 q 471 1038 488 1021 q 451 1062 455 1055 q 450 1113 441 1082 q 481 1168 458 1143 q 519 1188 501 1192 q 565 1159 532 1185 q 626 1104 597 1133 q 642 1086 637 1093 q 648 1072 646 1079 q 651 1060 650 1065 q 652 1049 652 1055 q 648 1034 651 1044 q 631 990 644 1011 q 605 960 618 968 z "},"Ó":{"ha":920,"x_min":0,"x_max":947,"o":"m 476 0 q 441 -4 465 -3 q 392 -5 418 -5 q 350 -3 366 -5 q 151 128 212 10 q 145 467 81 279 q 279 674 193 590 l 298 692 l 287 690 q 130 637 196 680 q 96 608 113 625 q 73 577 79 590 q 60 562 66 564 q 20 595 39 559 q 0 673 0 631 q 8 721 0 701 q 39 764 17 741 q 204 851 105 833 q 385 814 279 867 l 425 794 l 446 808 q 569 869 513 851 q 634 881 602 879 q 687 878 665 884 q 697 874 693 876 q 702 873 701 873 q 700 876 702 873 q 696 884 699 879 q 691 966 663 942 q 697 969 694 968 q 704 971 700 970 q 717 970 709 971 q 735 968 728 970 q 753 960 743 966 q 861 838 817 929 q 866 431 947 661 q 829 339 851 388 q 785 253 806 291 q 476 0 658 42 m 319 155 q 328 151 323 153 q 336 150 332 150 q 349 151 341 150 q 609 311 493 165 q 730 517 685 410 q 777 652 764 597 q 789 756 791 707 q 784 797 788 784 q 767 820 779 810 q 751 827 747 838 q 752 753 766 789 q 659 685 731 709 q 614 674 636 677 q 558 670 591 671 l 518 669 l 492 643 q 279 296 318 468 q 275 241 274 270 q 281 197 275 213 q 297 173 287 184 q 319 155 307 161 m 608 741 q 616 741 608 740 q 635 743 625 741 q 656 747 646 745 q 673 752 663 749 q 690 760 683 756 q 706 768 698 763 q 720 779 714 774 q 725 786 725 784 q 720 788 725 788 q 706 787 714 788 q 690 783 698 786 q 674 778 683 781 q 660 772 666 774 q 639 760 651 767 q 618 747 627 753 q 608 741 608 741 m 528 960 q 502 990 515 968 q 484 1034 490 1011 q 481 1049 482 1044 q 481 1060 481 1055 q 485 1072 482 1065 q 491 1086 486 1079 q 507 1104 496 1093 q 568 1159 536 1133 q 614 1188 601 1185 q 652 1168 631 1192 q 683 1113 675 1143 q 682 1062 692 1082 q 662 1038 678 1055 q 627 1003 646 1021 q 594 976 608 985 q 555 955 570 958 q 528 960 541 951 z "},"Ô":{"ha":920,"x_min":0,"x_max":947,"o":"m 476 0 q 441 -4 465 -3 q 392 -5 418 -5 q 350 -3 366 -5 q 151 128 212 10 q 145 467 81 279 q 279 674 193 590 l 298 692 l 287 690 q 130 637 196 680 q 96 608 113 625 q 73 577 79 590 q 60 562 66 564 q 20 595 39 559 q 0 673 0 631 q 8 721 0 701 q 39 764 17 741 q 204 851 105 833 q 385 814 279 867 l 425 794 l 446 808 q 569 869 513 851 q 634 881 602 879 q 687 878 665 884 q 697 874 693 876 q 702 873 701 873 q 700 876 702 873 q 696 884 699 879 q 691 966 663 942 q 697 969 694 968 q 704 971 700 970 q 717 970 709 971 q 735 968 728 970 q 753 960 743 966 q 861 838 817 929 q 866 431 947 661 q 829 339 851 388 q 785 253 806 291 q 476 0 658 42 m 319 155 q 328 151 323 153 q 336 150 332 150 q 349 151 341 150 q 609 311 493 165 q 730 517 685 410 q 777 652 764 597 q 789 756 791 707 q 784 797 788 784 q 767 820 779 810 q 751 827 747 838 q 752 753 766 789 q 659 685 731 709 q 614 674 636 677 q 558 670 591 671 l 518 669 l 492 643 q 279 296 318 468 q 275 241 274 270 q 281 197 275 213 q 297 173 287 184 q 319 155 307 161 m 608 741 q 616 741 608 740 q 635 743 625 741 q 656 747 646 745 q 673 752 663 749 q 690 760 683 756 q 706 768 698 763 q 720 779 714 774 q 725 786 725 784 q 720 788 725 788 q 706 787 714 788 q 690 783 698 786 q 674 778 683 781 q 660 772 666 774 q 639 760 651 767 q 618 747 627 753 q 608 741 608 741 m 877 988 q 851 991 868 975 q 840 1007 846 996 q 823 1039 833 1018 q 798 1082 804 1077 q 789 1085 794 1084 q 778 1087 784 1087 q 641 1008 724 1090 q 614 987 620 987 q 594 999 605 987 q 575 1026 583 1010 q 568 1057 568 1042 q 572 1080 567 1068 q 590 1108 578 1092 q 682 1181 627 1156 q 741 1196 711 1196 q 847 1108 808 1196 q 877 988 892 1015 z "},"Õ":{"ha":920,"x_min":0,"x_max":947,"o":"m 476 0 q 441 -4 465 -3 q 392 -5 418 -5 q 350 -3 366 -5 q 151 128 212 10 q 145 467 81 279 q 279 674 193 590 l 298 692 l 287 690 q 130 637 196 680 q 96 608 113 625 q 73 577 79 590 q 60 562 66 564 q 20 595 39 559 q 0 673 0 631 q 8 721 0 701 q 39 764 17 741 q 204 851 105 833 q 385 814 279 867 l 425 794 l 446 808 q 569 869 513 851 q 634 881 602 879 q 687 878 665 884 q 697 874 693 876 q 702 873 701 873 q 700 876 702 873 q 696 884 699 879 q 691 966 663 942 q 697 969 694 968 q 704 971 700 970 q 717 970 709 971 q 735 968 728 970 q 753 960 743 966 q 861 838 817 929 q 866 431 947 661 q 829 339 851 388 q 785 253 806 291 q 476 0 658 42 m 319 155 q 328 151 323 153 q 336 150 332 150 q 349 151 341 150 q 609 311 493 165 q 730 517 685 410 q 777 652 764 597 q 789 756 791 707 q 784 797 788 784 q 767 820 779 810 q 751 827 747 838 q 752 753 766 789 q 659 685 731 709 q 614 674 636 677 q 558 670 591 671 l 518 669 l 492 643 q 279 296 318 468 q 275 241 274 270 q 281 197 275 213 q 297 173 287 184 q 319 155 307 161 m 608 741 q 616 741 608 740 q 635 743 625 741 q 656 747 646 745 q 673 752 663 749 q 690 760 683 756 q 706 768 698 763 q 720 779 714 774 q 725 786 725 784 q 720 788 725 788 q 706 787 714 788 q 690 783 698 786 q 674 778 683 781 q 660 772 666 774 q 639 760 651 767 q 618 747 627 753 q 608 741 608 741 m 824 995 q 798 990 811 990 q 777 994 785 989 q 739 1037 759 1002 q 721 1061 728 1056 q 704 1062 714 1065 q 644 1019 666 1052 q 628 1002 634 1004 q 615 1008 622 1000 q 605 1043 607 1020 q 608 1085 602 1066 q 666 1146 625 1131 q 736 1133 706 1161 q 744 1123 739 1131 q 754 1106 749 1115 q 764 1091 759 1098 q 771 1083 769 1084 q 791 1082 777 1081 q 854 1127 831 1086 q 873 1143 865 1149 q 887 1103 886 1133 q 877 1046 888 1073 q 853 1016 869 1031 q 824 995 838 1000 z "},"Ö":{"ha":920,"x_min":0,"x_max":947,"o":"m 476 0 q 441 -4 465 -3 q 392 -5 418 -5 q 350 -3 366 -5 q 151 128 212 10 q 145 467 81 279 q 279 674 193 590 l 298 692 l 287 690 q 130 637 196 680 q 96 608 113 625 q 73 577 79 590 q 60 562 66 564 q 20 595 39 559 q 0 673 0 631 q 8 721 0 701 q 39 764 17 741 q 204 851 105 833 q 385 814 279 867 l 425 794 l 446 808 q 569 869 513 851 q 634 881 602 879 q 687 878 665 884 q 697 874 693 876 q 702 873 701 873 q 700 876 702 873 q 696 884 699 879 q 691 966 663 942 q 697 969 694 968 q 704 971 700 970 q 717 970 709 971 q 735 968 728 970 q 753 960 743 966 q 861 838 817 929 q 866 431 947 661 q 829 339 851 388 q 785 253 806 291 q 476 0 658 42 m 319 155 q 328 151 323 153 q 336 150 332 150 q 349 151 341 150 q 609 311 493 165 q 730 517 685 410 q 777 652 764 597 q 789 756 791 707 q 784 797 788 784 q 767 820 779 810 q 751 827 747 838 q 752 753 766 789 q 659 685 731 709 q 614 674 636 677 q 558 670 591 671 l 518 669 l 492 643 q 279 296 318 468 q 275 241 274 270 q 281 197 275 213 q 297 173 287 184 q 319 155 307 161 m 608 741 q 616 741 608 740 q 635 743 625 741 q 656 747 646 745 q 673 752 663 749 q 690 760 683 756 q 706 768 698 763 q 720 779 714 774 q 725 786 725 784 q 720 788 725 788 q 706 787 714 788 q 690 783 698 786 q 674 778 683 781 q 660 772 666 774 q 639 760 651 767 q 618 747 627 753 q 608 741 608 741 m 875 970 q 811 990 840 960 q 786 1047 786 1013 q 800 1090 786 1072 q 832 1119 812 1109 q 870 1126 851 1128 q 893 1119 880 1125 q 914 1104 905 1112 q 939 1051 939 1083 q 921 1001 939 1024 q 875 970 903 978 m 684 990 q 621 1010 649 981 q 595 1067 595 1034 q 609 1110 595 1092 q 641 1139 622 1129 q 680 1147 661 1149 q 702 1139 690 1145 q 724 1124 715 1133 q 748 1072 748 1103 q 730 1021 748 1044 q 684 990 712 998 z "},"×":{"ha":465,"x_min":0,"x_max":465,"o":"m 340 120 q 273 117 308 106 q 172 201 218 137 q 161 215 165 209 q 156 222 157 221 q 143 214 155 223 q 117 191 132 205 q 89 165 102 178 q 71 146 76 152 q 65 136 66 140 q 65 130 64 132 q 66 116 71 119 q 53 117 62 113 q 35 130 43 120 q 28 233 0 175 q 49 267 36 250 q 85 311 62 285 l 108 336 l 102 353 q 85 454 87 401 q 98 547 81 519 q 135 588 111 571 q 181 610 159 605 q 214 602 204 614 q 220 579 216 599 q 231 532 225 559 q 239 487 235 506 q 244 465 243 468 q 247 464 245 463 q 253 467 248 464 q 266 477 258 471 q 341 535 300 505 q 406 576 383 564 q 416 580 410 578 q 425 581 421 581 q 448 564 437 581 q 462 527 458 547 q 458 492 465 506 q 445 477 455 488 q 420 456 434 467 q 350 396 378 419 q 307 359 323 372 q 286 341 292 347 q 280 336 280 336 q 289 313 280 333 q 308 270 298 292 q 326 234 319 247 q 366 180 359 174 q 382 175 380 186 q 370 145 382 162 q 340 120 357 128 z "},"Ø":{"ha":920,"x_min":0,"x_max":988,"o":"m 608 741 q 616 741 608 740 q 635 743 625 741 q 656 747 646 745 q 673 752 663 749 q 690 760 683 756 q 706 768 698 763 q 720 779 714 774 q 725 786 725 784 q 720 788 725 788 q 706 787 714 788 q 690 783 698 786 q 674 778 683 781 q 660 772 666 774 q 639 760 651 767 q 618 747 627 753 q 608 741 608 741 m 473 190 q 609 311 545 231 q 730 517 685 410 q 745 554 738 536 q 737 543 741 549 q 473 190 573 320 m 324 153 q 340 173 332 162 q 413 267 403 253 q 490 371 465 338 q 534 431 515 404 q 788 772 699 653 q 784 797 787 788 q 767 820 779 810 q 751 827 747 838 q 752 753 766 789 q 659 685 731 709 q 614 674 636 677 q 558 670 591 671 l 518 669 l 492 643 q 279 296 318 468 q 275 241 274 270 q 281 197 275 213 q 297 173 287 184 q 319 155 307 161 l 324 153 m 891 754 q 866 431 928 609 q 829 339 851 388 q 785 253 806 291 q 476 0 658 42 q 441 -4 465 -3 q 392 -5 418 -5 q 350 -3 366 -5 q 322 1 336 -2 q 301 -24 308 -16 q 287 -40 292 -35 q 279 -46 282 -45 q 271 -49 275 -48 q 237 -36 254 -50 q 218 -6 220 -22 q 219 -1 218 -3 q 221 5 219 1 q 227 16 223 9 q 235 31 231 23 q 237 33 236 32 q 151 128 183 66 q 145 467 81 279 q 279 674 193 590 l 298 692 l 287 690 q 130 637 196 680 q 96 608 113 625 q 73 577 79 590 q 60 562 66 564 q 20 595 39 559 q 0 673 0 631 q 8 721 0 701 q 39 764 17 741 q 204 851 105 833 q 385 814 279 867 l 425 794 l 446 808 q 569 869 513 851 q 634 881 602 879 q 687 878 665 884 q 697 874 693 876 q 702 873 701 873 l 696 884 q 691 966 663 942 q 697 969 694 968 q 704 971 700 970 q 717 970 709 971 q 735 968 728 970 q 753 960 743 966 q 851 857 810 932 q 892 911 886 903 q 917 936 903 923 q 935 951 930 948 q 941 952 939 952 q 948 951 943 952 q 983 916 970 941 q 988 902 987 908 q 983 887 988 896 q 967 861 979 878 q 891 754 952 838 z "},"Ù":{"ha":1169,"x_min":0,"x_max":1239,"o":"m 1050 10 q 964 5 1011 -2 q 911 22 934 9 q 863 60 888 35 q 775 290 774 144 l 775 326 l 763 309 q 683 215 726 261 q 610 149 639 170 q 473 95 538 96 q 447 95 457 94 q 425 98 437 96 q 247 260 315 132 q 359 720 149 451 q 376 740 367 729 q 391 758 385 751 q 400 769 397 764 q 404 775 404 774 q 397 777 403 775 q 384 779 391 778 q 332 780 364 781 q 275 774 300 779 q 163 734 213 764 q 91 666 113 704 q 44 661 74 627 q 11 721 21 686 q 5 788 0 755 q 64 883 17 838 q 176 949 111 927 q 216 958 198 956 q 258 960 234 961 q 337 947 299 961 q 438 893 375 932 q 473 872 458 881 q 489 863 487 863 q 493 863 490 862 q 499 867 496 865 q 535 896 523 886 q 562 915 548 905 q 710 974 654 974 q 782 900 764 974 q 697 761 794 814 q 655 744 675 749 q 605 739 635 740 l 568 737 l 551 715 q 405 486 462 604 q 379 427 389 453 q 361 371 369 400 q 352 289 351 328 q 362 239 352 250 q 378 236 366 237 q 405 235 390 235 q 429 237 419 235 q 606 326 505 252 q 817 540 718 410 q 836 567 829 554 q 852 603 843 580 q 914 727 878 662 q 977 831 949 792 q 1046 911 994 856 q 1081 942 1061 927 q 1114 962 1101 957 q 1163 963 1135 970 q 1206 943 1185 957 q 1235 917 1227 930 q 1239 904 1239 910 q 1233 886 1238 897 q 1214 856 1227 876 q 1042 490 1119 707 q 1015 131 958 250 q 1039 92 1025 109 q 1065 68 1053 75 q 1080 63 1072 64 q 1089 65 1087 62 q 1097 71 1091 68 q 1110 75 1103 73 q 1122 77 1117 77 q 1116 45 1147 77 q 1050 10 1093 23 m 653 827 l 634 810 l 644 810 q 699 825 669 810 q 731 850 717 834 q 751 881 746 865 q 751 886 752 885 q 743 885 749 886 q 733 882 739 884 q 723 878 727 880 q 688 856 708 871 q 653 827 668 842 m 967 989 q 940 984 954 981 q 901 1005 925 987 q 869 1032 888 1015 q 833 1067 850 1050 q 813 1091 817 1084 q 812 1142 804 1112 q 843 1198 821 1172 q 881 1217 863 1221 q 927 1188 895 1214 q 988 1133 960 1162 q 1004 1115 999 1122 q 1010 1101 1008 1108 q 1014 1089 1013 1094 q 1014 1078 1015 1084 q 1010 1063 1013 1073 q 993 1019 1006 1040 q 967 989 980 998 z "},"Ú":{"ha":1169,"x_min":0,"x_max":1239,"o":"m 1050 10 q 964 5 1011 -2 q 911 22 934 9 q 863 60 888 35 q 775 290 774 144 l 775 326 l 763 309 q 683 215 726 261 q 610 149 639 170 q 473 95 538 96 q 447 95 457 94 q 425 98 437 96 q 247 260 315 132 q 359 720 149 451 q 376 740 367 729 q 391 758 385 751 q 400 769 397 764 q 404 775 404 774 q 397 777 403 775 q 384 779 391 778 q 332 780 364 781 q 275 774 300 779 q 163 734 213 764 q 91 666 113 704 q 44 661 74 627 q 11 721 21 686 q 5 788 0 755 q 64 883 17 838 q 176 949 111 927 q 216 958 198 956 q 258 960 234 961 q 337 947 299 961 q 438 893 375 932 q 473 872 458 881 q 489 863 487 863 q 493 863 490 862 q 499 867 496 865 q 535 896 523 886 q 562 915 548 905 q 710 974 654 974 q 782 900 764 974 q 697 761 794 814 q 655 744 675 749 q 605 739 635 740 l 568 737 l 551 715 q 405 486 462 604 q 379 427 389 453 q 361 371 369 400 q 352 289 351 328 q 362 239 352 250 q 378 236 366 237 q 405 235 390 235 q 429 237 419 235 q 606 326 505 252 q 817 540 718 410 q 836 567 829 554 q 852 603 843 580 q 914 727 878 662 q 977 831 949 792 q 1046 911 994 856 q 1081 942 1061 927 q 1114 962 1101 957 q 1163 963 1135 970 q 1206 943 1185 957 q 1235 917 1227 930 q 1239 904 1239 910 q 1233 886 1238 897 q 1214 856 1227 876 q 1042 490 1119 707 q 1015 131 958 250 q 1039 92 1025 109 q 1065 68 1053 75 q 1080 63 1072 64 q 1089 65 1087 62 q 1097 71 1091 68 q 1110 75 1103 73 q 1122 77 1117 77 q 1116 45 1147 77 q 1050 10 1093 23 m 653 827 l 634 810 l 644 810 q 699 825 669 810 q 731 850 717 834 q 751 881 746 865 q 751 886 752 885 q 743 885 749 886 q 733 882 739 884 q 723 878 727 880 q 688 856 708 871 q 653 827 668 842 m 909 989 q 883 1019 896 998 q 865 1063 871 1040 q 863 1078 863 1073 q 863 1089 862 1084 q 866 1101 863 1094 q 872 1115 867 1108 q 888 1133 877 1122 q 949 1188 917 1162 q 995 1217 982 1214 q 1034 1198 1013 1221 q 1064 1142 1056 1172 q 1063 1091 1073 1112 q 1043 1067 1059 1084 q 1008 1032 1027 1050 q 975 1005 989 1015 q 937 984 951 987 q 909 989 922 981 z "},"Û":{"ha":1169,"x_min":0,"x_max":1239,"o":"m 1050 10 q 964 5 1011 -2 q 911 22 934 9 q 863 60 888 35 q 775 290 774 144 l 775 326 l 763 309 q 683 215 726 261 q 610 149 639 170 q 473 95 538 96 q 447 95 457 94 q 425 98 437 96 q 247 260 315 132 q 359 720 149 451 q 376 740 367 729 q 391 758 385 751 q 400 769 397 764 q 404 775 404 774 q 397 777 403 775 q 384 779 391 778 q 332 780 364 781 q 275 774 300 779 q 163 734 213 764 q 91 666 113 704 q 44 661 74 627 q 11 721 21 686 q 5 788 0 755 q 64 883 17 838 q 176 949 111 927 q 216 958 198 956 q 258 960 234 961 q 337 947 299 961 q 438 893 375 932 q 473 872 458 881 q 489 863 487 863 q 493 863 490 862 q 499 867 496 865 q 535 896 523 886 q 562 915 548 905 q 710 974 654 974 q 782 900 764 974 q 697 761 794 814 q 655 744 675 749 q 605 739 635 740 l 568 737 l 551 715 q 405 486 462 604 q 379 427 389 453 q 361 371 369 400 q 352 289 351 328 q 362 239 352 250 q 378 236 366 237 q 405 235 390 235 q 429 237 419 235 q 606 326 505 252 q 817 540 718 410 q 836 567 829 554 q 852 603 843 580 q 914 727 878 662 q 977 831 949 792 q 1046 911 994 856 q 1081 942 1061 927 q 1114 962 1101 957 q 1163 963 1135 970 q 1206 943 1185 957 q 1235 917 1227 930 q 1239 904 1239 910 q 1233 886 1238 897 q 1214 856 1227 876 q 1042 490 1119 707 q 1015 131 958 250 q 1039 92 1025 109 q 1065 68 1053 75 q 1080 63 1072 64 q 1089 65 1087 62 q 1097 71 1091 68 q 1110 75 1103 73 q 1122 77 1117 77 q 1116 45 1147 77 q 1050 10 1093 23 m 653 827 l 634 810 l 644 810 q 699 825 669 810 q 731 850 717 834 q 751 881 746 865 q 751 886 752 885 q 743 885 749 886 q 733 882 739 884 q 723 878 727 880 q 688 856 708 871 q 653 827 668 842 m 1076 979 q 1050 982 1067 966 q 1038 998 1045 987 q 1021 1029 1031 1008 q 996 1072 1002 1067 q 988 1076 993 1074 q 977 1078 983 1078 q 840 999 923 1080 q 812 978 819 978 q 793 989 804 978 q 774 1017 782 1001 q 766 1047 766 1033 q 771 1070 766 1059 q 789 1099 777 1082 q 880 1172 825 1146 q 939 1187 909 1187 q 1046 1099 1006 1187 q 1076 979 1091 1006 z "},"Ü":{"ha":1169,"x_min":0,"x_max":1239,"o":"m 1050 10 q 964 5 1011 -2 q 911 22 934 9 q 863 60 888 35 q 775 290 774 144 l 775 326 l 763 309 q 683 215 726 261 q 610 149 639 170 q 473 95 538 96 q 447 95 457 94 q 425 98 437 96 q 247 260 315 132 q 359 720 149 451 q 376 740 367 729 q 391 758 385 751 q 400 769 397 764 q 404 775 404 774 q 397 777 403 775 q 384 779 391 778 q 332 780 364 781 q 275 774 300 779 q 163 734 213 764 q 91 666 113 704 q 44 661 74 627 q 11 721 21 686 q 5 788 0 755 q 64 883 17 838 q 176 949 111 927 q 216 958 198 956 q 258 960 234 961 q 337 947 299 961 q 438 893 375 932 q 473 872 458 881 q 489 863 487 863 q 493 863 490 862 q 499 867 496 865 q 535 896 523 886 q 562 915 548 905 q 710 974 654 974 q 782 900 764 974 q 697 761 794 814 q 655 744 675 749 q 605 739 635 740 l 568 737 l 551 715 q 405 486 462 604 q 379 427 389 453 q 361 371 369 400 q 352 289 351 328 q 362 239 352 250 q 378 236 366 237 q 405 235 390 235 q 429 237 419 235 q 606 326 505 252 q 817 540 718 410 q 836 567 829 554 q 852 603 843 580 q 914 727 878 662 q 977 831 949 792 q 1046 911 994 856 q 1081 942 1061 927 q 1114 962 1101 957 q 1163 963 1135 970 q 1206 943 1185 957 q 1235 917 1227 930 q 1239 904 1239 910 q 1233 886 1238 897 q 1214 856 1227 876 q 1042 490 1119 707 q 1015 131 958 250 q 1039 92 1025 109 q 1065 68 1053 75 q 1080 63 1072 64 q 1089 65 1087 62 q 1097 71 1091 68 q 1110 75 1103 73 q 1122 77 1117 77 q 1116 45 1147 77 q 1050 10 1093 23 m 653 827 l 634 810 l 644 810 q 699 825 669 810 q 731 850 717 834 q 751 881 746 865 q 751 886 752 885 q 743 885 749 886 q 733 882 739 884 q 723 878 727 880 q 688 856 708 871 q 653 827 668 842 m 1045 970 q 981 990 1010 960 q 956 1047 956 1013 q 970 1090 956 1072 q 1002 1119 983 1109 q 1040 1126 1021 1128 q 1063 1119 1050 1125 q 1084 1104 1076 1112 q 1109 1051 1109 1083 q 1091 1001 1109 1024 q 1045 970 1073 978 m 854 990 q 791 1010 819 981 q 766 1067 766 1034 q 779 1110 766 1092 q 811 1139 792 1129 q 850 1147 831 1149 q 872 1139 860 1145 q 894 1124 885 1133 q 918 1072 918 1103 q 900 1021 918 1044 q 854 990 882 998 z "},"Ý":{"ha":932,"x_min":0,"x_max":1097,"o":"m 511 7 q 460 2 491 3 q 408 4 429 1 q 289 54 345 17 q 250 86 271 65 q 212 128 228 107 q 159 237 174 182 q 164 315 145 292 q 230 294 181 338 q 263 269 248 278 q 298 254 279 260 q 418 245 363 235 q 599 338 505 264 q 810 593 724 434 q 825 619 819 608 q 831 631 831 630 q 820 618 831 631 q 790 585 808 605 q 598 381 665 437 q 473 319 532 326 q 451 316 460 316 q 432 317 443 316 q 303 426 354 332 q 281 609 254 518 q 345 734 302 675 q 353 747 350 742 q 355 753 356 752 q 346 756 354 754 q 326 760 337 758 q 148 741 219 779 q 92 694 108 720 q 86 683 89 690 q 83 670 84 676 q 80 657 81 661 q 75 652 78 654 q 46 663 62 647 q 18 707 30 680 q 3 764 5 734 q 30 849 0 812 q 94 897 51 875 q 181 928 137 920 q 338 922 260 941 q 439 876 385 910 l 461 862 l 475 872 q 551 923 507 898 q 630 960 595 948 q 672 968 650 966 q 709 965 694 969 q 762 874 762 945 q 702 786 760 824 q 640 755 675 768 q 572 738 604 742 q 562 736 566 737 q 554 731 558 735 q 541 719 549 727 q 389 484 422 591 l 385 469 l 408 469 q 562 520 479 469 q 635 572 594 541 q 715 636 677 603 q 773 691 731 651 q 858 772 814 730 q 922 836 901 814 q 964 886 950 865 q 1045 947 1004 947 q 1060 945 1055 947 q 1075 934 1066 942 q 1088 914 1082 927 q 1097 890 1095 901 q 1097 882 1097 885 q 1096 878 1097 880 q 1091 874 1095 876 q 1072 857 1082 868 q 1053 834 1061 845 q 1044 816 1050 828 q 1034 793 1038 804 q 993 684 1017 749 q 952 572 969 620 q 914 468 930 507 q 878 390 898 429 q 732 170 817 263 q 511 7 614 38 m 880 989 q 854 1019 867 998 q 836 1063 842 1040 q 833 1078 834 1073 q 833 1089 833 1084 q 837 1101 834 1094 q 843 1115 838 1108 q 859 1133 848 1122 q 920 1188 888 1162 q 966 1217 953 1214 q 1004 1198 983 1221 q 1035 1142 1027 1172 q 1034 1091 1044 1112 q 1014 1067 1030 1084 q 979 1032 998 1050 q 946 1005 960 1015 q 907 984 922 987 q 880 989 893 981 z "},"Þ":{"ha":760,"x_min":0,"x_max":0,"o":""},"ß":{"ha":965,"x_min":1823,"x_max":2788,"o":"m 2323 -9 q 2114 51 2195 -32 q 2057 147 2072 96 q 2054 194 2053 166 q 2061 235 2055 222 q 2096 240 2076 267 q 2108 182 2116 214 q 2108 177 2107 179 q 2111 174 2108 176 q 2120 169 2114 172 q 2252 152 2165 146 q 2402 190 2335 157 q 2432 208 2419 198 q 2444 223 2444 218 q 2384 294 2444 237 q 2336 346 2351 328 q 2315 381 2321 364 q 2325 460 2299 422 q 2369 509 2338 478 q 2443 574 2401 539 q 2486 609 2464 591 q 2517 635 2507 626 q 2575 689 2543 657 q 2621 739 2607 721 q 2652 783 2638 760 q 2667 810 2667 806 q 2659 813 2667 812 q 2640 814 2651 814 q 2618 813 2629 814 q 2462 745 2550 803 q 2319 624 2397 703 q 2101 363 2201 507 q 2009 218 2054 296 q 1942 92 1963 140 q 1936 79 1940 85 q 1931 71 1933 73 q 1924 65 1927 66 q 1914 65 1921 64 q 1859 97 1888 68 q 1827 155 1828 125 q 1898 362 1823 210 q 2106 663 1976 516 q 2370 893 2237 810 q 2606 966 2502 971 q 2757 833 2727 960 q 2685 583 2788 706 q 2594 500 2646 534 q 2454 428 2542 465 q 2395 400 2415 411 q 2365 381 2374 389 l 2356 372 l 2370 359 q 2388 343 2376 353 q 2412 325 2400 334 q 2465 274 2447 298 q 2496 214 2484 249 q 2495 96 2520 145 q 2323 -9 2450 15 z "},"à":{"ha":656,"x_min":0,"x_max":727,"o":"m 522 89 q 487 83 505 83 q 453 90 468 83 q 381 145 413 107 q 338 230 350 184 q 335 244 336 238 q 333 252 334 251 q 325 247 332 257 q 247 162 289 201 q 176 110 204 123 q 105 112 140 95 q 24 205 45 146 q 45 395 0 289 q 89 461 60 427 q 150 521 118 496 q 194 548 170 536 q 238 566 218 560 q 279 569 256 570 q 321 562 302 568 q 373 531 348 551 q 412 487 398 510 q 418 477 415 481 q 421 473 420 473 q 428 481 422 473 q 441 503 433 490 q 495 568 473 558 q 505 571 500 571 q 519 568 510 571 q 579 527 551 557 q 607 471 607 496 q 601 449 607 465 q 578 399 595 434 q 546 331 557 355 q 530 291 535 306 q 521 262 524 277 q 519 200 510 217 q 530 191 523 191 q 682 308 592 188 q 699 330 692 321 q 709 342 705 338 q 715 347 713 346 q 720 347 718 348 q 727 340 727 347 q 721 317 727 334 q 709 286 715 300 q 694 261 705 278 q 673 229 684 245 q 658 208 663 214 q 651 200 656 205 q 642 188 646 194 q 582 128 616 157 q 522 89 547 99 m 142 187 q 143 186 141 186 q 151 189 145 186 q 166 197 156 191 q 302 318 220 227 q 344 367 322 340 q 380 414 366 393 q 396 437 395 434 q 377 445 394 444 q 339 439 360 445 q 245 376 292 423 q 167 264 199 329 q 156 238 162 254 q 146 207 151 222 q 142 187 142 193 m 435 634 q 408 629 422 626 q 370 650 393 633 q 337 677 356 660 q 302 712 318 695 q 281 736 286 729 q 280 787 272 757 q 311 843 289 817 q 349 863 332 866 q 395 833 363 859 q 456 779 428 808 q 472 760 467 767 q 479 746 477 753 q 482 734 481 739 q 482 724 483 729 q 479 708 481 718 q 461 664 474 686 q 435 634 448 643 z "},"á":{"ha":656,"x_min":0,"x_max":727,"o":"m 522 89 q 487 83 505 83 q 453 90 468 83 q 381 145 413 107 q 338 230 350 184 q 335 244 336 238 q 333 252 334 251 q 325 247 332 257 q 247 162 289 201 q 176 110 204 123 q 105 112 140 95 q 24 205 45 146 q 45 395 0 289 q 89 461 60 427 q 150 521 118 496 q 194 548 170 536 q 238 566 218 560 q 279 569 256 570 q 321 562 302 568 q 373 531 348 551 q 412 487 398 510 q 418 477 415 481 q 421 473 420 473 q 428 481 422 473 q 441 503 433 490 q 495 568 473 558 q 505 571 500 571 q 519 568 510 571 q 579 527 551 557 q 607 471 607 496 q 601 449 607 465 q 578 399 595 434 q 546 331 557 355 q 530 291 535 306 q 521 262 524 277 q 519 200 510 217 q 530 191 523 191 q 682 308 592 188 q 699 330 692 321 q 709 342 705 338 q 715 347 713 346 q 720 347 718 348 q 727 340 727 347 q 721 317 727 334 q 709 286 715 300 q 694 261 705 278 q 673 229 684 245 q 658 208 663 214 q 651 200 656 205 q 642 188 646 194 q 582 128 616 157 q 522 89 547 99 m 142 187 q 143 186 141 186 q 151 189 145 186 q 166 197 156 191 q 302 318 220 227 q 344 367 322 340 q 380 414 366 393 q 396 437 395 434 q 377 445 394 444 q 339 439 360 445 q 245 376 292 423 q 167 264 199 329 q 156 238 162 254 q 146 207 151 222 q 142 187 142 193 m 404 634 q 377 664 390 643 q 359 708 365 686 q 357 724 357 718 q 357 734 356 729 q 360 746 357 739 q 366 760 361 753 q 382 779 371 767 q 444 833 411 808 q 489 863 476 859 q 528 843 507 866 q 558 787 550 817 q 557 736 567 757 q 537 712 553 729 q 502 677 521 695 q 469 650 483 660 q 431 629 445 633 q 404 634 416 626 z "},"â":{"ha":656,"x_min":0,"x_max":727,"o":"m 522 89 q 487 83 505 83 q 453 90 468 83 q 381 145 413 107 q 338 230 350 184 q 335 244 336 238 q 333 252 334 251 q 325 247 332 257 q 247 162 289 201 q 176 110 204 123 q 105 112 140 95 q 24 205 45 146 q 45 395 0 289 q 89 461 60 427 q 150 521 118 496 q 194 548 170 536 q 238 566 218 560 q 279 569 256 570 q 321 562 302 568 q 373 531 348 551 q 412 487 398 510 q 418 477 415 481 q 421 473 420 473 q 428 481 422 473 q 441 503 433 490 q 495 568 473 558 q 505 571 500 571 q 519 568 510 571 q 579 527 551 557 q 607 471 607 496 q 601 449 607 465 q 578 399 595 434 q 546 331 557 355 q 530 291 535 306 q 521 262 524 277 q 519 200 510 217 q 530 191 523 191 q 682 308 592 188 q 699 330 692 321 q 709 342 705 338 q 715 347 713 346 q 720 347 718 348 q 727 340 727 347 q 721 317 727 334 q 709 286 715 300 q 694 261 705 278 q 673 229 684 245 q 658 208 663 214 q 651 200 656 205 q 642 188 646 194 q 582 128 616 157 q 522 89 547 99 m 142 187 q 143 186 141 186 q 151 189 145 186 q 166 197 156 191 q 302 318 220 227 q 344 367 322 340 q 380 414 366 393 q 396 437 395 434 q 377 445 394 444 q 339 439 360 445 q 245 376 292 423 q 167 264 199 329 q 156 238 162 254 q 146 207 151 222 q 142 187 142 193 m 608 619 q 582 623 599 606 q 570 638 577 627 q 553 670 564 649 q 528 713 534 708 q 520 716 525 715 q 509 718 515 718 q 372 640 455 721 q 345 618 351 618 q 325 630 336 618 q 306 657 314 642 q 298 688 298 673 q 303 711 298 699 q 321 739 309 723 q 412 812 357 787 q 471 827 441 827 q 578 739 538 827 q 608 619 623 646 z "},"ã":{"ha":656,"x_min":0,"x_max":727,"o":"m 522 89 q 487 83 505 83 q 453 90 468 83 q 381 145 413 107 q 338 230 350 184 q 335 244 336 238 q 333 252 334 251 q 325 247 332 257 q 247 162 289 201 q 176 110 204 123 q 105 112 140 95 q 24 205 45 146 q 45 395 0 289 q 89 461 60 427 q 150 521 118 496 q 194 548 170 536 q 238 566 218 560 q 279 569 256 570 q 321 562 302 568 q 373 531 348 551 q 412 487 398 510 q 418 477 415 481 q 421 473 420 473 q 428 481 422 473 q 441 503 433 490 q 495 568 473 558 q 505 571 500 571 q 519 568 510 571 q 579 527 551 557 q 607 471 607 496 q 601 449 607 465 q 578 399 595 434 q 546 331 557 355 q 530 291 535 306 q 521 262 524 277 q 519 200 510 217 q 530 191 523 191 q 682 308 592 188 q 699 330 692 321 q 709 342 705 338 q 715 347 713 346 q 720 347 718 348 q 727 340 727 347 q 721 317 727 334 q 709 286 715 300 q 694 261 705 278 q 673 229 684 245 q 658 208 663 214 q 651 200 656 205 q 642 188 646 194 q 582 128 616 157 q 522 89 547 99 m 142 187 q 143 186 141 186 q 151 189 145 186 q 166 197 156 191 q 302 318 220 227 q 344 367 322 340 q 380 414 366 393 q 396 437 395 434 q 377 445 394 444 q 339 439 360 445 q 245 376 292 423 q 167 264 199 329 q 156 238 162 254 q 146 207 151 222 q 142 187 142 193 m 562 629 q 535 624 549 625 q 514 628 522 624 q 476 671 496 636 q 458 695 465 690 q 441 696 452 700 q 381 653 404 686 q 366 636 372 638 q 353 643 359 634 q 342 677 345 654 q 345 720 340 701 q 403 780 363 765 q 473 768 444 795 q 481 757 476 765 q 492 741 486 749 q 502 726 496 732 q 509 718 507 719 q 528 716 514 715 q 591 762 568 720 q 610 777 602 784 q 625 738 624 768 q 614 680 626 707 q 591 650 606 665 q 562 629 575 635 z "},"ä":{"ha":656,"x_min":0,"x_max":727,"o":"m 522 89 q 487 83 505 83 q 453 90 468 83 q 381 145 413 107 q 338 230 350 184 q 335 244 336 238 q 333 252 334 251 q 325 247 332 257 q 247 162 289 201 q 176 110 204 123 q 105 112 140 95 q 24 205 45 146 q 45 395 0 289 q 89 461 60 427 q 150 521 118 496 q 194 548 170 536 q 238 566 218 560 q 279 569 256 570 q 321 562 302 568 q 373 531 348 551 q 412 487 398 510 q 418 477 415 481 q 421 473 420 473 q 428 481 422 473 q 441 503 433 490 q 495 568 473 558 q 505 571 500 571 q 519 568 510 571 q 579 527 551 557 q 607 471 607 496 q 601 449 607 465 q 578 399 595 434 q 546 331 557 355 q 530 291 535 306 q 521 262 524 277 q 519 200 510 217 q 530 191 523 191 q 682 308 592 188 q 699 330 692 321 q 709 342 705 338 q 715 347 713 346 q 720 347 718 348 q 727 340 727 347 q 721 317 727 334 q 709 286 715 300 q 694 261 705 278 q 673 229 684 245 q 658 208 663 214 q 651 200 656 205 q 642 188 646 194 q 582 128 616 157 q 522 89 547 99 m 142 187 q 143 186 141 186 q 151 189 145 186 q 166 197 156 191 q 302 318 220 227 q 344 367 322 340 q 380 414 366 393 q 396 437 395 434 q 377 445 394 444 q 339 439 360 445 q 245 376 292 423 q 167 264 199 329 q 156 238 162 254 q 146 207 151 222 q 142 187 142 193 m 600 614 q 536 635 564 605 q 511 692 511 658 q 524 734 511 716 q 556 763 537 753 q 595 771 576 773 q 617 763 605 770 q 639 749 630 757 q 663 696 663 728 q 645 646 663 669 q 600 614 627 623 m 409 635 q 345 655 374 625 q 320 712 320 678 q 334 755 320 736 q 366 784 347 774 q 404 791 385 793 q 427 784 414 790 q 448 769 439 777 q 473 716 473 748 q 455 666 473 689 q 409 635 437 643 z "},"å":{"ha":656,"x_min":0,"x_max":727,"o":"m 522 89 q 487 83 505 83 q 453 90 468 83 q 381 145 413 107 q 338 230 350 184 q 335 244 336 238 q 333 252 334 251 q 325 247 332 257 q 247 162 289 201 q 176 110 204 123 q 105 112 140 95 q 24 205 45 146 q 45 395 0 289 q 89 461 60 427 q 150 521 118 496 q 194 548 170 536 q 238 566 218 560 q 279 569 256 570 q 321 562 302 568 q 373 531 348 551 q 412 487 398 510 q 418 477 415 481 q 421 473 420 473 q 428 481 422 473 q 441 503 433 490 q 495 568 473 558 q 505 571 500 571 q 519 568 510 571 q 579 527 551 557 q 607 471 607 496 q 601 449 607 465 q 578 399 595 434 q 546 331 557 355 q 530 291 535 306 q 521 262 524 277 q 519 200 510 217 q 530 191 523 191 q 682 308 592 188 q 699 330 692 321 q 709 342 705 338 q 715 347 713 346 q 720 347 718 348 q 727 340 727 347 q 721 317 727 334 q 709 286 715 300 q 694 261 705 278 q 673 229 684 245 q 658 208 663 214 q 651 200 656 205 q 642 188 646 194 q 582 128 616 157 q 522 89 547 99 m 142 187 q 143 186 141 186 q 151 189 145 186 q 166 197 156 191 q 302 318 220 227 q 344 367 322 340 q 380 414 366 393 q 396 437 395 434 q 377 445 394 444 q 339 439 360 445 q 245 376 292 423 q 167 264 199 329 q 156 238 162 254 q 146 207 151 222 q 142 187 142 193 m 457 609 q 361 636 406 591 q 323 717 323 671 q 328 745 323 734 q 425 852 353 813 q 486 870 461 872 q 535 842 510 867 q 568 764 568 812 q 553 704 568 734 q 510 645 536 671 q 457 609 484 619 m 394 672 l 403 667 q 474 711 436 673 q 513 768 501 741 q 516 781 515 773 q 518 795 517 788 q 518 808 519 803 q 516 811 518 812 q 437 746 470 784 q 394 672 404 707 z "},"æ":{"ha":717,"x_min":0,"x_max":797,"o":"m 142 187 q 143 186 141 186 q 151 189 145 186 q 166 197 156 191 q 302 318 220 227 q 344 367 322 340 q 380 414 366 393 q 396 437 395 434 q 377 445 394 444 q 339 439 360 445 q 245 376 292 423 q 167 264 199 329 q 156 238 162 254 q 146 207 151 222 q 142 187 142 193 m 546 360 q 544 354 544 357 q 544 352 543 352 q 558 356 547 352 q 581 365 570 359 q 598 374 592 370 q 627 398 612 382 q 647 426 642 414 q 650 435 649 431 q 651 439 652 439 q 634 435 648 441 q 605 418 621 429 q 570 390 589 408 q 546 360 552 372 m 342 224 q 338 230 340 226 q 335 244 336 238 q 333 252 334 251 q 325 247 332 257 q 247 162 289 201 q 176 110 204 123 q 105 112 140 95 q 24 205 45 146 q 45 395 0 289 q 89 461 60 427 q 150 521 118 496 q 194 548 170 536 q 238 566 218 560 q 279 569 256 570 q 321 562 302 568 q 373 531 348 551 q 412 487 398 510 q 418 477 415 481 q 421 473 420 473 q 428 481 422 473 q 441 503 433 490 q 495 568 473 558 q 505 571 500 571 q 519 568 510 571 q 579 527 551 557 q 581 525 580 526 q 668 489 631 522 q 686 382 730 441 q 543 307 644 319 q 528 303 534 305 q 520 300 522 302 q 514 283 517 296 q 508 257 511 271 q 505 233 506 243 q 517 182 503 196 q 525 175 521 176 q 537 176 528 174 q 663 235 591 184 q 765 334 696 260 l 780 350 l 789 345 q 795 340 793 342 q 795 334 797 338 q 759 265 789 311 q 694 182 728 219 q 635 131 669 155 q 568 94 600 106 q 491 89 531 79 q 440 105 461 95 q 399 133 420 115 q 342 223 360 167 l 342 224 z "},"ç":{"ha":452,"x_min":0,"x_max":503,"o":"m 115 100 q 50 153 73 118 q 2 286 0 215 q 100 502 2 399 q 251 580 175 579 q 374 499 332 576 q 368 399 401 449 q 329 393 345 366 q 330 418 320 406 q 337 431 333 424 q 343 444 341 438 q 345 452 346 450 q 337 448 345 453 q 317 434 329 444 q 294 414 306 425 q 184 265 231 352 q 163 200 155 208 q 209 185 176 186 q 284 199 242 185 q 344 225 309 207 q 401 260 380 244 q 472 332 452 299 q 484 349 479 346 q 495 348 489 353 q 503 335 502 344 q 498 310 503 327 q 406 177 474 244 q 271 92 340 114 q 229 83 252 85 q 208 81 218 81 q 202 71 205 77 q 193 55 197 62 q 189 47 189 47 q 194 41 189 45 q 206 31 199 37 q 239 -56 260 -15 q 224 -76 235 -66 q 199 -93 213 -86 q 187 -98 192 -96 q 174 -100 182 -100 q 152 -101 167 -101 q 115 -100 127 -102 q 92 -92 103 -98 q 59 -68 72 -82 q 46 -44 46 -55 q 73 -29 46 -28 q 128 -13 100 -29 q 143 -1 135 -8 q 157 14 151 7 q 163 23 163 21 q 159 29 163 25 q 147 37 154 33 q 114 92 114 56 q 115 100 114 96 z "},"è":{"ha":410,"x_min":-6,"x_max":467,"o":"m 238 94 q 161 89 201 79 q 111 105 132 95 q 69 133 90 115 q 13 223 31 167 q 34 381 -6 299 q 149 504 74 464 q 244 526 199 529 q 338 489 298 524 q 357 382 400 441 q 214 307 314 319 q 198 303 205 305 q 191 300 192 302 q 184 283 188 296 q 179 257 181 271 q 176 233 176 243 q 187 182 173 196 q 195 175 191 176 q 208 176 199 174 q 333 235 262 184 q 435 334 367 260 l 450 350 l 459 345 q 466 340 464 342 q 466 334 467 338 q 429 265 460 311 q 365 182 399 219 q 305 131 340 155 q 238 94 271 106 m 216 360 q 214 354 214 357 q 214 352 214 352 q 229 356 218 352 q 251 365 240 359 q 269 374 262 370 q 297 398 283 382 q 317 426 312 414 q 321 435 319 431 q 321 439 322 439 q 305 435 319 441 q 275 418 291 429 q 241 390 259 408 q 216 360 222 372 m 272 580 q 244 575 259 572 q 206 596 230 578 q 174 623 193 606 q 138 658 155 641 q 118 682 122 675 q 117 733 109 703 q 148 789 125 763 q 186 808 168 812 q 232 779 199 805 q 293 724 264 753 q 309 706 304 713 q 315 692 313 699 q 318 680 317 685 q 319 669 319 675 q 315 654 318 664 q 298 610 311 631 q 272 580 285 589 z "},"é":{"ha":410,"x_min":-6,"x_max":467,"o":"m 238 94 q 161 89 201 79 q 111 105 132 95 q 69 133 90 115 q 13 223 31 167 q 34 381 -6 299 q 149 504 74 464 q 244 526 199 529 q 338 489 298 524 q 357 382 400 441 q 214 307 314 319 q 198 303 205 305 q 191 300 192 302 q 184 283 188 296 q 179 257 181 271 q 176 233 176 243 q 187 182 173 196 q 195 175 191 176 q 208 176 199 174 q 333 235 262 184 q 435 334 367 260 l 450 350 l 459 345 q 466 340 464 342 q 466 334 467 338 q 429 265 460 311 q 365 182 399 219 q 305 131 340 155 q 238 94 271 106 m 216 360 q 214 354 214 357 q 214 352 214 352 q 229 356 218 352 q 251 365 240 359 q 269 374 262 370 q 297 398 283 382 q 317 426 312 414 q 321 435 319 431 q 321 439 322 439 q 305 435 319 441 q 275 418 291 429 q 241 390 259 408 q 216 360 222 372 m 234 580 q 208 610 220 589 q 190 654 195 631 q 187 669 188 664 q 187 680 186 675 q 191 692 188 685 q 197 706 192 699 q 213 724 201 713 q 274 779 241 753 q 319 808 307 805 q 358 789 337 812 q 389 733 380 763 q 388 682 397 703 q 368 658 384 675 q 332 623 351 641 q 300 596 313 606 q 261 575 275 578 q 234 580 247 572 z "}}}
